<?xml version="1.0" encoding="utf-8"?>
<!-- Generator: Adobe Illustrator 23.0.5, SVG Export Plug-In . SVG Version: 6.00 Build 0)  -->
<svg version="1.1" xmlns="http://www.w3.org/2000/svg" xmlns:xlink="http://www.w3.org/1999/xlink" x="0px" y="0px"
	 viewBox="0 0 500 500" style="enable-background:new 0 0 500 500;" xml:space="preserve">
<style type="text/css">
	.st0{clip-path:url(#SVGID_2_);}
	.st1{fill:#263238;stroke:#263238;stroke-linecap:round;stroke-linejoin:round;stroke-miterlimit:10;}
	.st2{fill:#FFFFFF;stroke:#263238;stroke-linecap:round;stroke-linejoin:round;stroke-miterlimit:10;}
	.st3{fill:#92E3A9;stroke:#263238;stroke-linecap:round;stroke-linejoin:round;stroke-miterlimit:10;}
	.st4{fill:none;stroke:#263238;stroke-linecap:round;stroke-linejoin:round;stroke-miterlimit:10;}
	.st5{fill:#263238;}
</style>
<g id="Background_Simple">
</g>
<g id="Plant">
</g>
<g id="Furniture">
</g>
<g id="Vases">
</g>
<g id="Picture">
</g>
<g id="Character">
	<g>
		<defs>
			<rect id="SVGID_1_" x="1.5" y="19.6" width="437.1" height="480.4"/>
		</defs>
		<clipPath id="SVGID_2_">
			<use xlink:href="#SVGID_1_"  style="overflow:visible;"/>
		</clipPath>
		<g class="st0">
			<path class="st1" d="M186.7,99.5c0,0-31.8,25.5-35.5,42.2c-3.8,16.7,4.8,29.6,8.5,39c3.8,9.4,3.8,28.6,2.4,46.9
				c-1.4,18.3-4.1,38.1-4.1,38.1s38.6,11.3,88.5,10.7c49.9-0.6,88.1-26.7,88.1-26.7s5.8-6.6-4.8-23.3c-10.6-16.7-19.5-9.8-34.8-38.1
				c-15.4-28.3-12.3-57.9-29-77.7s-52.6-19.8-61.5-17.3C195.5,95.7,186.7,99.5,186.7,99.5z"/>
			<path class="st2" d="M117.7,403.8c19.8-25.2,41.3-66.1,41.3-66.1s-3.1,28,1.7,38.4c4.8,10.4,20.8,52.2,21.2,58.2
				c0.3,5.2-16.4,53.6-20.6,65.6h228.4c-2.1-6.7-8-25.1-15.9-41.7c-9.9-20.8-15.7-42.5-15.7-42.5l-3.1-17.9c0,0,42.7,16,43.4,3.8
				s-15.4-72.4-29-107c-13.7-34.6-22.2-45-30.7-49.1c-8.5-4.1-16.7-2.2-27.7,0c0,0-11.6,4.4-31.1,5c-19.5,0.6-47.1-0.3-47.1-0.3
				s-17.1,10.1-21.5,10.4c-4.4,0.3-9.6-0.3-9.6-0.3s-44.7-7.2-56.4-1.3c-11.6,6-19.1,28.7-22.2,34.3c-3.1,5.7-19.2,50.3-28.5,64.2
				c-9.2,13.8-9.5,26.8-9.5,26.8s-24.9,26.7-26,35.6c-1,8.8,3.4,25.5,13,25.8C81.8,446,97.9,429,117.7,403.8z"/>
			<path class="st1" d="M181.9,434.3c0.3,5.2-23.8,53.6-29.9,65.6h237.7c-2.1-6.7-8-25.1-15.9-41.7c-9.9-20.8-15.7-42.5-15.7-42.5
				l-3.1-17.9c0,0,42.7,16,43.4,3.8s-15.4-72.4-29-107c-13.7-34.6-22.2-45-30.7-49.1c-8.5-4.1-16.7-2.2-27.7,0c0,0-11.6,4.4-31.1,5
				c-19.5,0.6-47.1-0.3-47.1-0.3s-17.1,10.1-21.5,10.4c-4.4,0.3-9.6-0.3-9.6-0.3s-13.1-2.1-26.9-3.1c-2.8,8.9-8.6,30.9-15.8,80.5
				c0,0-3.1,28,1.7,38.4C165.5,386.5,181.5,428.4,181.9,434.3z"/>
			<g>
				<path class="st2" d="M204.8,235.1c0,0,3.4,21.7,3.1,22.7c-0.3,0.9-5.1,2.8-6.1,2.5c-1-0.3-6.5,21.1,16.4,31.2
					c22.9,10.1,44.2,1.3,53.1-10.7c8.9-12,8.7-30.2,8.7-30.2s-5.8-1.6-9.6-8.2c-8-14.1-11.6-35.9-11.6-35.9s-8.9,18.3-19.8,25.2
					C228,238.6,204.8,235.1,204.8,235.1z"/>
				<path class="st1" d="M238.4,233.1c-11.6,5-31.4,2-31.4,2s2.7,16.9,3,21.5l28.3-16.8V233.1z"/>
				<g>
					<path class="st3" d="M121.4,406.1c1.8-2.2,1.2-4.5,1.2-6.1c0-1.7,9.1-4.5,12.7-11.2c3.6-6.7,3.6-11.2,5.4-15.1
						c1.8-3.9,10.9-18.4,10.9-13.9s9.1,66.4,8.5,73.6c-0.5,6.3-12.3,53.6-15.5,66.5h11.5c6.7-15.3,35-81.4,40.3-116.7
						c6.1-40.2,4.3-69.8,4.3-82s9.4-44.5,9.4-44.5l-23.9,0.4c0,0-25.4-2.2-34.5-0.6c-9.1,1.7-12.1,4.5-17,10.6
						c-4.8,6.1-14.5,34-14.5,34l-18.5,36.4l-13,30l23,41.8C111.7,409.4,119.5,408.3,121.4,406.1z"/>
					<path class="st3" d="M170.9,411c4.8-12.2,11.5-29.5,13-34.6c2.4-8.1,5.7-35.1,5.7-35.1"/>
					<path class="st3" d="M165.8,423.8c0,0,1.2-2.9,2.9-7.3"/>
					<line class="st3" x1="151.6" y1="359.8" x2="136.4" y2="291.5"/>
					<path class="st3" d="M130.8,368.6c1.7,1.4,3.3,3,4.7,4.7"/>
					<path class="st3" d="M103.6,357.5c0,0,11.8,1.7,21.9,7.5"/>
					<path class="st3" d="M138.4,369.7c0,0-12.7-19.4-32.8-20.3"/>
				</g>
				<path class="st2" d="M107.7,416.9c0,0-5.7-18-11.4-22.1c-5.7-4.1-15.1-10.9-15.1-10.9s-2.4-1.9-1.2-5.6
					c1.2-3.8,5.3-7.5,6.9-13.1s-0.4-6.8,15.1-0.4c15.5,6.4,18.3,32.4,20.6,35.2c2.3,2.7,1.4,7.2-3,11c-4.5,3.8-4.1,7.1-7.7,8.3
					C108.1,420.3,107.7,416.9,107.7,416.9z"/>
				<path class="st3" d="M207.4,262.4c0,0,3.4-11.5-0.5-11.5c-3.9,0-12.5,5.7-13.7,6.5c-2.4,1.7-15,27.6-19.2,34.9
					c-4.2,7.3-12.5,23.7-8.9,24.8c3.6,1.1,18.7-8.7,18.7-8.7l15.6,19.1c0,0,3.6-42.4,6.1-51.3C208,267.2,207.4,262.4,207.4,262.4z"
					/>
				<path class="st3" d="M201.1,272.7c1.9-3.8,3.2-6.1,3.2-6.1"/>
				<path class="st3" d="M183.9,308.4c0,0,8.4-17.2,12.6-26.1"/>
			</g>
			<g>
				<path class="st2" d="M162.8,152.8c0,0,9.3,41,13,49.2c3.7,8.2,15.2,24.6,20,28.7c4.8,4.1,18.9,17.4,28.2,17.1s14.5-3.4,16.3-5.5
					c1.9-2.1,19.7-26,21.9-32.8c2.2-6.8,2.2-20.9,2.2-20.9s8.2-9.2,8.5-16.1c0.4-6.8,2.2-18.1-4.1-15.4c-6.3,2.7-8.9,8.2-8.9,8.2
					s-4.1-10.9-17.1-22.2c-13-11.3-14.1-12.7-14.1-12.7l5.6-23.6l-10.4,23.2c0,0-33,10.6-42.7,14.7
					C171.7,149,162.8,152.8,162.8,152.8z"/>
				<path class="st4" d="M180.8,191.5c0,0,6.9-3.8,16.7-0.9c0,0-2.5-3.5-6.6-3.5"/>
				<path class="st4" d="M240.5,186.3c-9.8-4.1-18.6,1.4-18.6,1.4s0.6-3.2,6-5.2"/>
				<path class="st4" d="M197.7,193.5c0,0-5,1.7-6.6,1.7"/>
				<path class="st4" d="M222.9,190.4c0,0,1.6,1.4,7.6,0"/>
				<path class="st5" d="M214,170.9c0,0,5.3,3.7,9,4.1c3.7,0.4,10.7-2.4,13.2-2.8c2.5-0.4,10.3,0.4,10.3,0.4s-3.3-3.7-7.8-3.3
					C234.1,169.7,218.5,172.6,214,170.9z"/>
				<path class="st5" d="M196,171.5c0,0-3.3,4.5-6.2,5.7c-2.9,1.2-9.4,0-11.5,0.1c-2.1,0.1-8.2,2.5-8.2,2.5s1.6-4.1,5.4-4.6
					S192.7,174,196,171.5z"/>
				<path class="st4" d="M204.1,208.7c0,0,5.7,4.1,9.1,2.9c3.4-1.2,8.9-4.8,8.9-4.8"/>
				<g>
					<path class="st1" d="M219,218.4c0,0-6.8,1-9.1,3.6c-2.4,2.6-1.6,7.5,1.3,8.2c2.9,0.7,8.1-1.7,9.9-1.7c1.8,0,7.8,3.1,8.4-1.9
						C230,221.5,221.6,217.6,219,218.4z"/>
					<path class="st2" d="M221.1,228.5c1.8,0,7.8,3.1,8.4-1.9c0.1-1.1-0.2-2.2-0.8-3.1c-3.2,1.6-5.9,3.5-7.7,5.1
						C221,228.5,221.1,228.5,221.1,228.5z"/>
				</g>
			</g>
			<path class="st2" d="M329.1,330.8c0,0,16.5,58.2,27.3,74.7l-1.3-7.7c0,0,42.7,16,43.4,3.8s-15.4-72.4-29-107
				c-13.7-34.6-22.2-45-30.7-49.1c-5.5-2.6-10.8-2.8-16.8-2c-9.1,10.2-17,38.2-10.4,59.9C319.8,330.3,329.1,330.8,329.1,330.8z"/>
			<g>
				<path class="st3" d="M286.6,416.6c1.7,13.5,4.8,69,5.6,83.3h97.4l-25.8-91.7l-12.5-23l48.9,19.5c0,0-1.9-21.7-3.8-28.3
					c-1.9-6.6-4.8-8.4-5.3-13.3c-0.5-4.9-1.9-16.8-5.3-23.4c-3.4-6.6-12-42-17.3-52.6s-15.8-34-24-39.3c-8.2-5.3-20.6-7.1-20.6-7.1
					l-39.8,5.3l-19.7,50.8l-7.7,4.4c0,0,9.6,21.7,12.5,27C272.2,333.5,284.7,401.2,286.6,416.6z"/>
				<path class="st2" d="M332.7,365.4c0,0,20.1-6.6,26.4-8c6.2-1.3,33.6,3.5,35,4c1.4,0.4,2.9,4.4,2.9,7.5c0,3.1,4.8,15,5.8,23
					c1,8-4.3,13.7-4.3,13.7s-21.1-16.4-38.4-22.1C342.7,377.7,326.4,373.8,332.7,365.4z"/>
				<g>
					<path class="st3" d="M337.5,354.8c0,0,20.2-11.9,36.5-12.4"/>
					<path class="st3" d="M363.4,337.2c-5,1.6-10.9,3.8-16.8,6.9"/>
					<path class="st3" d="M376.8,334c0,0-1.8,0.3-4.9,0.9"/>
					<path class="st4" d="M325.9,265c0,0-18.2,50.4-14.4,53.9c3.8,3.5,18.7,38,18.7,38s-2.9,0.4-1.9,3.5c1,3.1,11,15,11,15"/>
					<path class="st3" d="M272.2,238.9c0,0-11.5,45.5-12,49.1c-0.5,3.5-3.4,13.3-3.4,13.3s13.9,8.4,17.8,10.2
						c3.8,1.8,18.7,11.5,18.7,8.8c0-2.7,0-15,0-22.1c0-7.1-4.3-53.5-4.3-53.5S278.4,237.6,272.2,238.9z"/>
				</g>
			</g>
			<path class="st2" d="M387.3,386.6c0,0-31.3-9.8-46.3-16.4c-15-6.6-54.8-37.7-61.3-42.7c-6.4-4.9-11.8-20.3-13.9-23.3
				c-2.1-3-4.6-4.3-8.5-9.8c-3.9-5.6-7.5-16.4-10.7-12.1c-3.2,4.3-1.4,10.5,1.1,14.1c2.5,3.6,5.3,7.5,5.3,7.5s-13.5,3.9-16,4.3
				c-2.5,0.3-19.9-3.3-24.9-5.3c-5-2-20.3-6.8-20-3.9c0.4,3,7.5,7.3,13.2,9.3c5.7,2,17.8,6.1,17.8,6.1s-15.8-1.5-22.2-4.1
				c-6.4-2.6-17.1-8.5-18.5-7.2c-1.4,1.3-0.4,3.6,1.4,5.3c1.8,1.6,15,9.2,19.2,10.8s16.2,5.7,16.2,5.7s-20.7-0.7-23.9-1.3
				c-3.2-0.7-13.9-3.3-14.2-1.3c-0.4,2,1.8,4.9,5,5.6c3.2,0.7,15,4.3,18.5,4.3c3.6,0,11.8,2.3,11.8,2.3s-3.6,1.3-6.1,1.3
				c-2.5,0-15.3,1.3-18.9,1c-3.6-0.3-5,3.6-1.8,4.6c3.2,1,24.9,1.3,27.4,1.3c2.5,0,23.9,4.6,29.2,5.6c5.3,1,21,2.6,21,2.6
				s44.3,45.7,53.4,54.1c26.4,24.3,54.8,28.6,65.5,28.6c10.7,0,15.3-0.7,15.7-11.2c0.4-10.5-6.4-36.1-6.4-36.1"/>
			<path class="st2" d="M61.1,415.1c0,0-56.6,26.9-75.9,46.4s-23.3,17.8-23.3,17.8l9.9,15.5l111.1-53.5"/>
		</g>
	</g>
</g>
<g id="Table">
</g>
</svg>
