<?xml version="1.0" encoding="utf-8"?>
<!-- Generator: Adobe Illustrator 23.0.5, SVG Export Plug-In . SVG Version: 6.00 Build 0)  -->
<svg version="1.1" id="Layer_1" xmlns="http://www.w3.org/2000/svg" xmlns:xlink="http://www.w3.org/1999/xlink" x="0px" y="0px"
	 viewBox="0 0 288 288" style="enable-background:new 0 0 288 288;" xml:space="preserve">
<style type="text/css">
	.st0{fill:#00A499;}
	.st1{fill:#F4E6CE;}
	.st2{fill:#542D47;}
	.st3{fill:#E1C7B0;}
	.st4{fill:#FEFDFE;}
	.st5{fill:#C3BEC8;}
	.st6{fill:#FDCCF4;}
	.st7{fill:#ACD5CA;}
	.st8{fill:#D16264;}
</style>
<path class="st0" d="M159.4,265.4c-0.6,1.4-1.2,3.1-3.3,1.8c-6.4-3.8-13.6-3.4-20.4-2.4c-12.4,1.8-24.7,3.4-37.2,3.1
	c-6.3-0.1-12.4-1.3-17.9-4.1c-2.9-1.5-5.8-1.5-8.9-1.1c-3.3,0.4-6.8,1.5-9.8-1c0.5-3.3,1.4-6.5,1.5-9.8c0.2-3.2,1.6-4.2,4.9-4.5
	c7.6-0.7,15-1.8,22-5c16.2-7.4,29.9-17.7,42.3-29.7c0.7-0.5,1.4-1,2.1-1.5c5.4-2,8.4-6.7,12.8-10.1c1.9,3.2,1.3,6.4,1.7,9.5
	c2.1-2.9,1.8-5.9,0.4-8.8c-0.6-1.3-1.1-2.2-0.1-3.6c5.1-6.6,8-14.3,12.6-21.3c-2.2-0.4-2-1.8-1.5-3.2c0.6-1.9,0.4-3.6,0-5.5
	c-0.5-2.6-2.3-5.8,1.3-8c-1.3-0.6-2.1,0.3-3,0.3c-0.2-0.3-0.4-0.6-0.6-0.9c0.1-1.6,0.3-3.3,0.4-5.3c-1.5,1-1.6,2.2-2.1,3.2
	c-1.4,3.2-3.2,6-6.4,8.1c-2.7,1.7-4.8,4.2-7,6.6c-3.7,4-7.7,7.6-12.2,10.9c-0.7-1.2-0.4-2.4-0.4-3.5c0-2.7,0.2-5.5-0.6-8.2
	c-0.4-1.6-1.3-2.9-3.1-3c-1.6-0.1-2,1.4-2.5,2.6c-0.9,1.9-1.2,3.9-1.5,6c-1.6-0.9-3.2-0.3-5-0.7c1.5,2.6,4.3,4.2,4.1,7
	c-0.3,3.3-0.6,6.7-1.7,9.8c-1.1,3.1-0.7,5.7,0.7,8.3c0.8,1.5,0.3,2.2-0.6,3.3c-4,4.5-8.8,6.8-15.2,4.8c-1.3-0.4-2.7-0.5-4.2,0.2
	c2.7,1.9,5.3,2.7,9.2,2.7c-9.3,5.1-18.2,8.4-27.7,11.7c-0.2-2.5-0.5-4.6-0.5-6.6c0.1-9.8,2.6-19.4,3.9-29c0.9-6.5,4.2-12.9,1.9-19.8
	c-0.5-1.5-0.2-3.3-1.8-4.8c-0.6,8,0,16.2-2.2,24c-3-0.1-4.3-2.9-7-3.1c-2.5-1.6-5-3.3-7.6-4.9c-3-2.3-6.3-0.8-9.5-0.7
	c0-1.4,1.1-2.1,2.2-2.7c2.7-0.7,5.3-1,7.9,0.2c0.4,0.5,0.9,0.6,1.6,0.1c-0.4-0.2-0.7-0.5-1.1-0.7c-1.3-1.4-3.5-0.9-5-2.1
	c0.8-3.9,2.1-7.6,3.4-11.3c2.4-7.1,4.2-14.4,11.5-19.1c7.2-4.6,14.5-8.5,23.3-9.6c1.9-0.2,3.4-0.2,4.8,1.8c3.5,4.5,8,7.8,14.6,6.6
	c0.4-0.1,0.8,0.5,1.5,1c-0.1-1.5,0.5-2.3,2.2-2.5c1.8,5.9,3.7,11.8,6.7,17.3c2,3.6,4,7.6,9.1,7.5c5.1-0.1,7.3-4.1,9.5-7.7
	c0.2-0.4,0.2-0.9,0.4-1.3c0.5-1.2,1-2.3,1.6-3.5c2.4-2.3,3.2-5.2,3.6-8.2c0.6-1,0.9-2,0.8-3.1c1.7-0.5,2.6,0.3,2.7,1.7
	c0.1,1.4,0.6,2.1,2.2,1.9c0.2,0,0.3,0.1,0.3,0.3c0.1,0.2,0.2,0.5,0.3,0.7c-0.9,1.8,0.2,2.9,1.7,3.8c2.4,1.4,4.5,4,7.7,2.3
	c2.5-1.3,4.4-1.2,6.4,0.5c1.7,0.9,3.4,1.7,5.1,2.6c-7.3-2.5-15.8,1-22.6-4c2.4,3.6,5.7,5.3,9.9,4.3c3-0.7,5.8-0.4,8.6,0.5
	c2.1,0.7,4.3,1.2,6.1-0.6c3-1.6,3.8-4.2,3.8-7.2c0.1-0.8-0.4-1.8,1.1-2.4c3.7,3.2,4.7,7.4,5,11.9c0.2,4.4-0.7,8.9,0.5,13.3
	c0,0.5,0,0.9-0.1,1.4c-0.9,0.9-0.4,2.1-0.5,3.1c-0.2,2.7,0.1,5.4-0.8,8c-0.6,1.7,0.3,2.3,2.1,1.9c0.5,1.1,1.9,2.3-0.6,2.8
	c-2.3,0.5-5.6-1.6-6.9,2c-0.4,0.2-0.9,0.4-1.3,0.6c-1.1,0-2.1,0-1.5,1.5l0,0c-0.3,0-0.6,0-0.8,0c0,0.3,0,0.5,0,0.8l0,0
	c-0.3,0-0.6,0-0.8,0c0,0.3,0,0.5,0,0.8l0,0c-0.3,0-0.5,0-0.8,0c0,0.3,0,0.5,0,0.8l0-0.1c-1.7-0.7-2.1,0.9-3,1.6
	c-1.6,1.2-3,2.6-5.3,2.5l0.1,0c0.2-0.6,0.3-1.3,0.6-1.9c2-3.8,2.4-8.7,1.1-11.8c-1.5-3.6-1.4-6.7-0.8-10c0.9-5.3,1-5.8-2.2-11.6
	c0,3.1-0.2,5.3,0,7.5c0.7,6.2,0.6,12.3,0.7,18.5c0.1,5.4-1.7,10.2-5.9,14.2c-3.2,3.1-6.2,6.4-9.1,9.7c-1.2,1.4-2.8,3.6-2.1,4.9
	c1.4,2.4,0,4-0.4,6c-2.1,10.8-3.5,21.7-2.7,32.7C157.4,260,157.6,262.9,159.4,265.4z M88.9,154c0,5.4,0,10.8,0,16.2
	c0.4,0,0.9,0,1.3,0C90.4,164.8,90.7,159.4,88.9,154z M135,165.8c-1.6-3-4-5.4-5.8-8.2C129.8,161.2,131.7,163.9,135,165.8z
	 M121.9,256.4c0.1,0.1,0.1,0.2,0.2,0.3c5.8,0,11.6,0,17.3,0c0-0.1,0-0.2,0-0.3C133.6,256.4,127.7,256.4,121.9,256.4z M133.1,174.8
	c1.7-1.1,1.7-1.1-1.7-6.3C132,170.6,132.6,172.7,133.1,174.8z M74.2,179.3c3.8,2.8,3.8,2.8,6.4,1.8
	C78.7,179.7,76.3,179.9,74.2,179.3z M85.5,163.1c0.1-0.1,0.3-0.2,0.2-0.2c-0.1-0.2-0.2-0.4-0.3-0.5c-0.1,0.1-0.3,0.2-0.2,0.2
	C85.2,162.8,85.4,163,85.5,163.1z"/>
<path class="st1" d="M188.1,261c-2.2,1.6-4.6,2-7.1,0.5c-1-0.6-2.1-0.5-3.2-0.5c-2.1-6.5-1.4-13.3-2-19.9
	c-0.6-6.9-0.5-13.9,0.6-20.8c1.2-7.9,3.1-15.4,9.8-21.2c2.3-2,5-4.4,5.6-7.7c-0.1-0.2,0-0.3,0.1-0.4c0.3-0.2,0.6-0.4,0.8-0.5
	c3.6-0.7,3,1.4,2.7,3.4c-2,13.8-4.5,27.6-5.4,41.6C189.4,243.9,188.7,252.5,188.1,261z"/>
<path class="st2" d="M107.8,131.2c2.6,2.6,4.6,5.6,8.1,7.4c5,3,10,1.4,10.3-3.3c2.2-4.2-0.5-7.6-2.2-11.1c0-0.6,0.2-1.2,0-1.7
	c-2.5-7.2-4.8-14.5-4.5-22.2c1.9-7.3,6-13.7,9.8-20.2c1.7,1.2,0.7,2.5,0,3.6c-3,5-5.6,10.1-7.2,15.7c-1.3,4.5-1.9,8.9,0.5,12.8
	c4.3,7.1,8.6,14.1,14.3,20.4c2,2.3,4.5,3.9,7.9,3.8c4.8,0.4,9.4-0.8,14-1.8c1-0.2,1.5-0.7,1.5-1.6c1.9,0.7,2,2.3,2.3,3.8
	c-1.1,0.6-3,0.6-2.1,2.4c0.8,1.8,2.4,1.5,4,1.1c0.1,0.1,0.3,0.3,0.4,0.4c-1.5,1.3-2.6,2.7-1.1,4.6c-1.6,0.2-2.1-0.5-2.2-1.9
	c-0.1-1.5-1-2.3-2.7-1.7c-2.3-0.3-2.2-4-5.4-3.1c-3.1,0.8-6.3,0.5-9.4,0.7c-7.6-0.9-10.9-6.8-15.5-12.2c0.3,2.7,0.8,4.6,0.8,6.5
	c-0.3,9.2,3.1,17.4,7,25.5c0.7,1.4,1.6,2.8,3.2,3.6c2.4,2.5,4.7,1.3,7.1-0.1c2.6-1.6,3.3-4.8,6.2-6.1c-0.1,0.4-0.1,0.9-0.4,1.3
	c-2.3,3.6-4.4,7.6-9.5,7.7c-5.1,0.1-7.2-3.9-9.1-7.5c-3.1-5.5-4.9-11.4-6.7-17.3c-1.7,0.2-2.3,1-2.2,2.5c-0.7-0.4-1.2-1-1.5-1
	c-6.6,1.2-11.2-2.1-14.6-6.6c-1.5-1.9-3-2-4.8-1.8c-8.8,1.1-16.1,5-23.3,9.6c-7.3,4.7-9.1,12-11.5,19.1c-1.3,3.7-2.5,7.5-3.4,11.3
	c1.4,1.3,3.7,0.8,5,2.1c-0.2,0.2-0.3,0.4-0.5,0.5c-2.6-1.3-5.2-0.9-7.9-0.2c3.2-9,6.3-18.1,9.6-27.1c1.1-2.9,3.6-5.1,6.3-6.9
	c6.7-4.5,14-7.9,22.3-9.5c-10.2-10.5-8.4-22-4-33.8c0.3-0.9,0.6-2,1.9-2.4c-1,5.2-2.8,10.3-3.4,15.7c-0.4,3.6-0.5,7,1.9,10.1
	c-0.8,2.5,1.4,6.8,4.6,8.9C103.6,133,105.7,133,107.8,131.2z"/>
<path d="M177.8,199.1c2.3,0.2,3.7-1.3,5.3-2.5c0.9-0.6,1.2-2.3,3-1.6c-0.2,2.2-2.2,3-3.6,4.3c-1.8,1.7-4.6,1.2-6.2,3
	c-2.3,2.6-4.3,5.3-3.2,9.1c0.5,1.7,0.1,3.6-0.1,5.5c-0.5,8.1-1.1,16.2-1.6,24.3c-1,8.7-0.9,17.5,0.3,27.1c-2.4-2-2.4-3.8-2.6-5.5
	c-1.3-8.9-0.2-17.8,0.4-26.7c0.6-9,1.4-18,2.3-28c-5.1,4.2-8,8.7-9.2,13.8c-3,13-4.8,26.2-2.6,39.6c0.2,1.3,1.3,2.9-0.5,4
	c-1.8-2.5-2.1-5.3-2.3-8.2c-0.8-11,0.5-21.9,2.7-32.7c0.4-2,1.8-3.6,0.4-6c-0.7-1.3,0.9-3.5,2.1-4.9c2.9-3.4,5.9-6.6,9.1-9.7
	c4.2-4,5.9-8.9,5.9-14.2c-0.1-6.2,0-12.3-0.7-18.5c-0.3-2.2,0-4.5,0-7.5c3.2,5.8,3.1,6.4,2.2,11.6c-0.6,3.3-0.6,6.4,0.8,10
	c1.3,3.1,0.8,8-1.1,11.8C178.1,197.8,178,198.5,177.8,199.1C177.8,199.1,177.8,199.1,177.8,199.1z"/>
<path d="M132.7,212.7c-12.4,12-26.1,22.3-42.3,29.7c-7,3.2-14.5,4.2-22,5c-3.3,0.3-4.7,1.4-4.9,4.5c-0.2,3.3-1,6.5-1.5,9.8
	c-2,0.2-2-1.1-2.1-2.4c-0.2-3.8,0.6-7.5,2.2-11.3c-4.4-2-4.3-5.8-4.4-9.6c-0.5-18.5,0.5-36.8,3.9-55.1c0.3-1.9,0.1-3.1-1.6-4.1
	c3.2-0.1,6.5-1.6,9.5,0.7c-1.2,0-2.4,0.1-3.6,0c-1.4-0.1-2,0.5-1.8,1.8l0,0.1c-0.1,0.3-0.2,0.6-0.3,0.9c-0.3,1.6-0.6,3.1-0.9,4.7
	c-2.8,17.2-2.8,34.7-3.5,52c-0.2,5.3,0.7,6.2,6.5,6.5c1.1,0.1,2.2,0,3.3-0.1c10.5-0.9,20-4.2,28.9-9.3c11.7-6.7,21.7-15.2,31.9-23.7
	c0.7-0.3,1.4-0.5,2-0.8C132.2,212.2,132.4,212.4,132.7,212.7z"/>
<path class="st3" d="M171.4,241.1c0.5-8.1,1.1-16.2,1.6-24.3c0.1-1.8,0.5-3.8,0.1-5.5c-1.1-3.8,0.9-6.5,3.2-9.1
	c1.5-1.7,4.4-1.3,6.2-3c1.4-1.3,3.5-2.1,3.6-4.3c0,0,0,0.1,0,0.1c0.5,0,0.8-0.3,0.8-0.7c0,0,0,0,0,0c0.5,0,0.7-0.3,0.8-0.7
	c0,0,0,0,0,0c0.5,0,0.8-0.3,0.8-0.7c0,0,0,0,0,0c0.8-0.3,1.4-0.7,1.5-1.5c0.4-0.2,0.9-0.4,1.3-0.6c0.2,0.1,0.5,0.3,0.7,0.4
	c-0.6,3.3-3.3,5.7-5.6,7.7c-6.7,5.9-8.5,13.4-9.8,21.2c-1.1,6.9-1.2,13.9-0.6,20.8c0.6,6.6-0.1,13.4,2,19.9c-0.2,1.5-1,2.7-2.7,2.6
	c-1.7-0.1-1.9-1.8-2-2.9c-0.4-5.2-1.3-10.4-1.1-15.6C172,243.8,172.4,242.3,171.4,241.1z"/>
<path class="st2" d="M117.4,54.3c-2.9,1.8-4.3,4.6-5.9,7.3c-6.1,7.9-8.5,17-10.3,26.3c-1.3,2.4-0.8,5.3-2.8,7.4
	c-1.1-0.6-0.8-1.6-0.7-2.5c3.1-22.8,13-41.9,34.5-54.5c10.7-6.3,22.4-8.5,35-6.3c0.5,0.1,1,0.2,1.4,0.3c0.2,0.1,0.2,0.3,0.5,0.8
	c-5.1-0.5-10-1.1-15-0.5c-15,1.8-26.5,9.1-36.1,19.5c-0.3,0.3-0.4,0.8-0.5,1.3c0,0,0,0,0,0C117.1,53.7,116.8,54,117.4,54.3z"/>
<path class="st2" d="M191.7,191.3c-0.2-0.1-0.5-0.3-0.7-0.4c1.3-3.6,4.5-1.5,6.9-2c-0.6,4.2-1,8.5-1.7,12.7
	c-3.2,19.4-4.4,38.9-5.8,58.4c-0.1,1.8-0.4,3.6-0.7,5.8c-2-1.6-1-3.4-1.6-4.7c0.6-8.6,1.3-17.1,1.9-25.7c0.9-14,3.4-27.7,5.4-41.6
	c0.3-2,0.8-4.1-2.7-3.4c-0.4,0-0.8,0-0.8,0.5C191.7,191,191.6,191.2,191.7,191.3z"/>
<path d="M189.7,149.1c-1.8-5.7-0.2-11.3,0.8-16.9c1.6-8.9,4.1-17.6,6.9-26.2c0.3-1.1,1.1-2,1.7-3c0.4,2.8-1,5.4-1.8,7.9
	c-3.5,10.9-4.8,22.1-5.8,33.4c3.7,1,5.1,3.8,6,6.6c2.5,7.8,2.7,15.8,1.3,23.9c-0.6,3.6-1.2,7.4-0.4,11.2c-1.8,0.4-2.7-0.3-2.1-1.9
	c0.9-2.6,0.5-5.3,0.8-8c0.7-1,0.6-2,0.5-3.1c0-0.5,0-0.9,0.1-1.4c0.2-4.5,0.7-8.9-0.5-13.3c-0.2-4.5-1.2-8.7-5-11.9
	c-1.5,0.5-1,1.5-1.1,2.4C190.7,148.9,190.2,149,189.7,149.1z"/>
<path class="st2" d="M201.4,94.8c1.6-5.7,3.1-11.4,4.9-17c0.5-1.7,0.2-3.4,0.4-5.1c1.9-6.6,0.3-12.7-2.9-18.6
	c-0.4-0.7-0.9-1.3-1.3-2c0-0.1,0.1-0.2,0.4-0.8c3,2.6,4.5,5.7,5.2,9c2.5,11.3,0.1,22.1-4.3,32.6C203.4,93.8,203.7,96.1,201.4,94.8z"
	/>
<path d="M76.9,184.8c2.7,0.3,4,3,7,3.1c2.3-7.8,1.6-16,2.2-24c1.6,1.4,1.3,3.2,1.8,4.8c2.3,6.8-1,13.2-1.9,19.8
	c-1.3,9.7-3.8,19.2-3.9,29c0,2,0.3,4.1,0.5,6.6c9.4-3.3,18.4-6.6,27.7-11.7c-3.9,0-6.5-0.8-9.2-2.7c1.6-0.7,2.9-0.6,4.2-0.2
	c6.4,2,11.1-0.4,15.2-4.8c1-1.1,1.4-1.9,0.6-3.3c-1.4-2.6-1.9-5.2-0.7-8.3c1.1-3.1,1.4-6.5,1.7-9.8c0.2-2.8-2.6-4.5-4.1-7
	c1.8,0.4,3.4-0.2,5,0.7c0.2-2.1,0.6-4.1,1.5-6c0.5-1.2,0.9-2.7,2.5-2.6c1.8,0.1,2.6,1.4,3.1,3c0.7,2.7,0.5,5.5,0.6,8.2
	c0,1.1-0.4,2.2,0.4,3.5c4.5-3.4,8.6-6.9,12.2-10.9c2.1-2.4,4.2-4.9,7-6.6c3.2-2,5-4.9,6.4-8.1c0.4-1,0.6-2.2,2.1-3.2
	c-0.2,2.1-0.3,3.7-0.4,5.3c-0.4,0.2-0.7,0.4-1.2,0.7c0.6,0.6,1.2,0.4,1.7,0.2c1,0.1,1.8-0.9,3-0.3c-3.6,2.2-1.7,5.4-1.3,8
	c0.4,2,0.5,3.7,0,5.5c-0.4,1.4-0.7,2.9,1.5,3.2c-4.6,7-7.5,14.7-12.6,21.3c-1.1,1.4-0.5,2.3,0.1,3.6c1.4,3,1.8,6-0.4,8.8
	c-0.4-3.1,0.2-6.4-1.7-9.5c-4.4,3.4-7.5,8.1-12.8,10.1c-0.2-0.2-0.4-0.3-0.6-0.5c0.9-2,2.8-3.1,4.5-4.4c6.7-5.1,11.4-11.5,15-18.7
	c0.4-0.4,1.1-0.8,0.2-1.6c-0.3,0.4-0.6,0.7-0.8,1c-1.4,1-2,2.7-3.9,3.1c0-0.4,0-0.7,0.1-1.1c3.4-6.7,9.7-12.3,9.2-20.8
	c-2.4,0.9-2.8,3.9-5.6,3.4c1.6-2.6,4.7-4.2,5.3-7.5c-5.6,0.5-26.6,19.7-28.1,26c-3.3-6.1-0.2-12.5-2.7-18.2
	c-1.8,9.1-5.1,18.1-3.8,27.4c0.5,3.8-0.7,6.1-3.3,8.3c-2,1.7-4.2,3.2-6.4,4.6c-9.9,6.5-21.5,9.9-32.4,14.7c-2.8,1.2-5.2,3.2-8.5,3.5
	c0.2-0.4,0.3-1.1,0.6-1.2c7.6-2.1,7-7.7,6.4-13.2c0-0.4,0-0.9,0.1-1.4c0.7-6.9,1.7-13.8,3.2-20.6c0.5-2.3,0.5-4-2.3-5.2
	C79.2,188.1,77.2,187,76.9,184.8z"/>
<path class="st3" d="M76.9,184.8c0.2,2.3,2.3,3.3,4,4c2.8,1.2,2.8,2.9,2.3,5.2c-1.5,6.8-2.5,13.7-3.2,20.6c0,0.5-0.1,0.9-0.1,1.4
	c0.6,5.6,1.2,11.1-6.4,13.2c-0.3,0.1-0.4,0.8-0.6,1.2c-0.6,1.3-1.1,3-3.3,1.2c0.5-1.2,1.1-2.5,1.7-3.7c4.7-9.6,7.1-19.7,6.8-30.3
	c-0.2-9-5.6-14.9-14.3-15.8c-0.1-1.2,0.4-1.9,1.8-1.8c1.2,0.1,2.4,0,3.6,0C71.9,181.5,74.4,183.1,76.9,184.8z"/>
<path class="st3" d="M143.9,139.4c3.1-0.2,6.3,0.1,9.4-0.7c3.2-0.9,3.1,2.9,5.4,3.1c0.1,1.1-0.2,2.1-0.8,3.1c-2,2.4-3.2,5.2-3.6,8.2
	c-0.5,1.2-1,2.3-1.6,3.5c-2.9,1.3-3.6,4.5-6.2,6.1c-2.4,1.5-4.7,2.6-7.1,0.1c5.8-6.2,7.9-13.7,9-21.7
	C146.5,140.7,145,140.5,143.9,139.4z"/>
<path class="st4" d="M164.3,140.5c-1.6,0.3-3.2,0.6-4-1.1c-0.8-1.8,1-1.9,2.1-2.4c-0.3-1.6-0.4-3.1-2.3-3.8c0.4-1.8-3.9-3.5-0.4-5.5
	c1.7,1.8,2.4,4.5,5.5,4.8c0.7,0.8,1.3,1.5,2,2.4c1.7-0.9,3-2.5,4.9-1.1c1.1,0.8,2.3,1.8,1.7,3.1c-1.1,2.3,0,4.5-0.4,6.8
	c0,0.6,0,1.3,0,1.9c-0.3,0.3-0.6,0.7-0.9,1c-1.5-0.7-2.3,0.4-3.4,1c-1.2,0.8-3.1,0.8-3.1,2.8c-1.6-0.9-2.6-1.9-1.7-3.8
	c-0.1-0.2-0.2-0.5-0.3-0.7c0-0.2-0.1-0.3-0.3-0.3c-1.5-1.9-0.4-3.3,1.1-4.6c0.3-0.1,0.7-0.3,0.4-0.6
	C165.1,140.2,164.6,140.4,164.3,140.5z"/>
<path d="M187.4,155.9c-1.9,1.8-4.1,1.3-6.1,0.6c-2.9-0.9-5.6-1.2-8.6-0.5c-4.3,1-7.6-0.7-9.9-4.3c6.8,5,15.3,1.5,22.6,4
	C185.9,155.8,186.6,155.9,187.4,155.9z"/>
<path d="M88.9,154c1.8,5.4,1.5,10.8,1.3,16.2c-0.4,0-0.9,0-1.3,0C88.9,164.8,88.9,159.4,88.9,154z"/>
<path class="st2" d="M135,165.8c-3.3-1.9-5.3-4.7-5.8-8.2C131,160.4,133.5,162.9,135,165.8z"/>
<path class="st2" d="M121.9,256.4c5.8,0,11.7,0,17.5,0c0,0.1,0,0.2,0,0.3c-5.8,0-11.6,0-17.3,0C122,256.6,121.9,256.5,121.9,256.4z"
	/>
<path class="st2" d="M154.3,153.1c0.4-3,1.6-5.8,3.6-8.2C157.5,148,156.7,150.9,154.3,153.1z"/>
<path d="M133.1,174.8c-0.6-2.1-1.1-4.2-1.7-6.3C134.9,173.7,134.9,173.7,133.1,174.8z"/>
<path class="st5" d="M197.1,158.3c1.2,4.4,0.7,8.9,0.5,13.3C196.4,167.2,197.3,162.7,197.1,158.3z"/>
<path class="st2" d="M74.2,179.3c2.1,0.6,4.4,0.4,6.4,1.8C78.1,182.1,78.1,182.1,74.2,179.3z"/>
<path class="st2" d="M134.8,211.2c-0.7,0.5-1.4,1-2.1,1.5c-0.2-0.2-0.5-0.5-0.8-0.7c0.8-0.4,1.5-0.9,2.3-1.3
	C134.4,210.9,134.6,211.1,134.8,211.2z"/>
<path class="st5" d="M197.6,173.1c0.1,1.1,0.2,2.1-0.5,3.1C197.2,175.1,196.7,174,197.6,173.1z"/>
<path class="st2" d="M189.7,191.5c-0.1,0.9-0.7,1.3-1.5,1.5C187.6,191.5,188.6,191.5,189.7,191.5z"/>
<path class="st2" d="M85.5,163.1c-0.1-0.2-0.2-0.3-0.3-0.5c0,0,0.2-0.1,0.2-0.2c0.1,0.2,0.2,0.3,0.3,0.5
	C85.7,163,85.5,163.1,85.5,163.1z"/>
<path class="st2" d="M70.5,176.1c0.3,0.2,0.7,0.4,1.1,0.7c-0.7,0.5-1.2,0.3-1.6-0.1C70.2,176.5,70.3,176.3,70.5,176.1z"/>
<path class="st2" d="M164,145.8c0.1,0.2,0.2,0.5,0.3,0.7C164.2,146.3,164.1,146.1,164,145.8z"/>
<path class="st2" d="M188.2,193c0,0.5-0.3,0.7-0.8,0.7c0-0.3,0-0.5,0-0.8C187.7,192.9,188,192.9,188.2,193z"/>
<path class="st2" d="M187.5,193.6c0,0.4-0.3,0.7-0.8,0.7c0-0.3,0-0.5,0-0.8C186.9,193.6,187.2,193.6,187.5,193.6z"/>
<path class="st2" d="M186.8,194.3c0,0.5-0.3,0.7-0.8,0.7c0-0.3,0-0.5,0-0.8C186.2,194.3,186.5,194.3,186.8,194.3z"/>
<path class="st1" d="M144.7,136.5c-3.4,0.1-5.8-1.6-7.9-3.8c-5.7-6.2-10-13.3-14.3-20.4c-2.4-3.9-1.8-8.4-0.5-12.8
	c1.7-5.6,4.2-10.7,7.2-15.7c0.7-1.1,1.6-2.4,0-3.6c1-1,1.2-2.2,0.6-3.4c1.2-0.4,2,0.4,3.1,0.7c5.8,1.5,11.4,1.5,16.5-2
	c0.7-0.2,1.3-0.5,2-0.7c4.3,0.8,8.3,3,12.8,3.2c2.5,1.2,4.2-1.1,6.4-1.1c4.1-0.1,7.1,2.9,11,3.6c0,1,0.8,1.6,1.4,2.3
	c2.8,2.9,4.1,6.3,3.7,10.3c-3.7-2.8-8.2-4.5-11.6-7.7c-1.1-1-2.3-1.4-3,0.5c-2,0.2-2.1,1.7-2.4,3.1c-3.1,1.5-3.4,4.2-3.3,7.1
	c-2.5,1.5-3.1,3.4-1.3,5.7c-1.2,0.9-2.8,1.3-2.2,3.1l0-0.2c-0.1,0.6-0.2,1.2-0.3,1.9c-0.8,0.5-0.4,1.2-0.4,1.9
	c-0.1,5.3-2.5,6.7-7.6,4.7c-0.9-0.4-1.7-1.3-3-0.7c1.5,2.5,4.2,2.5,6.6,3.1c-0.1,1.8-2.4,1.5-3,2.8c-1.8-0.3-3.5-0.8-5.3-0.8
	c-1.4,0-3.3-0.2-3.5,2c-1.1,0.7-0.5,1.9-0.7,2.8c1.1,3.4,2.6,4.2,7.8,3.9c1.3,3.1-2.1,1-2.6,2.1c-1.9,0.7-3.3-1.1-5.3-1.1
	c1.2,2.4,2.8,3.3,5.4,2.7C149.3,132.5,148,135.2,144.7,136.5z M154.3,84.5c1.6-1.1,3.6-1.9,3.4-4.3c-14.6-0.5-19.1,0.1-21.1,2.7
	c0.9,0.9,2.1-0.3,3,0.4c-0.4,2.5,2.2,4.5,1.4,7c-1.6-0.4-3.2-0.7-5-1.1c0.4,1.9,1.6,2.9,3,3.4c1.3,0.5,2.4,1.3,2.5,2.7
	c0.2,3.5,2.5,3.6,5.3,3c-1.1,1.6-3.6,1.7-4.4,3.7c7.9,0.3,11.9-6.2,9.1-14.7C152.3,86.3,154.3,86.2,154.3,84.5z"/>
<path class="st3" d="M150.6,128.2c0.5-1.1,3.9,1,2.6-2.1c0.7-0.5,2-0.5,1.9-1.8c0.8-0.7,1.2-1.7,1.4-2.7c1.5-1.9-1-2.3-1.6-3.4
	c0.5-1.3,2.9-1.1,3-2.8c5-1.3,6.2-3.8,4.5-9c0.1-0.6,0.2-1.2,0.3-1.9c0.2,0,0.4,0.1,0.6,0.1c-0.3,0-0.5,0-0.6,0.1
	c-0.6-1.8,1-2.2,2.2-3.1c-1.7-2.2-1.1-4.1,1.3-5.7c0.9-2.5,3.8-4.1,3.3-7.1c0.3-1.4,0.4-2.9,2.4-3.1c0.8,1.4,0.7,3.1,2.1,4.3
	c4.1,3.5,9.8,3.9,14.4,7.1c0.4-2.4-1.3-3.1-1.9-4.2c0.5-4-0.9-7.4-3.7-10.3c-0.7-0.7-1.4-1.3-1.4-2.3c3.2,0.2,6.4-0.1,9.3-1.6
	c2,3.8,0.8,7.7,0.7,11.6c-0.1,3.3-1.2,6.6-0.3,10c-1.6,1.5-2.8,3.2-2.9,5.4c-2,2.4-2.6,5.4-3.5,8.2c-3.2,9.3-9.8,15.4-19.6,18.6
	c-3.1-0.3-3.9-3-5.5-4.8c-3.5,2,0.8,3.6,0.4,5.5c0,0.9-0.5,1.4-1.5,1.6c-4.6,1-9.2,2.1-14,1.8c3.3-1.2,4.6-4,5.9-6.7
	C150.6,129.2,150.6,128.7,150.6,128.2z M173.1,111.2c-0.8,3.7-1.4,7.3-3.6,11c6.5-1.4,10.2-4.8,13.7-9.7
	C179.3,112.6,176.1,112.7,173.1,111.2z M183.9,105.6c-4.3-2.3-7.9-5.3-10.3-9.9c-1.3,2.1-0.2,3.3-0.2,4.4c0,1.3-0.9,2.6-1,3.9
	c-0.2,2.5,2.3,4.2,4.6,2.9C179.2,105.5,181.4,106.1,183.9,105.6z"/>
<path class="st2" d="M165.2,132.5c9.8-3.2,16.4-9.2,19.6-18.6c0.9-2.8,1.5-5.8,3.5-8.2c-0.9,10.6-4.5,19.8-14.9,26
	c3.3,3.6,2.3,7.7,1.5,11.8c-0.5,0.1-1,0.1-1.5,0.2c0.4-2.2-0.6-4.5,0.4-6.8c0.6-1.3-0.6-2.3-1.7-3.1c-2-1.5-3.3,0.2-4.9,1.1
	C166.5,134,165.9,133.2,165.2,132.5z"/>
<path class="st2" d="M190.9,78.8c-2.9,1.5-6.1,1.7-9.3,1.6c-3.9-0.6-6.8-3.6-11-3.6c2.1-1.2,0.9-2.4,0-3.6c0.1-0.5,0.2-1,0.8-1.3
	c1.4,1.3,2.6,2.7,4.1,3.8c2.2,1.5,4.4,3.5,7.6,2.6c2.7,1.2,4.9,0,7.3-0.9c0.7-0.3,2-2.1,2.7,0.2C191.9,77.2,191.4,78.1,190.9,78.8z"
	/>
<path class="st2" d="M151.4,74.7c-0.6-1.9-2.2-3-3.7-4.3c0.8-3.9,2.7-0.9,3.5-0.2c3.1,2.7,6.6,4.5,10.6,5.5c0.9,0.2,1.9,0.3,2.8,0.4
	c-0.1,0.6-0.2,1.2-0.3,1.7C159.7,77.7,155.7,75.6,151.4,74.7z"/>
<path d="M129.6,75.7c0.8-0.1,1.8-0.4,2.5-0.1c5.4,1.9,10.7,1.3,16-0.3c0.4-0.1,0.9,0.1,1.3,0.1c-5.1,3.5-10.7,3.5-16.5,2
	c-1-0.3-1.9-1.1-3.1-0.7C129.7,76.4,129.6,76.1,129.6,75.7z"/>
<path class="st2" d="M193.3,81c0-0.3-0.1-0.6-0.1-1C193.2,80.3,193.3,80.7,193.3,81z"/>
<path class="st6" d="M117.4,54.3c-0.6-0.3-0.3-0.6,0-0.9C117.4,53.7,117.4,54,117.4,54.3z"/>
<path class="st6" d="M151.3,48.6c0,0.1-0.1,0.1-0.1,0.2C151.2,48.8,151.3,48.7,151.3,48.6C151.4,48.7,151.3,48.6,151.3,48.6z"/>
<path class="st3" d="M191.8,190.9c0-0.6,0.4-0.6,0.8-0.5C192.4,190.5,192.1,190.7,191.8,190.9z"/>
<path class="st1" d="M143.9,139.4c1,1.1,2.5,1.3,4.5,1.6c-1,8-3.2,15.5-9,21.7c-1.7-0.7-2.5-2.2-3.2-3.6c-4-8.1-7.3-16.3-7-25.5
	c0.1-1.9-0.4-3.8-0.8-6.5C133,132.6,136.3,138.5,143.9,139.4z"/>
<path class="st7" d="M177.8,199.1C177.8,199.1,177.8,199.1,177.8,199.1C177.8,199.1,177.8,199.1,177.8,199.1z"/>
<path class="st1" d="M64,181.7c8.7,0.9,14.1,6.7,14.3,15.8c0.2,10.6-2.1,20.7-6.8,30.3c-0.6,1.2-1.1,2.5-1.7,3.7
	c2.2,1.8,2.6,0.1,3.3-1.2c3.2-0.3,5.7-2.3,8.5-3.5c10.8-4.8,22.4-8.2,32.4-14.7c2.2-1.4,4.4-3,6.4-4.6c2.6-2.2,3.8-4.5,3.3-8.3
	c-1.3-9.3,2-18.3,3.8-27.4c2.5,5.7-0.6,12.1,2.7,18.2c1.5-6.3,22.5-25.5,28.1-26c-0.5,3.3-3.6,5-5.3,7.5c-0.3,0.5-0.5,0.9-0.8,1.4
	c-4.6,2.8-6.8,7.5-10.1,11.3c3.4-1.1,4.7-4.1,6.9-6.3c0.3,1.6,2,0.6,3,1.3c-1.5,0.9-1.6,1.9-0.5,3c-4.2,1.1-4.3,1.6-2.2,6.6
	c0,0.4,0,0.7-0.1,1.1c-3.1,4.3-6.7,8.2-10.4,12.2c-3.1,3.4-7.2,6.1-8.9,10.5c-10.2,8.4-20.2,17-31.9,23.7c-9,5.1-18.4,8.5-28.9,9.3
	c-1.1,0.1-2.2,0.1-3.3,0.1c-5.8-0.3-6.7-1.2-6.5-6.5c0.7-17.4,0.7-34.8,3.5-52c0.3-1.6,0.6-3.2,0.9-4.7
	C63.8,182.4,63.9,182.1,64,181.7L64,181.7z"/>
<path class="st3" d="M129.9,212.8c1.7-4.4,5.8-7.1,8.9-10.5c3.7-3.9,7.3-7.9,10.4-12.2c1.9-0.4,2.6-2.1,3.9-3.1
	c0.2,0.2,0.4,0.4,0.6,0.6c-3.5,7.3-8.3,13.6-15,18.7c-1.7,1.3-3.6,2.4-4.5,4.4c-0.8,0.4-1.5,0.9-2.3,1.3
	C131.3,212.3,130.6,212.5,129.9,212.8z"/>
<path class="st3" d="M64,181.8c-0.1,0.3-0.2,0.6-0.3,0.9C63.8,182.4,63.9,182.1,64,181.8z"/>
<path class="st3" d="M152.1,173c0.3-0.5,0.5-0.9,0.8-1.4c2.8,0.5,3.2-2.5,5.6-3.4c0.4,8.5-5.8,14.1-9.2,20.8c-2.1-4.9-2-5.4,2.2-6.6
	c-1.2-1.1-1.1-2.1,0.5-3c-1-0.7-2.7,0.2-3-1.3C149.5,176.1,152.3,175.4,152.1,173z"/>
<path class="st3" d="M153.1,187c0.3-0.3,0.5-0.7,0.8-1c0.8,0.7,0.2,1.1-0.2,1.6C153.5,187.4,153.3,187.2,153.1,187z"/>
<path class="st7" d="M159,160.5c-0.6,0.2-1.1,0.4-1.7-0.2c0.4-0.2,0.8-0.5,1.2-0.7C158.6,159.9,158.8,160.2,159,160.5z"/>
<path class="st2" d="M164.3,140.5c0.3-0.1,0.8-0.3,0.8-0.2c0.3,0.4-0.1,0.5-0.4,0.6C164.6,140.7,164.5,140.6,164.3,140.5z"/>
<path class="st3" d="M141,90.5c0.8-2.6-1.7-4.5-1.4-7c4.9,0,9.7,2.2,14.7,1.1c0,1.7-2,1.8-2.8,2.9c2.8,8.5-1.2,15-9.1,14.7
	c0.8-2,3.3-2.1,4.4-3.7c3-1.7,2.4-4.9,4-7.4C147.4,89.6,144.1,91.4,141,90.5z"/>
<path d="M141,90.5c3.1,0.9,6.4-0.8,9.9,0.6c-1.6,2.5-1.1,5.7-4,7.4c-2.8,0.6-5.1,0.5-5.3-3c-0.1-1.4-1.2-2.1-2.5-2.7
	c-1.5-0.6-2.7-1.5-3-3.4C137.8,89.8,139.4,90.1,141,90.5z"/>
<path d="M154.3,84.5c-5,1.1-9.8-1.1-14.7-1.1c-0.9-0.7-2.1,0.5-3-0.4c1.9-2.7,6.4-3.3,21.1-2.7C157.9,82.6,155.9,83.4,154.3,84.5z"
	/>
<path d="M186.7,92.9c0.6,1.2,2.3,1.8,1.9,4.2c-4.6-3.3-10.2-3.7-14.4-7.1c-1.4-1.2-1.3-2.9-2.1-4.3c0.7-1.8,1.9-1.5,3-0.5
	C178.5,88.4,183,90.2,186.7,92.9z"/>
<path class="st8" d="M156.5,121.6c-0.2,1-0.6,2-1.4,2.7c-3.5,0.6-7,0.9-9.7-2.1c0.2-0.9-0.4-2.1,0.7-2.8
	C150.1,118,153.6,118.9,156.5,121.6z"/>
<path class="st2" d="M162.4,106.4c1.8,5.1,0.6,7.6-4.5,9c-2.4-0.6-5.1-0.7-6.6-3.1c1.3-0.6,2.1,0.4,3,0.7c5.2,2,7.5,0.6,7.6-4.7
	C162,107.6,161.6,106.9,162.4,106.4z"/>
<path class="st2" d="M156.5,121.6c-3-2.7-6.4-3.6-10.4-2.2c0.2-2.2,2.1-2,3.5-2c1.8,0,3.5,0.5,5.3,0.8
	C155.6,119.3,158,119.7,156.5,121.6z"/>
<path class="st2" d="M145.4,122.2c2.7,3,6.1,2.6,9.7,2.1c0.1,1.3-1.2,1.3-1.9,1.8C148,126.4,146.6,125.7,145.4,122.2z"/>
<path class="st2" d="M169.6,88.9c0.5,3-2.4,4.6-3.3,7.1C166.2,93.1,166.5,90.4,169.6,88.9z"/>
<path class="st2" d="M150.6,128.2c0,0.5,0,1.1,0,1.6c-2.5,0.7-4.2-0.2-5.4-2.7C147.3,127.1,148.7,128.8,150.6,128.2z"/>
<path class="st2" d="M162.7,104.7c0.2,0,0.4,0,0.6-0.1c-0.3,0-0.4-0.1-0.6-0.1C162.7,104.6,162.7,104.7,162.7,104.7z"/>
<path class="st1" d="M173.1,111.2c3,1.5,6.2,1.4,10,1.3c-3.5,4.9-7.2,8.2-13.7,9.7C171.7,118.5,172.3,115,173.1,111.2z"/>
<path d="M183.9,105.6c-2.5,0.5-4.7-0.1-7,1.3c-2.2,1.3-4.8-0.4-4.6-2.9c0.1-1.3,1-2.6,1-3.9c0-1.2-1-2.3,0.2-4.4
	C176,100.2,179.6,103.2,183.9,105.6z"/>
<path class="st2" d="M152.1,173c0.2,2.4-2.6,3.1-3.1,5.1c-2.2,2.2-3.6,5.1-6.9,6.3C145.3,180.5,147.5,175.8,152.1,173z"/>
<path d="M180.8,37c6,2.9,8.8,5.5,10.2,9.5c-0.8,0.1-1.5,0.2-2.2,0.3c0.5,1.6,1,3.1,1.5,4.6c2.8,0.9,6,1.8,9.1,2.8
	c-0.1,0.3-0.1,0.7-0.2,1c-0.9,0.1-1.9,0.3-3.9,0.6c7.7,3.6,7.1,10.2,8.1,17.1c0.8-1.7,1.2-2.5,1.8-3.7c0.4,2,0.6,3.4,1,5.1
	c4.7-9.4-1.8-23.4-11.6-24.6c3.8-1.4,6.8-0.2,8.4,2.2c2.3,3.7,4.7,7.7,5.4,11.8c1.8,10.2-0.9,20-4.9,29.5c-0.3,0.7-1.8,1-2.2,1.7
	c-0.9,1.3-1.7,2.7-2,4.1c-0.8,3.6-1.1,7.3-1.8,11c-2,10.8-4,21.6-5.9,32.4c-0.1,0.8,0.2,2.3,0.8,2.6c3.9,2,5.6,5.4,5.8,9.1
	c0.5,8.5,0.4,17.1,0.5,25.7c0,2.5-1.5,5.2,1.2,7.4c0.3,0.3-0.2,1.6-0.5,2.4c-0.8,1.8-2.3,3.5-2.5,5.3c-2.4,22-4.6,44-6.9,65.9
	c-0.2,1.5-0.4,2.9-1.2,4.3c-0.4-24.9,3.1-49.6,7.1-75.4c-2.6,1.2-4.5,1.7-5.8,2.7c-2,1.5-3.6,3.5-5.4,5.1c-1.5,1.3-3,2.9-4.9,3.6
	c-5.7,2.2-6.9,4.3-7.1,10c-0.3,10.4-1.3,20.8-1.7,31.2c-0.3,7.5,0,15.1,0,22.6c0,0.8,0,1.5,0,2.3c-0.3,0.1-0.7,0.1-1,0.2
	c-0.4-1.8-1.1-3.5-1.1-5.3c0.3-11.2,0.6-22.4,1.1-33.6c0.3-6.6,1-13.1,1.1-19.8c-3.7,3.8-7.9,7-9,12.5c-2.7,14.1-4.9,28.3-2.2,42.6
	c0.1,0.4-0.1,0.9-0.1,1.3c-0.3,0.1-0.6,0.1-0.9,0.2c-0.6-2.1-1.5-4.1-1.7-6.2c-1-12-0.1-23.8,3-35.4c0.4-1.3-0.3-2.9-0.1-4.2
	c0.2-1.4,0.6-3,1.4-4.1c2.1-2.8,4.4-5.5,7-7.9c6.1-5.8,9.5-12.2,8.7-20.6c-0.7-6.8-0.5-13.7-0.7-20.6c0-1.8,0.4-3.5,0.6-5.3
	c0.3,0,0.7,0.1,1,0.1c-0.2,3.2-0.5,6.5-0.7,9.7c0.1,0.1,0.2,0.1,0.4,0.2c0.7-1.5,1.4-3,2.1-4.5c0.2,0.1,0.4,0.1,0.6,0.2
	c-0.2,1.1-0.4,2.1-0.7,3.2c-1.2,5.7-2.2,11.3-0.8,17.3c1,3.9,0.2,8.2,0.2,12.4c6.7-2.4,9.1-12.4,19.5-10.1c0-0.5,0-1.1-0.1-1.6
	c-1.5-0.6-3-1.2-4.1-1.6c0.6-0.6,2-1.6,2.1-2.6c1.2-10,2.4-20.1-0.4-30c-0.7-2.5-2.4-4.7-4-7.6c-3.9,6.6-6.6,7.8-13.2,6.4
	c0-1,0-2,0-3.2c-7.4,5.3-7.5,5.3-12.3,1.5c5.9-2.2,9.9-5.5,9.8-11.7c-0.4-0.2-0.8-0.3-1.2-0.5c-0.4,1.8-0.7,3.6-1.1,5.4
	c-0.3-0.1-0.7-0.1-1-0.2c0.3-2.3,0.6-4.5,0.7-6.8c0.1-2.2-2.7-3.8-4.9-3.1c-1.1,0.3-2.4,0.2-3.6,0.3c0-0.4-0.1-0.7-0.1-1.1
	c1.3-0.6,2.7-1.1,4-1.7c7.3-3.3,12.3-8.6,15-15.7c2.4-6.2,4.2-12.6,8.9-18c1.6-1.8,1.3-5.3,1.1-8c-0.2-4-0.9-7.9-1.5-12.2
	c-6.1,4.9-12.3,3.8-18.5,0.3c-0.6-0.3-1.4-0.4-2.1-0.3c-7.4,1.5-14.4,0.2-21-3.1l0.1,0.1c-1.1-1.2-2.2-2.4-3.6-4
	c-1.4,3.6-4.3,5-7.9,4.7c-3.3-0.3-6.6-1.2-9.8-1.8c-1.1,3.7-2.1,7.4-3.1,11c0.3,0.1,0.5,0.2,0.8,0.2c1-2.7,2-5.4,3-8.1l-0.1-0.1
	c0.7,3.7-0.8,7-2.8,10.1c-3.6,5.5-5.8,11.4-6.5,17.7c-0.5,4.2,0.3,8.1,3,11.7c3.6,4.8,6.9,9.8,10.2,14.7c3.7,5.4,8.8,7.4,15.5,6.1
	c3.2-0.6,6.5-1.1,10.2-1.8c-1.2-2.1-2.2-3.8-3.1-5.5c0.2-0.1,0.5-0.2,0.7-0.3c1.6,2.5,3.2,5.1,4.5,7.3c-1,1.4-2.3,2.9-2.1,3.2
	c0.9,1,2.3,1.5,3.4,2.2c0,1.1-0.6,3.6,0.1,4c2,1.1,4.6,1.4,7.7,2.1c-2.3,0.2-4.6,1-6.1,0.3c-1.9-0.9-3.2-3.1-4.2-5
	c-1.8-1.2-3.5-2.4-5.3-3.5c-0.6-0.4-1.6-0.5-2.4-0.4c-11.2,2.6-18.7-1.9-24-10.8c-0.3-0.5-0.7-0.9-1.1-1.3
	c0.5,9.9,1.6,19.6,5.9,28.7c1.1,2.3,2.3,4.6,4,6.5c2.6,3,5.8,3.4,8.5,0.5c3-3.2,5.3-7.1,7.6-10.8c1.5-2.5,2.5-5.3,4.1-7.9
	c-2.1,6.8-4.6,13.5-9.7,18.9c-4,4.3-9.2,4.3-12.3-0.6c-3.3-5.3-5.5-11.2-8.1-16.8c-0.7-1.4-1-3-1.5-4.6c-3.8,2.8,1.9,17.4,9.9,25.9
	c-0.3,0.2-0.5,0.5-0.8,0.7c-1.9-1.9-4.3-3.5-5.4-5.7c-2.1-4.1-3.4-8.6-4.9-12.9c-0.7-2-1.3-4.1-1.9-6.3c-6.8,1-11.7-1.7-15.1-6.7
	c-1.8-2.7-4.3-1.8-6.5-1.5c-9.3,1.6-17.4,5.7-24.3,11.5c-2.2,1.8-4.1,4.3-5.2,6.8c-2.9,7-5.2,14.2-7.7,21.1c5.5,2.7,10.3,5,15.1,7.4
	c0,0.2,0,0.4,0,0.6c-1.1-0.1-2.4,0-3.3-0.5c-1.6-0.8-3.1-1.8-4.6-2.8C67.5,175,65,175,61,177.7c5.3-8.6,7-19.3,11.6-29
	c0.8-1.7,2.3-3.3,3.8-4.5c7-5.6,15.2-9.1,24.2-11.1c-8.9-9.7-10.1-25.3-2.8-35.9c0.3-0.4,0.8-0.7,0.7-1.1
	c-1.2-15,5.1-27.9,13.7-39.9c9.4-12.9,22.1-21.7,39-24.3c10.4-1.6,20.5-0.2,29.7,5.1c-1.1-0.3-2.3-0.6-3.4-1
	c-6.9-2.6-14-4.1-21.5-3.5c-13.1,0.9-23.9,6.4-33.1,14.8c-3.2,2.9-5.7,6.4-8.5,9.7c-8.6,9.5-11.1,21.2-13.8,32.8
	c0.8-0.9,1.4-1.8,1.8-2.8c2.8-7.1,5.5-14.1,8.3-21.2c1.2-3,2.4-5.9,3.6-8.8c6.5-4.7,12.8-9.5,19.4-13.9c4.8-3.2,10.3-4.9,16.4-5
	c-3.1,2.2-6.1,4.3-9,6.4c0.2,0.3,0.4,0.6,0.6,0.9c4.5-0.9,9-1.9,14.3-3c-2.4,2.7-4,4.5-6.2,6.9c4.8-1.1,8.4-1.9,12-2.7
	c0.2,0.3,0.4,0.7,0.7,1c-1.2,0.7-2.4,1.4-3.7,2c0.2,0.1,0.4,0.3,0.5,0.4c4.8-0.6,9.6-1.2,14.4-1.8c0.1-0.3,0.2-0.6,0.4-0.9
	c-3.6-1.9-7.2-3.7-10.8-5.6c-0.1-0.3-0.1-0.6-0.2-1c5.2-0.8,10.5-1.6,15.7-2.6C179.7,38.2,180.2,37.5,180.8,37z M161.4,75.8
	c3.5,0.3,7,0.5,11.3,0.9c-1.1-1.8-1.5-2.5-1.6-2.7C167.5,74.6,164.4,75.2,161.4,75.8c-4.2-2.5-8.4-5.1-13.2-8
	C151.9,72.3,155.9,75.1,161.4,75.8z M120.1,98.4c-5.1,10.6-1,19.7,5.1,28.6C122.9,117.6,117.7,108.6,120.1,98.4z M95.7,120.6
	c0.6,9.1,6.7,14,13.2,10.5c-1.1-1-1.9-2.3-3.1-2.6C101.1,127.2,97.5,124.9,95.7,120.6z M184.4,78.7c-4.2-2.9-8.6-6.1-13.1-9.2
	C170.6,74,178.4,79.3,184.4,78.7z M126.6,131.6c-0.6,3.1-1.7,6.2-5.3,6.6c-2.9,0.3-5.9-1-8.5-1.5c2.9,3.2,7.6,4.6,10.9,2.9
	C127.2,137.9,127.4,134.9,126.6,131.6z"/>
</svg>
