<?xml version="1.0" encoding="utf-8"?>
<!-- Generator: Adobe Illustrator 23.0.5, SVG Export Plug-In . SVG Version: 6.00 Build 0)  -->
<svg version="1.1" id="Layer_1" xmlns="http://www.w3.org/2000/svg" xmlns:xlink="http://www.w3.org/1999/xlink" x="0px" y="0px"
	 viewBox="0 0 288 288" style="enable-background:new 0 0 288 288;" xml:space="preserve">
<style type="text/css">
	.st0{fill:#F7A183;}
	.st1{fill:#F9B39A;}
	.st2{fill:#346B5C;}
	.st3{fill:#1A1A1A;}
	.st4{opacity:0.75;}
	.st5{fill:#0F0F10;}
	.st6{fill:url(#SVGID_1_);}
	.st7{fill:url(#SVGID_2_);}
	.st8{fill:url(#SVGID_3_);}
	.st9{fill:#1E1613;}
</style>
<g>
	<path class="st0" d="M180,64.2c-0.1-1.9,0.3-3.8,1-5.6c-4.4-1.2-8.6-2.9-12.7-4.9c-4.5-0.4-9.3-0.6-14.2-0.8
		c-23-0.9-44.3-0.4-44.7,9.2c-0.1,1.5,1.3,8.2,21.8,29.9c8.2,8.7,16.6,14.8,20.6,18.6c4.3-3.4,13.1-8.9,22-16.9
		c7.1-6.5,12.2-11.5,15.7-15.4C184.1,76.1,180.3,70.5,180,64.2z"/>
	<g>
		<polygon class="st0" points="170.4,66.8 127.1,66.8 133.8,38.3 163.7,38.3 		"/>
	</g>
	<path class="st1" d="M270,191.1c1.3-2.2,2.5-4.5,3.7-6.8c1.9-6.1,1.7-14.4-1.6-23.9c-3.4-9.6-8.6-18-13.7-26
		c-5.9-9.3-11.8-18.6-17.7-27.9C233.5,95.3,225.3,83,217.2,81c-5.4-1.4-9.5,2.2-13.4,5.6c-4.2,3.8-8.8,9.4-6.7,19.3
		c1.2,5.7,4.4,11,7.3,15.8c8,12.9,16,25.8,24.1,38.8c7.7,12.4,15.9,25.3,25,31.7C259.8,196.6,265.9,195.7,270,191.1z"/>
	<g>
		<path class="st2" d="M221.1,75.2c-3.9-2.6-12.1-6.7-19.8-10.3c-0.8-0.2-1.5-0.5-2.2-0.9c-1.2-0.2-2.4-0.4-3.6-0.9
			c-2.2-0.3-4.2-1-5.9-2.1c-0.8-0.2-1.6-0.4-2.3-0.6c-2.2-0.2-4.3-0.8-6.1-1.8c-8.8,4.7-36.6,16.5-60.3-4.4c0,0-36.7,2.5-48,9.1
			l-0.8,1.3L67,72.7c0.4,1.7,0.7,3.5,0.7,5.2c0,11.1-0.6,22.3-0.5,33.4c0,5.4,0.5,10.8,0.4,16.3c0,3-0.3,5.9-0.7,8.8
			c0,0.1,0.1,0.2,0.1,0.3c2.3,5,4.3,10.2,5.4,15.6l10.2-13.6c0,0-3.2,48.5-4.6,60.4l-1.1,12.3l-2.1,39.7c0,0,104.4,12.6,136.5,2.5
			l7.1-3.9c0,0-12.7-59.3-15.5-65l0.6-32.8c0-0.4-0.1-0.8-0.1-1.3c-0.3-7.3,1.2-14.1,4.6-20.4c1.2-3.8,3-7.3,5.3-10.6
			c0.7-3.8,2-7.4,3.8-10.9c2.1-6.5,5.8-12.2,11-17c0.4-0.4,0.7-0.7,1.1-1C228.9,87.2,227.5,79.4,221.1,75.2z"/>
		<path class="st1" d="M66.2,76.4c0,0-41.9,45.8-51.1,66.3c-9.2,20.5-6.5,37.1-6.5,37.1l9.3,6.4l36.6-23.5l-8.2-13.3
			c0,0,31.2-38.8,38.9-48.4c7.7-9.6,7.2-39.8,7.2-39.8L66.2,76.4z"/>
		<path class="st2" d="M67.4,81.1l21,34.4c0,0,45.6-12.3,25.7-33S94.2,61.8,94.2,61.8l-7.4-1.1l-13.4,11L67.4,81.1z"/>
		<g>
			<path class="st3" d="M71.8,76.3L71,77.2c0,0-32,39.7-34.6,49.2l-2.7,4.1c5.2,4.3,9.9,9.1,14.7,14c2.4,1.6,4.9,3.2,7.4,4.6
				c0.3,0.2,0.7,0.4,1,0.6c1.2,0.7,2.4,1.3,3.6,1.8c2.8,0.9,5.2,1.5,7.2,1.5l12.1-37.6L71.8,76.3z"/>
			<path class="st2" d="M75.1,62.3c0,0-42,43.3-45.9,54.2l-8.3,10.4c0,0,31,23.3,43.5,24.2l17.8-43l-6.1-46.7L75.1,62.3z"/>
		</g>
		<path class="st2" d="M220.3,79l3.7-1.4l42.6,56.9l0.5,4.9c0,0-40.7,8.9-48.2,5.6c-7.5-3.3-15.6-13.1-15.6-13.1l-19.1-31.1
			l12.5-20.4L220.3,79z"/>
	</g>
	<g class="st4">
		<image style="overflow:visible;" width="249" height="208" xlink:href="8CD02793.png"  transform="matrix(1 0 0 1 21 20)">
		</image>
	</g>
	<g>
		<g>
			<path class="st3" d="M77.3,146.1c-0.2-0.8-3.9-8.5-8-10.5c-3.1,2.3-6.4,4.5-9.9,6.2c-4.6,2.2-9.4,3.9-14.1,6
				c-4.4,2-8.7,4.5-13.1,6.4c-1.3,0.6-2.6,1.1-3.9,1.6c0.1,0.4,0.3,0.7,0.4,1.1c0.7,2.3,1.5,4.5,2.4,6.7c0,0.1,0,0.1,0.1,0.2
				c0,0,0,0.1,0.1,0.1c0.4,0.9,0.8,1.8,1.3,2.7c1.9,3.9,4,7.7,6.3,11.4c0.5,0.8,0.8,1.6,1.1,2.3c7.6-4.6,14.9-9.5,21.9-14.7
				C69.8,159.6,79.5,154.9,77.3,146.1z"/>
			<path class="st3" d="M133.9,133.9c-1.8-6.9-5.7-13.3-11.2-18.2c-1.8-1.6-3.8-3.2-5.4-5c-4.6,2.3-8.9,5.1-13.5,7.4
				c-1.6,0.8-3.3,1.4-4.9,1.7c-1.8,1.3-3.9,2.6-6.6,3.9c-3.8,2-9,4.1-13,5.7c-1.6,0.6-3,1.2-4.3,1.7c-4.9,4.1-9.9,8-15.7,10.8
				c-4.4,2.1-9,3.8-13.5,5.7c4.5,6.6,13.7,8.6,20.3,14.6c0,0,42.6-21.4,42.6-21.4c2.7-1.4,7.8-1.4,10.8-1.9c2.1-0.4,11.8-0.5,14-1.6
				C134.3,137,134,134.5,133.9,133.9z"/>
			<path class="st3" d="M164.2,121.2c-0.4-0.5-1.4-0.5-2.3-0.3c-2.4,0.6-5,1.4-7.3,3c-5.1,3.7-8.3,3.8-9.9,2.9c0,0-0.1-0.1-0.1-0.1
				c0,0-0.1,0-0.1-0.1c3.7-1.9,10.7-5.4,13.8-8.2c1.9-1.7,6.3-4.8,5.1-6.5c-0.8-1.2-3.1-0.7-5-0.1c-1.6,0.5-3.1,1.4-4.7,2.3
				c-2.8,1.6-5.6,3.3-8.4,4.9c-0.5,0.3-3.6,1.9-4.1,1.8c-0.3,0-0.4-0.2-0.6-0.3c0.4-0.2,2.6-1.4,3-1.6c5.1-3.6,10-7.3,14.9-11.1
				c0.8-0.6,1.8-1.3,2.5-2.1c1.6-1.8-1.7-2.2-3-2.1c-3.7,0.3-8,2.8-11.5,5c-1.6,1-3.2,1.9-4.9,2.8c-1,0.5-5.5,3.1-6.3,2.5
				c0,0,0,0,0,0c2.9-1.6,7.8-4,10.6-5.9c2.2-1.5,4.3-3,6.3-4.6c1.9-1.5,5.5-3.7,4.6-5c-0.7-1.1-1.8-3.3-11.2,1.7
				c-2.4,1.3-4.5,2.9-6.8,4.3c-5.6,3.4-14.8,8.8-21.4,6.9c-0.6-0.2-1.1-0.1-1.5,0c-0.3,0.1-0.5,0.3-0.8,0.4
				c-3.5,2.8-1.2,16.5-1.2,16.5l19.9,9l12-3.4c0.6-0.1,1.3-0.2,1.9-0.4c1-0.3,2.1-0.6,3.1-0.9c3.6-1.1,6.8-4.4,10.1-6.6
				c0.9-0.6,1.9-1.3,2.6-2.1C164.3,122.9,164.7,121.8,164.2,121.2z"/>
		</g>
		<path class="st3" d="M100.7,120.7c-1.4-1.7,4.4-10.7,12.8-14.9c3.7-1.8,6-1.8,9.9-4.9c3.4-2.6,5.1-5.4,6.5-4.9
			c1.1,0.4,1.4,2.7,1.2,4.4c-0.3,2-1.4,3.7-6,7.7c-3.3,2.8-4.9,4.2-7.8,6C112.6,116.9,102.1,122.5,100.7,120.7z"/>
	</g>
	<polygon class="st5" points="24.8,157.6 29.6,151.3 86.5,126.2 85,133.1 25.2,159.2 	"/>
	<path class="st1" d="M3.6,204.9"/>
	<g>
		<g>
			<g>
				<linearGradient id="SVGID_1_" gradientUnits="userSpaceOnUse" x1="118.9394" y1="113.02" x2="121.7625" y2="113.02">
					<stop  offset="0" style="stop-color:#F9B39A"/>
					<stop  offset="1" style="stop-color:#F7A183"/>
				</linearGradient>
				<path class="st6" d="M121.8,112.6c-0.5,0.4-0.9,0.7-1.4,1.1c-0.5-0.4-0.9-0.9-1.4-1.4C119.8,112.6,120.8,112.6,121.8,112.6z"/>
			</g>
			<linearGradient id="SVGID_2_" gradientUnits="userSpaceOnUse" x1="118.9394" y1="113.02" x2="121.7625" y2="113.02">
				<stop  offset="0" style="stop-color:#F9B39A"/>
				<stop  offset="1" style="stop-color:#F7A183"/>
			</linearGradient>
			<path class="st7" d="M121.8,112.6c-0.5,0.4-0.9,0.7-1.4,1.1c-0.5-0.4-0.9-0.9-1.4-1.4C119.8,112.6,120.8,112.6,121.8,112.6z"/>
		</g>
		<linearGradient id="SVGID_3_" gradientUnits="userSpaceOnUse" x1="8.6163" y1="145.6449" x2="165.4553" y2="145.6449">
			<stop  offset="0" style="stop-color:#F9B39A"/>
			<stop  offset="1" style="stop-color:#F7A183"/>
		</linearGradient>
		<path class="st8" d="M165.3,122.2c-0.4-0.5-1.4-0.5-2.3-0.3c-2.4,0.6-5,1.4-7.3,3c-5.1,3.7-8.3,3.8-9.9,2.9c0,0-0.1-0.1-0.1-0.1
			c0,0-0.1,0-0.1-0.1c3.7-1.9,10.7-5.4,13.8-8.2c1.9-1.7,6.3-4.8,5.1-6.5c-0.8-1.1-3.1-0.7-5-0.1c-1.6,0.5-3.1,1.4-4.7,2.3
			c-2.8,1.7-5.6,3.3-8.4,5c-0.5,0.3-3.6,1.9-4.1,1.8c-0.3,0-0.4-0.2-0.6-0.3c0.4-0.2,2.6-1.4,3-1.6c5.1-3.6,10-7.3,14.9-11.1
			c0.8-0.6,1.8-1.3,2.5-2.1c1.6-1.8-1.7-2.2-3-2.1c-3.7,0.3-8,2.8-11.5,5c-1.6,1-3.2,1.9-4.9,2.8c-1,0.5-5.5,3.1-6.3,2.5
			c2.9-1.6,7.8-4,10.6-5.9c2.2-1.5,4.3-3,6.3-4.6c1.9-1.5,5.5-3.7,4.6-5c-0.7-1.1-1.8-3.3-11.2,1.7c-2.4,1.3-4.5,2.9-6.8,4.3
			c-4.7,2.9-12.1,7.2-18.3,7.3c-0.5,0.4-0.9,0.7-1.4,1.1c-0.5-0.4-0.9-0.9-1.4-1.4c0.9,0.2,1.8,0.3,2.8,0.3c1.3-1,2.5-2.1,4.3-3.6
			c4.6-4,5.7-5.7,6-7.7c0.2-1.6-0.1-3.9-1.2-4.4c-1.4-0.5-3.1,2.2-6.5,4.9c-3.9,3-6.2,3-9.9,4.9c-7.1,3.5-12.3,10.5-12.9,13.6
			c-0.5,0.2-1.1,0.3-1.6,0.4c-1.8,1.3-3.9,2.6-6.6,3.9c-3.8,2-9,4.1-12.9,5.7c-22.9,9-14.7,5.8-34.4,14.5l-0.2,0.2
			c-5.2,2-10.4,4-16.3,6.5c-4.5,1.9-10.6,3.8-17.1,6c0,0.1,0,0.3,0.1,0.4c0.6,5,1,9.9,0.4,14.9c-0.1,0.9-0.2,1.7-0.3,2.6
			c-1.1,0.2-2.4,0.7-3.2,1.8c-0.6,0.9-0.7,1.8-0.7,2.7c-0.1,4.9,0.3,8.4,0.3,8.4c0.1,0.6,0.2,1.2,0.2,1.8c0.4,0.7,0.8,1.4,1.2,2.1
			c0.8,0.4,1.6,0.8,2.4,1.2c0.1,0.1,0.3,0.2,0.4,0.2c0.3,0.2,0.6,0.3,1,0.5c0.1,0.1,0.3,0.1,0.4,0.2c0,0,0.1,0,0.2,0.1
			c0.1,0,0.2,0.1,0.4,0.1c1.1-0.4,2.3-0.7,3.5-0.9c15.6-7.7,30.6-16.7,44.3-26.9c0.5-0.4,1-0.8,1.6-1.1c1.4-1,2.8-2,4.2-2.9
			c0.4-0.2,0.8-0.4,1.3-0.6c0.5-0.2,1-0.5,1.6-0.8c10.8-5.4,38.3-19.3,38.4-19.3c2.7-1.4,7.8-1.4,10.8-1.9c2.1-0.4,11.8-0.5,14-1.6
			c0.1,0,0.1-0.1,0.2-0.2l0.2,0.1l12-3.4c0.6-0.1,1.3-0.2,1.9-0.4c1-0.3,2.1-0.6,3.1-0.9c3.6-1.1,6.8-4.4,10.1-6.6
			c0.9-0.6,1.9-1.3,2.6-2.1C165.3,123.8,165.7,122.8,165.3,122.2z"/>
	</g>
	<g>
		<g>
			<path class="st3" d="M254.7,166.5c-4.5-2.1-8.8-4.7-13.3-6.9c-3.7-1.8-7.5-3.2-11.2-4.9c-2.9,3.1-7.1,5.2-11.4,5.2
				c-3.7,0-6.9-1.3-9.5-3.4c-0.2,0.5-0.4,0.9-0.4,1c-2.3,9.2,7.5,14.2,15.5,20.6c6.6,5.2,13.4,10,20.4,14.6c0.4,0.1,0.7,0.3,1.1,0.5
				c0.3,0,0.6,0.1,0.8,0.1c0.3-0.6,0.6-1.3,1-1.9c2.3-3.9,4.6-7.8,6.6-11.9c0.4-0.9,0.9-1.9,1.3-2.8c0,0,0-0.1,0.1-0.1
				c0-0.1,0-0.1,0.1-0.2c0.9-2.3,1.8-4.6,2.5-7c0.1-0.4,0.3-0.8,0.4-1.1C257.4,167.7,256.1,167.1,254.7,166.5z"/>
			<path class="st3" d="M230.3,154.7c-2.9,3.1-7.1,5.2-11.4,5.2c-8.6,0-15-7-15.4-15.3c-0.1-2,0.3-3.9,1.1-5.7
				c-3.6-1.5-7.6-3.3-10.7-5c-2.7-1.5-4.9-2.9-6.7-4.2c-1.6-0.4-3.3-1-5-1.9c-4.6-2.4-9-5.4-13.7-7.9c-1.6,1.9-3.7,3.5-5.6,5.2
				c-5.6,5.1-9.7,11.7-11.6,19c-0.2,0.7-0.5,3.2,0.2,3.6c2.2,1.2,12.1,1.4,14.2,1.8c3.1,0.6,8.2,0.6,11,2.1c0.1,0,43.2,23,43.2,23
				c6.8-6.2,16.1-8.2,20.8-15.1C237.4,157.7,233.8,156.3,230.3,154.7z"/>
			<path class="st3" d="M120.6,130.4c0.4-0.6,1.4-0.5,2.4-0.3c2.5,0.6,5.1,1.5,7.4,3.3c5.2,4,8.4,4,10,3.1c0,0,0.1-0.1,0.1-0.1
				c0,0,0.1,0,0.1-0.1c-3.7-2-10.8-5.8-14-8.7c-1.9-1.8-6.4-5.1-5.2-6.8c0.8-1.2,3.2-0.7,5.1-0.1c1.6,0.6,3.2,1.5,4.7,2.5
				c2.8,1.8,5.7,3.5,8.5,5.3c0.5,0.3,3.7,2,4.2,1.9c0.3,0,0.4-0.2,0.6-0.3c-0.4-0.3-2.7-1.5-3-1.7c-5.1-3.8-10.1-7.8-15.1-11.8
				c-0.8-0.7-1.9-1.4-2.5-2.2c-1.6-2,1.8-2.3,3-2.2c3.8,0.4,8.1,3,11.6,5.4c1.6,1.1,3.3,2,4.9,3c1,0.6,5.6,3.3,6.4,2.7c0,0,0,0,0,0
				c-3-1.7-7.9-4.3-10.7-6.3c-2.2-1.6-4.3-3.2-6.4-4.9c-1.9-1.6-5.6-3.9-4.7-5.3c0.7-1.2,1.9-3.4,11.4,1.9c2.4,1.3,4.6,3.1,6.9,4.6
				c5.6,3.7,14.9,9.4,21.7,7.5c0.6-0.2,1.1-0.1,1.5,0c0.3,0.2,0.5,0.3,0.8,0.5c3.5,3,1,17.3,1,17.3l-20.3,9.2l-12.1-3.7
				c-0.6-0.1-1.3-0.3-1.9-0.5c-1.1-0.3-2.1-0.7-3.2-1c-3.7-1.2-6.9-4.7-10.2-7.1c-0.9-0.7-1.9-1.3-2.6-2.2
				C120.6,132.1,120.2,131,120.6,130.4z"/>
		</g>
		<path class="st3" d="M185.5,130.5c1.4-1.8-4.4-11.3-12.8-15.8c-3.7-2-6.1-2-10-5.2c-3.4-2.8-5.1-5.7-6.5-5.2
			c-1.2,0.4-1.5,2.9-1.3,4.6c0.2,2.1,1.3,3.9,6,8.1c3.3,3,5,4.5,7.9,6.4C173.3,126.4,183.9,132.4,185.5,130.5z"/>
	</g>
	<g>
		<g>
			<g>
				<path class="st1" d="M239.6,190.8c1,0.3,2,0.6,2.9,0.9c1.2,0.4,2.3,0.9,3.5,1.4c3,0.4,5.8,0.9,8.7,1.5c3.1,0.7,6.4,1.5,7.6,1.8
					c0.4,0.1,0.7,0.2,0.9,0.2c0.2-0.1,0.3-0.2,0.5-0.3c0.2-0.1,0.4-0.2,0.5-0.3c1-0.8,2-1.5,3.2-2c0.5-0.6,1.1-1.1,1.7-1.7
					c1.8-2.9,3.3-6,5-9c-0.2-4.3,0.2-8.6,0.8-12.9c0-0.1,0-0.3,0.1-0.4c-6.5-2.3-12.7-4.4-17.3-6.5c-14.3-6.5-25-10-39.3-16.5
					c-5-0.7-10.3,10.3-10.5,11.3c-2.3,9.2,7.5,14.2,15.5,20.6C228.6,183.2,234,187.1,239.6,190.8z"/>
				<path class="st1" d="M150.4,145c1.9-7.2,6-13.8,11.6-19c1.9-1.7,3.9-3.3,5.6-5.2c4.6,2.5,9,5.5,13.7,7.9c1.7,0.9,3.3,1.5,5,1.9
					c1.8,1.4,4,2.8,6.7,4.2c3.8,2.1,9.1,4.4,13.1,6.1c23.3,9.7,15,6.3,34.9,15.6l0.6,0.6c-3.7,9.8-14.8,11.3-22.6,18.4
					c0,0-43.1-23-43.2-23c-2.8-1.5-7.9-1.5-11-2.1c-2.1-0.4-12-0.7-14.2-1.8C149.9,148.2,150.2,145.6,150.4,145z"/>
				<path class="st1" d="M119.6,131.4c0.4-0.6,1.4-0.5,2.4-0.3c2.5,0.6,5.1,1.5,7.4,3.3c5.2,4,8.4,4,10,3.1c0,0,0.1-0.1,0.1-0.1
					c0,0,0.1,0,0.1-0.1c-3.7-2-10.8-5.8-14-8.7c-1.9-1.8-6.4-5.1-5.2-6.8c0.8-1.2,3.2-0.7,5.1-0.1c1.6,0.6,3.2,1.5,4.7,2.5
					c2.8,1.8,5.7,3.5,8.5,5.3c0.5,0.3,3.7,2,4.2,1.9c0.3,0,0.4-0.2,0.6-0.3c-0.4-0.3-2.7-1.5-3-1.7c-5.1-3.8-10.1-7.8-15.1-11.8
					c-0.8-0.7-1.9-1.4-2.5-2.2c-1.6-2,1.8-2.3,3-2.2c3.8,0.4,8.1,3,11.6,5.4c1.6,1.1,3.3,2,4.9,3c1,0.6,5.6,3.3,6.4,2.7c0,0,0,0,0,0
					c-3-1.7-7.9-4.3-10.7-6.3c-2.2-1.6-4.3-3.2-6.4-4.9c-1.9-1.6-5.6-3.9-4.7-5.3c0.7-1.2,1.9-3.4,11.4,1.9c2.4,1.3,4.6,3.1,6.9,4.6
					c5.6,3.7,14.9,9.4,21.7,7.5c0.6-0.2,1.1-0.1,1.5,0c0.3,0.2,0.5,0.3,0.8,0.5c3.5,3,1,17.3,1,17.3l-20.3,9.2l-12.1-3.7
					c-0.6-0.1-1.3-0.3-1.9-0.5c-1.1-0.3-2.1-0.7-3.2-1c-3.7-1.2-6.9-4.7-10.2-7.1c-0.9-0.7-1.9-1.3-2.6-2.2
					C119.5,133.1,119.1,132,119.6,131.4z"/>
			</g>
			<path class="st1" d="M184.4,131.5c1.4-1.8-4.4-11.3-12.8-15.8c-3.7-2-6.1-2-10-5.2c-3.4-2.8-5.1-5.7-6.5-5.2
				c-1.2,0.4-1.5,2.9-1.3,4.6c0.2,2.1,1.3,3.9,6,8.1c3.3,3,5,4.5,7.9,6.4C172.3,127.4,182.9,133.4,184.4,131.5z"/>
		</g>
		<path class="st1" d="M264.3,196.2c1-0.8,2-1.5,3.2-2c0.5-0.6,1.1-1.1,1.7-1.7c0.8-1.2,1.5-2.5,2.2-3.8c-4,0.6-8.3,3.9-8.9,7.8
			c0.3,0.1,0.5,0.1,0.8,0.2C263.6,196.5,263.9,196.3,264.3,196.2z"/>
	</g>
	<path class="st1" d="M236.8,187"/>
	<path class="st1" d="M259.8,198.2"/>
	<g>
		<g>
			<path class="st1" d="M262.8,184.9c-3-0.8-6.1-1.3-9.1-2c-1.8-0.5-5.2-0.9-6.4-2.2c-6.2-6.6-16,3.3-9.9,9.9
				c5.2,5.6,14.7,5.9,21.7,7.8C267.8,200.8,271.5,187.3,262.8,184.9L262.8,184.9z"/>
		</g>
	</g>
	<path class="st9" d="M220.2,147.2c0,0,0.1,0,0.3,0.1c2.7,0.6,22.3,5.3,32.6,11.9l9.3,6.5l-10.1-9.2c0,0-10.1-7-20.8-8.2
		C220.8,146.9,220.2,147.2,220.2,147.2z"/>
</g>
</svg>
