<?xml version="1.0" encoding="utf-8"?>
<!-- Generator: Adobe Illustrator 23.0.5, SVG Export Plug-In . SVG Version: 6.00 Build 0)  -->
<svg version="1.1" id="Layer_1" xmlns="http://www.w3.org/2000/svg" xmlns:xlink="http://www.w3.org/1999/xlink" x="0px" y="0px"
	 viewBox="0 0 288 288" style="enable-background:new 0 0 288 288;" xml:space="preserve">
<style type="text/css">
	.st0{fill:#EDC8A5;}
	.st1{fill:#C19168;}
	.st2{fill:#59544F;}
	.st3{fill:#F4D9BF;}
	.st4{fill:#6E4E3C;}
	.st5{fill:#5C4132;}
	.st6{opacity:0.4;fill:#6E4E3C;enable-background:new    ;}
	.st7{fill:#8A8A7B;}
	.st8{fill:#E51336;}
	.st9{fill:#DEDBC3;}
	.st10{fill:#FECB27;}
	.st11{fill:#5BB354;}
	.st12{fill:#3E678A;}
	.st13{opacity:0.4;fill:#3E678A;enable-background:new    ;}
	.st14{fill:#778495;}
	.st15{fill:#18120E;}
	.st16{fill:#E3BB94;}
	.st17{fill:#F2D7BD;}
	.st18{opacity:0.5;fill:#F2D7BD;enable-background:new    ;}
	.st19{fill:url(#SVGID_1_);}
	.st20{opacity:0.5;fill:#EDC8A5;enable-background:new    ;}
	.st21{fill:#3D1B0B;}
	.st22{fill:#FFFFFF;}
	.st23{fill:#463528;}
	.st24{fill:#C39368;}
	.st25{fill:#A03835;}
	.st26{fill:#F5A6AA;}
	.st27{fill:#211F1E;}
</style>
<path class="st0" d="M66.1,81.4c0,0-5.6-3.4-7.9,0.1c-2.3,3.5,0,7.8,3.3,9.5c2.2,1.1,9.3,2,10.3,0.6C72.8,90.3,66.1,81.4,66.1,81.4z
	"/>
<path class="st1" d="M66.2,86.2c-0.7-0.6-1.5-1.1-2.3-1.4c-1.7-0.6-3,0.3-3.1,2.1c0,0.1,0.2,0.2,0.2,0.1c0.3-0.7,0.6-1.4,1.5-1.4
	c0.6,0,1.2,0.3,1.7,0.6c-0.6,0.7-0.9,1.6-0.9,2.5c0,0.2,0.3,0.3,0.3,0.1c0.2-0.9,0.6-1.6,1.4-2.1c0.3,0.2,0.6,0.4,0.9,0.6
	c0.4,0.3,0.9,0.8,1.4,0.9c0.2,0,0.4-0.2,0.4-0.4C67.5,87.1,66.6,86.6,66.2,86.2z"/>
<path class="st2" d="M57.4,57.8c0,0-6.6,11.8-4.4,17.1c2.2,5.4,14.7,13.8,14.7,13.8S65.9,69,57.4,57.8z"/>
<path class="st2" d="M57.4,57.8c0,0-2.1,3.8-3.5,8c2.2,0.8,3.7,4.2,4.5,5.9c0.8,1.8,1.5,3.7,1.9,5.6c0.3,1.2,0.6,2.5,0.4,3.7
	c0,0.2-0.2,0.2-0.4,0.2c-1.7-0.2-3.2-1.2-4.6-2.4c4.4,4.8,12,10,12,10S65.9,69,57.4,57.8z"/>
<polygon class="st3" points="136.6,147.1 135.2,117.3 117.6,117.3 124.3,149.8 "/>
<path class="st3" d="M129.6,140.5c2.1-0.1,4.5-0.3,6.6-1.1l-1-22.1h-17.7l4.7,22.6C124.6,140.6,127.3,140.6,129.6,140.5z"/>
<g>
	<path class="st4" d="M116.6,137.5c-3.3-18.3-2.9-40.9,0.1-44.1c7.6,4.1,9.3,9.3,15.9,16.7c3.1,3.7,6.7,19.3,5.1,25.5
		C135.4,137.7,123.1,140.1,116.6,137.5z"/>
</g>
<g>
	<path class="st4" d="M116.6,137.5c-3.3-18.3-2.9-40.9,0.1-44.1c7.6,4.1,9.3,9.3,15.9,16.7c3.1,3.7,6.7,19.3,5.1,25.5
		C135.4,137.7,123.1,140.1,116.6,137.5z"/>
</g>
<g>
	<path class="st5" d="M117.8,134.4c-0.8-4.6-1.2-9.3-1.7-14c-0.9-8.3-1.2-16.7-0.4-25c-2.1,6.7-2,26,0.9,42.1c0.6,0.2,1.3,0.4,2,0.6
		C118.3,136.9,118,135.7,117.8,134.4z"/>
</g>
<g>
	<path class="st6" d="M132.6,110.2c-6.6-7.4-8.3-12.6-15.9-16.7c-0.2,0.2-0.5,0.6-0.7,1.1c0,2.3,0.4,4.7,1,6.8
		c1.2,4.5,3.3,8.6,5.9,12.5c1.4,2.1,3,4.2,4.1,6.4c1,2.1,3,14.1,4,17.7c3.1-0.6,5.7-1.5,6.6-2.3
		C139.3,129.5,135.8,113.9,132.6,110.2z"/>
</g>
<g>
	<path class="st7" d="M159.5,258.9v0.1c0.4,2.6-3.3,3.6-10.5,6.2c-15.7,4-31.7,3.5-31.7,1.8c0-0.5,0-1.2,0.2-2
		C136.3,268.9,154.3,261.4,159.5,258.9z"/>
	<path class="st8" d="M131.6,255.2c7.8-3.7,15.4-6.7,15.4-6.7h9.2c0,0,2.8,7.7,3.3,10.4c-3.4,1.6-12,5.3-22.7,6.7
		C136.1,259.6,133.3,256.5,131.6,255.2z"/>
	<path class="st9" d="M126.3,257.7c1.7-0.9,3.5-1.7,5.2-2.6c1.8,1.4,4.5,4.4,5.2,10.4c-5.9,0.8-12.5,0.8-19.2-0.6
		C118.2,263.3,120,261,126.3,257.7z"/>
	<g>
		<path class="st10" d="M144.3,255c-1.2-1.7-2.7-3.1-3.6-3.9c0.7-0.3,1.3-0.6,1.9-0.8C147.9,256,146.2,257.6,144.3,255z"/>
		<path class="st10" d="M139.9,257.3c-1.3-2.3-2.7-3.6-3.6-4.4c0.7-0.3,1.4-0.6,2.1-0.9C143.7,257.2,142.1,260.9,139.9,257.3z"/>
	</g>
</g>
<g>
	<path class="st7" d="M212.9,262.4c0.1,0.2,0.1,0.5,0.2,0.6c0.5,2.3-8.1,7.3-16.5,10.7c-7.5,3-17.3,4.8-19.8,2.8
		C197.2,273.7,208.7,266,212.9,262.4z"/>
	<g>
		<path class="st11" d="M180.5,266.6c1-1,2.2-2.1,3.5-3.4c7.8-2.2,10.9,5.5,11.8,8.6c-5.2,1.9-11.5,3.6-19.1,4.7
			c-0.3-0.2-0.5-0.5-0.6-0.8C175.3,272.5,176.6,270.6,180.5,266.6z"/>
		<path class="st8" d="M184.1,263.2c4.1-3.8,9.1-8.1,9.1-8.1l16.1-2.2c0,0,2.8,6.6,3.6,9.4c-2.7,2.3-8.2,6.2-17.1,9.5
			C194.9,268.7,191.8,261,184.1,263.2z"/>
	</g>
	<g>
		<path class="st9" d="M180.5,266.6c1-1,2.2-2.1,3.5-3.4c7.8-2.2,10.9,5.5,11.8,8.6c-5.2,1.9-11.5,3.6-19.1,4.7
			c-0.3-0.2-0.5-0.5-0.6-0.8C175.3,272.5,176.6,270.6,180.5,266.6z"/>
		<path class="st10" d="M195.6,263.4c-3.4-2.2-6.6-3-8.2-3.2c0.7-0.6,1.3-1.2,1.9-1.7C197,258.9,200.4,266.5,195.6,263.4z"/>
		<path class="st10" d="M198.8,260.7c-3.3-2.1-6.3-3-8.1-3.4c0.9-0.8,1.6-1.4,2-1.7C200.5,258.1,202.3,262.9,198.8,260.7z"/>
	</g>
</g>
<g>
	<path class="st12" d="M212.1,142.5c0,0,6.6,8.4,3.3,22.2c-4.6,19.4-18.6,33.7-17.4,37l9.8,49.1l-16.7,4.4c0,0-10.1-23.9-18.3-50.3
		c-3.6-11.4,1.7-20.9,2.2-32.4L145.6,196l13.3,51.2c0,0-10.9,2.4-16.2,1c0,0-18.7-41.5-18-55.1c0.5-8.2,12.4-15.8,26.3-29.8
		c9-9.1,4.1-23.3,4.1-23.3S211.4,142,212.1,142.5z"/>
</g>
<g>
	<path class="st12" d="M127.9,208.5c-0.8-4.3-1.8-8.9-1.8-13.3c0-3,1-5.8,2.8-8.3c3.9-5.5,9.8-9.3,14.8-13.8
		c3.2-2.9,6.4-5.9,9.9-8.4c2.9-2,6.4-1.9,9.7-2.4c-2.2-0.6-4.5-1.5-6.8-1.1c-0.2,0-0.5-0.1-0.4-0.4c2.4-6.7,0.6-14-0.7-20.9
		c-0.2,0-0.3,0-0.3,0s4.9,14.2-4.1,23.3c-13.9,14-25.8,21.6-26.3,29.8c-0.3,4.4,1.5,11.7,4.1,19.6
		C128.4,211.4,128.2,210,127.9,208.5z"/>
	<path class="st12" d="M172.9,196.5c0.3-5.2,1-10.7,2.9-15.5c1.6-4.2,3.9-8,6.1-11.9c-3,2.2-5,5.7-7.1,8.7c-0.2,0.3-0.4,0.5-0.5,0.8
		c-1.5,8.9-4.5,17-1.5,26.4c0.1,0.4,0.3,0.8,0.4,1.2C172.8,203,172.7,199.7,172.9,196.5z"/>
</g>
<g>
	<path class="st13" d="M172.6,174.4c0.8-0.8,1.6-1.6,2.5-2.2c2.5-1.8,5.3-2.9,8.2-3.8c-8.6,1.2-17.4,2.7-26,1.1
		c2.5,1.4,5.4,2.2,7.9,3.6c0.1,0.1,0.2,0.3,0.1,0.4c-4,6.1-10.9,9.5-16.3,14.3c-2.8,2.5-5.5,4.6-8.9,6.1c-2.9,1.2-5.9,1.9-8.9,2.6
		c3,0.9,6.2,1.1,9.4,1.3c0.2,0-2.5,9.7-4,14.3c2-2.8,5.6-9.4,5.7-9.2c3.6,7.2,6.3,30.9,5.3,34.6c-0.4,1.5-1.2,3.2-2.8,3.7
		c-1.8,0.6-3.8,0-5.6-1.1c2.1,4.9,3.5,8,3.5,8c5.3,1.4,16.2-1,16.2-1l-13.3-51.2L172.6,174.4z"/>
	<path class="st13" d="M146.5,192.4c-1.2,1-2.8,2.3-3.3,3.9c-0.5,1.6,0.1,3.3,0.6,4.9c1.1,3.5,2.7,6.8,3.7,10.3
		c1.2,4,2.3,8.1,3.6,12.1c2.3,7.4,4.5,14.9,7.1,22.2c0.1,0.1,0.1,0.1,0.2,0.2l-12.9-49.9l24.2-19.3c-5,2.7-9.9,5.7-14.6,9.1
		C152.2,187.9,149.3,190.1,146.5,192.4z"/>
	<path class="st13" d="M212.1,142.5C211.4,142,155,140,155,140s3.9,11.3-1.7,20.2c17.4-4.4,37.2-4.4,51.8,6.9
		c0.2,0.2,0.2,0.6-0.2,0.6c-3,0.2-5.9,0.4-8.8,1c1.9,0.7,3.9,1.8,3.6,4.1c-0.1,1.2-0.7,2.3-1.2,3.4c-0.9,1.8-1.7,3.7-2.6,5.6
		c-1.1,2.4-2.3,4.7-3.4,7.1c-0.6,1.3-1.1,2.7-1.6,4.1c-0.4,1.2-0.6,1.3-1.6,2.1c-3.4,3-6.5,6.4-9.3,10c3.5-1.4,6.7-3.4,9.9-5.4
		c0.2-0.1,0.2,10.3-3.8,13.4c-2.6,2-6.6,1.5-9.2-0.1c-0.8-0.5-1.6-1.1-2.4-1.8c7.8,23.8,16.3,44.1,16.3,44.1l16.7-4.4l-9.8-49.1
		c-1.2-3.2,12.8-17.6,17.4-37C218.7,151,212.1,142.5,212.1,142.5z"/>
	<path class="st13" d="M212.1,142.5c-0.1-0.1-2.4-0.3-6-0.4c1.9,4.9,3.3,10.1,3.6,15.4c0.4,7.9-1.7,15.2-4.6,22.6
		c-1.5,4-3.2,7.9-4.9,11.7c-1.8,3.9-3.7,7.7-5,11.7c-1.2,3.8-2.1,7.6-3.2,11.4c-1,3.4-2.5,6.7-3.2,10.2c1.5-1.6,2.3-3.8,3.3-5.8
		c1.4-2.7,2.8-5.4,3.8-8.3c0.1-0.3,0.5-0.3,0.6,0c1.3,7.6,3.2,15.1,4.9,22.5c0.8,3.5,1.8,7.1,2.3,10.8c0.2,1.5,0.2,3.1-1,4.2
		c-3,2.7-8,3.7-11.9,3.4c-0.4,0-0.7-0.1-1.1-0.1c0.9,2.3,1.5,3.5,1.5,3.5l16.7-4.4l-9.8-49.1c-1.2-3.2,12.8-17.6,17.4-37
		C218.7,151,212.1,142.5,212.1,142.5z"/>
</g>
<path class="st14" d="M208.2,248.4l2.1,5.2c0,0-7.8,4.5-19.9,4l-1-4.4C189.5,253.1,195.9,254.1,208.2,248.4z"/>
<path class="st14" d="M159.4,245.7l1,4.5c0,0-6.4,2.3-18.2-0.2l-0.1-3.8C142.1,246.1,146.3,249.3,159.4,245.7z"/>
<path class="st5" d="M153.8,157c0.5-0.1,1-0.3,1.5-0.4c3.1-0.7,6.4-1.2,9.6-1.3c7.7-0.3,15.8,0.8,23.3,2.7
	c5.5,1.4,10.8,3.2,16.3,4.2c3.7,0.7,8.2,1.4,12.1,0.4c0.6-7.8,0.6-37.1-27.3-67.5c-18.9-20.7-53.7-31.4-62.6-16.4
	c0,0-12.1,9.1-10,19c0,0,6.7,13.7,16.3,26.2c5.9,7.7,15.8,14.8,20.5,24.9C154.6,151.3,154.9,153.5,153.8,157z"/>
<path class="st5" d="M153.8,157c0.2,0,0.4-0.1,0.5-0.1c0.8-2,1.2-4.1,1.1-6.1c-0.3-4.6-4.5-8.3-6.8-12c-0.2-0.3,0.2-0.6,0.4-0.4
	c2.7,1.6,5.6,3.1,8.7,3.5c-10.4-6.9-19.6-15.3-27.2-25.2c-3.8-5-7.8-10.3-10.6-15.9c-1.4-2.8-2.5-5.7-3-8.6
	c-0.5,1.8-0.6,3.7-0.2,5.7c0,0,6.7,13.7,16.3,26.2c5.9,7.7,15.8,14.8,20.5,24.9C154.6,151.3,154.9,153.5,153.8,157z"/>
<path class="st6" d="M189.3,95.2c-18.9-20.7-53.7-31.4-62.6-16.4c0,0-8.4,6.3-10,14.2c4.8,4.2,10.2,8.6,17,8.7
	c2.8,0,5.4-1.1,6.8-3.7c1.1-2.2,1.4-4.8,1.2-7.2c-0.2-3.5-1.1-6.7-2.8-9.8c-0.5-1,15.7-3.2,17.2-3c0.2,0,0.3,0.3,0.2,0.5
	c-4.3,8.2-5.2,17.4-5,26.5c0.2,7.9,2.2,21.9,5,29.3c1.1-7,5.5-35.5,8.7-32.1c3.6,3.8,6.3,8.8,8.2,13.7c2.4,6.2,3.9,12.6,6.3,18.8
	c0.1,0.2-0.2,0.4-0.4,0.4c-2.4-0.5-5.1,0.8-7.3,1.8c-2,0.9-4,1.8-6,2.9c-2.8,1.6-5.6,3.3-8.3,5.1c9.6-3.1,20.2-3.5,30.1-1.6
	c7.8,1.5,17.6,5.1,21.4,12.7c0.1,0.2-0.1,0.5-0.3,0.5c-5-1.2-10.4-1.1-15.5-1.6c-5.2-0.5-10.4-1.3-15.6-1.2
	c-5.4,0-10.8,0.5-16.1,1.4c-2,0.4-3.9,0.8-5.7,1.6c3-0.6,6.1-1.1,9.1-1.2c7.7-0.3,15.8,0.8,23.3,2.7c5.5,1.4,10.8,3.2,16.3,4.2
	c3.7,0.7,8.2,1.4,12.1,0.4C217.2,154.9,217.2,125.6,189.3,95.2z"/>
<g>
	<path class="st15" d="M160.1,128.4l-1.5,2.3c0,0,18.5,0.4,24.9-10c0,0-0.9-4.9-10.8-3C162.8,119.6,160.1,128.4,160.1,128.4z"/>
</g>
<path class="st16" d="M117,70.8l13.9,7.3c0,0,13.2,6.6,6.1,18c-3.1,5-14.6-2-14.6-2l-14.4-9L117,70.8z"/>
<path class="st17" d="M128.5,76.9L117,70.8l-8.9,14.3l11,6.9C124.8,89.6,128.3,83.1,128.5,76.9z"/>
<path class="st17" d="M134.7,80.8c1.6,3.5,2.3,7.4,0.6,11.2c-0.9,2.1-2.3,3.9-4.6,4.5c-0.9,0.2-1.7,0.3-2.6,0.3
	c3.4,1.3,7.3,1.9,8.9-0.7C141.5,89,138,83.7,134.7,80.8z"/>
<path class="st17" d="M108.1,20.7c-6.4-2.8-13.9-3.2-20.8-1.9c-4.5,0.8-9.9,2.1-13.9,4.3c-2.9,1.6-6,3.6-8.4,5.8
	c-5.1,4.7-9.4,10.2-11.2,17.1c-1.5,5.7-1.4,11.6,1.3,16.9c1.6,3.1,4.5,5.6,6,8.7c1.4,2.8,2.3,5.9,2.7,9c0.8,6.2,7.6,18.3,24.4,22.1
	c14.9,3.4,29.9-7.1,36.4-20.8c6.1-12.8,3.9-26.9-0.4-39.9c-1.2-3.7-2.7-7.5-4.6-10.9s-4.5-6.2-7.7-8.3
	C110.8,22,109.5,21.3,108.1,20.7z"/>
<path class="st18" d="M87.7,88c1.1-2.1,1.2-4.4,0.7-6.6C87.5,83.5,87.1,86,87.7,88z"/>
<path class="st18" d="M91.1,93c1.1-0.6,2.3-1.2,3.5-1.5c1.5-0.5,3-0.7,4.5-1.2C96.1,89.3,93,90.7,91.1,93z"/>
<path class="st18" d="M57.9,42.4c-3.6,7.7-4.7,17.2,1.4,23.5c-1.5-2.6-2.1-5.6-2.2-8.6c-0.2-4.3,0.2-8.6,1.5-12.7
	c1.8-5.7,4.9-10.9,8.9-15.2C63.3,33.1,60,37.8,57.9,42.4z"/>
<path class="st17" d="M95.6,58.6C93,58.4,90.4,58.9,88,58c0.2,1.6,0.7,3.3,2.7,3.3c1.4,0,2.8-0.1,4.2-0.2c2.8-0.2,5.5-0.6,8.2-0.3
	C101.4,59,97.9,58.7,95.6,58.6z"/>
<path class="st17" d="M78.9,64.5c0.3,1.3,0.2,2.6,0.4,3.8C79.9,67,80.3,64.9,78.9,64.5z"/>
<linearGradient id="SVGID_1_" gradientUnits="userSpaceOnUse" x1="81.8682" y1="226.5834" x2="95.0969" y2="207.2851" gradientTransform="matrix(1 0 0 -1 0 288)">
	<stop  offset="0.335" style="stop-color:#F9CBC0"/>
	<stop  offset="0.9437" style="stop-color:#FFFFFF"/>
</linearGradient>
<path class="st19" d="M88,72.8c-5.2,2.9-10.3,7.5-9.2,13.8c2.9-4.4,7.7-7.3,12.3-9.6c2.8-1.5,5.6-2.9,8.6-3.9s6-1.6,9-2.2
	C102.4,67.3,94.2,69.4,88,72.8z"/>
<path class="st17" d="M85.4,58.7c-0.1,0.9-0.3,2.3,0.3,2.8c0.7,0.5,1.9,0.8,2.8,0.5C87.7,60.7,86.5,59.7,85.4,58.7z"/>
<path class="st17" d="M73.9,63.6c0.9,2.8,0.1,5.2-1.2,7.9c-0.9,1.9-2.6,5.2-1.3,7.3c1.1-2.5,2.3-4.7,4-7c1-1.4,2.3-3.2,1.9-5.1
	C76.8,65,75.6,63.9,73.9,63.6z"/>
<path class="st17" d="M124.3,42c-1.2-3.7-2.7-7.5-4.6-10.9s-4.5-6.2-7.7-8.3c-1.3-0.8-2.6-1.5-3.9-2.1c-5.8-2.5-12.4-3.1-18.6-2.2
	c3.6-0.2,7.2,0,10.7,1.1c2.8,0.9,6,2.4,7.6,5c2.9,4.6-0.7,9.8-2.2,14.2c-0.9,2.7-1.4,5.9,0.7,8.2c2.5,2.8,6.5,3.3,9.4,5.4
	c13.6,9.9,8.9,30.6-0.9,41.3c-1.8,1.9-3.7,3.8-5.8,5.4c6.7-3.9,12.3-10.1,15.7-17.2C130.8,69.1,128.7,55,124.3,42z"/>
<path class="st20" d="M86.5,90.2c3.2,0.3,6.1-0.7,8.6-2.6C92.2,87,87.1,87.4,86.5,90.2z"/>
<g>
	<path class="st21" d="M101.7,68.1c0.9,1.7,0.9,3.4,0.1,3.9c-0.9,0.5-2.3-0.5-3.2-2.1c-0.9-1.7-0.9-3.4-0.1-3.9
		S100.8,66.5,101.7,68.1z"/>
	<path class="st22" d="M99.2,67.8c0.2,0.5,0.2,1.1-0.1,1.2c-0.3,0.1-0.7-0.2-0.9-0.7c-0.2-0.5-0.2-1.1,0.1-1.2
		C98.6,67,99,67.3,99.2,67.8z"/>
</g>
<g>
	<path class="st21" d="M80.5,79.6c0.9,1.7,0.9,3.4,0.1,3.9c-0.9,0.5-2.3-0.5-3.2-2.1c-0.9-1.7-0.9-3.4-0.1-3.9
		C78.2,76.9,79.6,77.9,80.5,79.6z"/>
	<path class="st22" d="M78,79.3c0.2,0.5,0.2,1.1-0.1,1.2c-0.3,0.1-0.7-0.2-0.9-0.7c-0.2-0.5-0.2-1.1,0.1-1.2
		C77.4,78.4,77.8,78.8,78,79.3z"/>
</g>
<path class="st23" d="M103.2,60.3c-1.7-0.9-3.9-1.8-5.8-1.8c-2.7-0.1-6,1.4-8.5-0.1c-0.1,0-0.2,0-0.3,0c0.2,0.7,0.5,1.5,0.9,2.2
	c0.8,0.5,1.7,0.7,2.5,0.7c3.6-0.1,7-0.8,10.6-0.4C102.9,60.9,103.7,60.6,103.2,60.3z"/>
<path class="st23" d="M70.7,79.5c-0.1-1.9,0.1-4.2,0.8-6c1.1-2.5,3.8-4.8,3.5-7.7c0-0.1,0-0.2,0.1-0.3c0.6,0.5,1.1,1.1,1.6,1.7
	c0.1,0.9-0.1,1.9-0.4,2.6c-1.6,3.2-3.7,6-4.9,9.4C71.3,79.5,70.7,80.1,70.7,79.5z"/>
<path class="st24" d="M88.4,79.2c-1.9,2.6-2.7,7-2.3,10.1c0.4,3.1,6,0.3,7.1-0.7c0.2-0.1,0-0.7-0.3-0.6c-1.7,0.9-6.4,3.6-6.3-0.2
	c0-2.8,0.5-6,1.9-8.5C88.6,79.3,88.5,79.1,88.4,79.2z"/>
<g>
	<path class="st3" d="M125.3,144.8c1.5-2.9,4.9-4.7,8.2-2.9c1.7,1,3.4,1.7,3.8,12.9c0.9,11.5,0.2,23.7,0.2,23.7l-8.3-0.4
		C129.2,178.1,121.5,154.4,125.3,144.8z"/>
	<g>
		<path class="st3" d="M139.1,176.5c-0.9-1.2-2.2-2.2-3.6-2.8c-0.9-0.3-1.8-0.4-2.7-0.2c-2.2,0.5-4,1.8-5.5,3.4
			c-2.4,2.6-3.5,5.9-5,9.1c-1.6,4.7-0.4,9.7,0.3,11.6c0.7,1.9,2.5,2,2.5,2s0.7,1.9,1.8,2c2-0.6,1.3-4.5,2.2-8.2
			c0.4,1.9,1.6,7.9,3.9,7.2c2.3-0.7-0.3-6.5,0.5-10.1c0.5,2.4,2.7,9.7,4,8.8c1.7-1.2,0.1-8-0.5-10.2s1.3-2.1,2.8-5.5
			C140.3,182.3,141,179,139.1,176.5z"/>
		<g>
			<path class="st24" d="M125.2,199.6c0,0-0.1-0.2-0.3-0.6c-0.1-0.4-0.4-1-0.5-1.8c-0.1-0.4-0.2-0.8-0.2-1.2c0-0.2-0.1-0.4-0.1-0.7
				c0-0.2,0-0.5,0-0.7c0-0.5,0-1,0-1.5s0.1-1,0.1-1.5c0.1-0.5,0.1-1,0.2-1.5s0.2-1,0.3-1.4c0.1-0.5,0.3-0.9,0.4-1.3
				c0.1-0.4,0.3-0.8,0.4-1.1c0.1-0.4,0.3-0.7,0.4-1s0.3-0.5,0.4-0.7c0.2-0.4,0.3-0.6,0.3-0.6s-0.1,0.2-0.2,0.7
				c-0.1,0.2-0.2,0.5-0.3,0.7c-0.1,0.3-0.2,0.6-0.3,1c-0.1,0.4-0.2,0.7-0.3,1.2c-0.1,0.4-0.2,0.9-0.3,1.3c-0.1,0.5-0.2,0.9-0.3,1.4
				c-0.1,0.5-0.2,1-0.2,1.5c-0.1,0.5-0.1,1-0.1,1.5s-0.1,1,0,1.4c0,0.5,0,0.9,0,1.3c0,0.4,0.1,0.8,0.1,1.2c0.1,0.7,0.2,1.4,0.3,1.8
				C125.1,199.4,125.2,199.6,125.2,199.6z"/>
			<path class="st24" d="M129.1,193.7c0,0,0-0.1-0.1-0.3s-0.1-0.5-0.2-0.9c-0.1-0.4-0.1-0.8-0.2-1.3c0-0.2,0-0.5,0-0.7
				c0-0.3,0-0.5,0-0.8c0.1-0.5,0.1-1,0.2-1.5c0.1-0.2,0.1-0.5,0.2-0.7c0.1-0.2,0.1-0.4,0.2-0.6c0.3-0.7,0.6-1.1,0.6-1.1
				s-0.1,0.5-0.2,1.2c-0.1,0.2-0.1,0.4-0.1,0.6c0,0.2-0.1,0.4-0.1,0.7c0,0.2-0.1,0.5-0.1,0.7s0,0.5-0.1,0.7c0,0.2,0,0.5,0,0.7
				s0,0.5,0,0.7c0,0.5,0,0.9,0,1.3C129.1,193.2,129.1,193.7,129.1,193.7z"/>
			<path class="st24" d="M133.5,190.7c0,0-0.1-0.3-0.2-0.8c0-0.2-0.1-0.5-0.1-0.8s0-0.6,0-1c0-0.3,0.1-0.6,0.1-1
				c0.1-0.3,0.1-0.6,0.2-0.8c0.1-0.5,0.3-0.8,0.3-0.8s0,0.3,0,0.8c0,0.2,0,0.5,0,0.8s0,0.6,0,0.9c0,0.3-0.1,0.6-0.1,0.9
				c0,0.3-0.1,0.6-0.1,0.8C133.6,190.4,133.5,190.7,133.5,190.7z"/>
		</g>
	</g>
</g>
<path class="st3" d="M144.7,188.2c-1.5-2-2.3-4.4-3.1-6.7c-0.4-1.2-0.8-2.4-1.5-3.4c-0.4-0.6-1-1.2-1.5-1.7c0.1-0.1,0.2-0.2,0.1-0.3
	c-0.2-0.1-0.4-0.2-0.5-0.2c-0.1-0.1-0.1-0.1-0.2-0.2l-0.1,0.1l0.1,0.1c-2.3,0.2-2.7,7.6-2.7,8.9c0,1,0.1,2.1,0.8,2.9
	c0.5,0.7,1.4,0.5,2.1,0.4c2.6-0.4,3.5,3,5.1,4.5c0.9,0.8,2.4,1.1,3.2,0.1C147.7,191.2,145.6,189.4,144.7,188.2z"/>
<polygon class="st3" points="184.9,138.6 179,113.1 163.2,115.4 171.4,143.1 "/>
<path class="st3" d="M174.8,123.8c2-0.6,4.3-1,6.5-1l-2.2-9.7l-15.9,2.3l3.8,12.7C169,125.9,172,124.6,174.8,123.8z"/>
<g>
	<path class="st3" d="M172.9,137.6c1.3-1.1,5.7-4.9,9.2-2.7c1.9,1.2,3.7,2.1,3.5,14.5c0.3,12.8-3.9,26.3-3.9,26.3h-8.6
		C173.2,175.7,168.2,148.1,172.9,137.6z"/>
	<g>
		<path class="st3" d="M160.8,187.6c0.9,1,3.2,1.6,6.9-0.4c-1.4,5.6,0.7,11.2,1.6,13.3c1,2.1,3,1.9,3,1.9s1,2.1,2.2,2
			c2.2-0.9,0.8-5.2,1.4-9.3c0.7,2,2.7,8.5,5.2,7.4c2.5-1-1.1-7.1-0.7-11.2c0.8,2.6,3.3,6,4.6,5c1.7-1.5,0-4.6-0.9-6.9
			c-0.9-2.4,1.2-2.5,2.4-6.4c0.3-1.5,0.7-5.2-1.7-7.7c-2.2-2.3-5.7-3.7-8.8-3c-1.1,0.2-4.3,1.6-8.8,9.8
			C165.8,184.6,160,186.6,160.8,187.6z"/>
		<g>
			<path class="st24" d="M172.4,202.3c0,0-0.2-0.2-0.4-0.7c-0.2-0.4-0.5-1.1-0.8-1.9c-0.1-0.4-0.3-0.8-0.4-1.3
				c-0.1-0.2-0.1-0.5-0.2-0.7c0-0.3-0.1-0.5-0.1-0.8c-0.1-0.5-0.1-1.1-0.2-1.6c0-0.6,0-1.1,0-1.7c0-0.6,0-1.1,0.1-1.7
				c0.1-0.6,0.1-1.1,0.2-1.6c0.1-0.5,0.2-1,0.3-1.5s0.2-0.9,0.4-1.3c0.1-0.4,0.2-0.8,0.3-1.1s0.2-0.6,0.3-0.8
				c0.2-0.5,0.3-0.7,0.3-0.7s-0.1,0.3-0.2,0.8c-0.1,0.2-0.1,0.5-0.2,0.9c-0.1,0.3-0.1,0.7-0.2,1.1c-0.1,0.4-0.2,0.9-0.2,1.3
				c-0.1,0.5-0.1,1-0.2,1.5c-0.1,0.5-0.1,1.1-0.1,1.6s0,1.1-0.1,1.6c0,0.6,0,1.1,0,1.6c0.1,0.5,0,1.1,0.1,1.6c0,0.5,0.1,1,0.2,1.5
				c0.1,0.5,0.2,0.9,0.3,1.3c0.2,0.8,0.4,1.5,0.5,1.9C172.2,202.1,172.4,202.3,172.4,202.3z"/>
			<path class="st24" d="M175.9,195.3c0,0-0.1-0.1-0.2-0.4c-0.1-0.2-0.2-0.6-0.3-1s-0.2-0.9-0.3-1.4c0-0.3-0.1-0.5-0.1-0.8
				s-0.1-0.6-0.1-0.8c0-0.6,0-1.1,0.1-1.7c0-0.3,0.1-0.5,0.1-0.8c0-0.2,0.1-0.5,0.2-0.7c0.3-0.8,0.5-1.3,0.5-1.3s0,0.6-0.1,1.4
				c0,0.2,0,0.4,0,0.7c0,0.2,0,0.5,0,0.7c0,0.3,0,0.5,0,0.8s0,0.5,0,0.8s0,0.5,0,0.8s0,0.5,0,0.8c0.1,0.5,0.1,1,0.1,1.4
				C175.8,194.8,175.9,195.3,175.9,195.3z"/>
			<path class="st24" d="M180.5,191.5c0,0-0.2-0.3-0.3-0.9c-0.1-0.3-0.1-0.6-0.2-0.9c-0.1-0.3-0.1-0.7-0.1-1.1c0-0.4,0-0.7,0-1.1
				c0-0.3,0.1-0.7,0.1-0.9c0.1-0.5,0.2-0.9,0.2-0.9s0.1,0.4,0.1,0.9c0,0.3,0.1,0.6,0.1,0.9c0,0.3,0.1,0.7,0.1,1c0,0.4,0,0.7,0,1
				s0,0.6,0,0.9C180.5,191.1,180.5,191.5,180.5,191.5z"/>
			<path class="st24" d="M167.7,187.2c0,0,0-0.3,0-0.6c0-0.4,0.1-0.8,0.3-1.2c0.1-0.4,0.4-0.9,0.5-1.2c0.2-0.3,0.4-0.5,0.4-0.5
				s0,0.3,0,0.6s-0.1,0.8-0.3,1.2c-0.1,0.4-0.4,0.8-0.5,1.2C167.9,187,167.7,187.2,167.7,187.2z"/>
		</g>
	</g>
</g>
<path class="st4" d="M158.6,130.7c-0.6,0.1-15.7-40.9-3.8-52.3C158,75,167.2,77,175,95.9c0.9,2.2,6.9,20.3,8.5,24.8
	C174.3,119.6,165.8,125,158.6,130.7z"/>
<path class="st5" d="M155.5,117.6c-1.5-6-2.6-12-3.5-18.1c-0.6-4-1.4-9-1-13.7c-3.7,16,7.1,45,7.6,44.9c0.2-0.2,0.4-0.3,0.6-0.5
	C157.5,126.2,156.6,121.9,155.5,117.6z"/>
<path class="st6" d="M175,95.9C167.2,77,158,75,154.8,78.4c-1.4,1.4-2.5,3.2-3.2,5.3c0.2-0.5,0.5-1,0.8-1.5c1.1-1.6,2.7-3.1,4.8-3
	c2.2,0.1,3.9,1.5,5.1,3.3c1.6,2.2,2.7,4.8,3.6,7.3c1.1,3,2.3,6,3.5,9.1c1.8,4.5,3.5,9.2,4.4,14c0.4,2.2,0.9,4.8-1.2,6.3
	c-1.1,0.8-2.4,1.2-3.6,1.8c-1.7,0.8-3.3,1.9-4.7,3.1c-2.2,1.8-4.2,4-5.4,6.5c7.2-5.7,15.6-10.9,24.6-9.7
	C182,116.3,175.9,98.1,175,95.9z"/>
<path class="st2" d="M133.6,33.6c-1.9-3.2-5.1-6.4-8.8-7.1c-3-0.6-7.6-2.1-9.4-0.1c-2,2.1-8.3,16.1-7.3,18.1c1.5,3.1,4.9,4.4,8,5.5
	c5.5,2,10.4,9,12.7,14.1c0.1,0.3,6.9-18.2,7-18.3C136,41.4,135.9,37.5,133.6,33.6z"/>
<path class="st2" d="M133.6,33.6c-1.1-1.9-2.6-3.7-4.5-5.1c1.6,2,2.4,4.5,1.2,6.7c-1,1.9-2.8,2.9-5,2.7s-4.1-1.6-6.4-1
	c1.2,2.9,3.8,5.1,3.7,8.4c0,0.3-0.3,0.4-0.5,0.2c-1.2-1.2-2.7-2.6-4.5-3c1.9,2.1,3.7,4.3,4.7,7.1c0.1,0.2-0.2,0.4-0.4,0.4
	c-4.6-1.1-11.3-3.4-12.3-8.7c-0.3-1.4-0.1-3,0.2-4.5c-0.6,1.2-1.4,3-1.8,5.3c-0.2,1-0.3,1.7-0.2,2.4c0.4,2.7,3.6,3.9,8,5.5
	c5.5,2,10.4,9,12.7,14.1c0.1,0.3,6.9-18.2,7-18.3C136,41.4,135.9,37.5,133.6,33.6z"/>
<path class="st2" d="M116.4,25.7c-0.4,0.2-0.8,0.4-1.1,0.7c-0.7,0.7-1.8,2.6-2.9,5C113.6,29.5,115,27.6,116.4,25.7z"/>
<path class="st17" d="M128.2,65.2c0,0,2,0.9,5.9-1.4c3.9-2.3,3.5-10.7,3-14.2c-0.9-6.3-8.4-9.2-11-5c-2.6,4.2-0.7,12-0.7,12
	L128.2,65.2z"/>
<path class="st17" d="M136.7,50.8c-0.1,0.1-0.3,0.1-0.4,0c-1.1-0.9-2.6-2.7-4.2-2.3c-1.7,0.5-2.7,2-3.2,3.6
	c-0.7,2.5-0.4,4.8,0.7,7.2c0.5,1.2,2,3.5,1.1,4.8c-0.4,0.6-1,1.1-1.6,1.3c0.9,0.1,2.6-0.1,5-1.6c3.7-2.2,3.5-10,3-13.7
	C137,50.3,136.9,50.6,136.7,50.8z"/>
<path class="st1" d="M135.2,52.9c-0.3-1.3-1.5-3.6-3.2-3.3c-2.1,0.4-2.5,3.7-2.6,5.9c0.1,0.2,0.3,0.5,0.4,0.7
	c0.1-0.6,0.2-1.3,0.4-1.9c1,0,2.2-0.3,3,0.3c0.2,0.1,0.4-0.1,0.3-0.3c-0.7-0.8-2-1-3.1-0.9c0.3-0.9,0.6-1.6,1.2-2.4
	c1.3-1.6,2.5,1.2,3.1,2C134.9,53.3,135.3,53.2,135.2,52.9z"/>
<path class="st25" d="M101.5,91.2c-2.4,0-4.8,0.5-7,1.2c-0.5,0.2-1.1,0.3-1.6,0.6c1.4,2,2.8,3.4,5.2,1.9c0.7-0.4,3.6-2.2,3.3-3.4
	C101.5,91.3,101.5,91.2,101.5,91.2z"/>
<path class="st26" d="M101.5,91.2c-1.1,0-2.1,0.1-3.2,0.3c-0.8,1.1-1.3,2.7-1,3.8c0.3-0.1,0.5-0.2,0.8-0.4c0.7-0.4,3.6-2.2,3.3-3.4
	C101.5,91.3,101.5,91.2,101.5,91.2z"/>
<path class="st27" d="M94.7,31.1c-0.4-0.9-11,0.7-19,7.9c-7.4,6.6-9.4,15.1-10,18.3C65.5,50.5,65,49,64.6,49c-0.7,0-1.9,4.2-1.8,8
	c0,0.7,0.1,1.8,0.4,3.1c0.6,2.6,1.7,4,1.4,4.2c-0.5,0.4-4.8-4.9-5.6-4.4s1.3,6.3,4.2,11.4c1.1,2,1.7,2.7,1.4,3.2
	c-1,1.5-9.5,0-13.5-5.1c-6.2-8.1,0.8-22.9-1.4-23.7c-1.2-0.4-3.2,3.8-3.7,3.5c-0.8-0.4,1.1-10.4,8.3-16.5c5.1-4.3,11.1-5.2,10.9-6
	c-0.2-0.9-7.5,0.5-7.7,0c-0.3-1.3,15.3-8.7,33.6-10.4c5.5-0.5,9.9-0.4,14.6,1.2c4,1.4,11.1,3.7,12.5,9.7c1.2,4.8-1.6,10.4-6.7,14.1
	c-7.3-6.6-12.4-7.5-15.8-7c-1.6,0.3-4.3,1.1-4.6,0.5C90.9,34,95,31.7,94.7,31.1z"/>
</svg>
