<?xml version="1.0" encoding="utf-8"?>
<!-- Generator: Adobe Illustrator 23.0.5, SVG Export Plug-In . SVG Version: 6.00 Build 0)  -->
<svg version="1.1" id="Layer_1" xmlns="http://www.w3.org/2000/svg" xmlns:xlink="http://www.w3.org/1999/xlink" x="0px" y="0px"
	 viewBox="0 0 612 792" style="enable-background:new 0 0 612 792;" xml:space="preserve">
<style type="text/css">
	.st0{fill:#FAB49B;}
	.st1{fill:#F8A285;}
	.st2{fill:#1A1A1A;}
	.st3{fill:#AC5842;}
	.st4{fill:#2D1911;}
	.st5{fill:#AB1F23;}
	.st6{fill:#356B5C;}
	.st7{fill:#481F1E;}
</style>
<g>
	<path class="st0" d="M416.9,492.6l1.7,29.9c0,0,31.1,82,34.9,106.3s1.1,9.6,1.1,9.6l3.7,18l-25.6,4.6c0,0-47.4-101.9-51.7-127.1
		c-4.3-25.2-0.6-51.3-0.6-51.3L416.9,492.6z"/>
	<g>
		<path class="st0" d="M435.9,682.2c0,0,12.4,20.2,12.9,23.6c0.5,3.4,1.6,28.8,4.9,31.6c3.3,2.8,7.4-2.7,7-10
			c-0.5-7.4-1.9-25.6-3.3-28.2c-1.4-2.6-4-13.9-5.5-16.7C450.2,679.6,436.6,669.7,435.9,682.2z"/>
		<path class="st0" d="M450,681.8c-0.9,5.5,9,16.6,9,18.1s0.2,20,1,26.2s6.2,3.2,7.5-4.7c1.2-7.9,0.9-21.4,0.5-23.7s-4.2-20.7-6-25
			C460.2,668.4,451.2,673.9,450,681.8z"/>
		<path class="st0" d="M452.1,669.3c0.3,5.4,11.8,15.4,12.1,16.9s-0.3,18.7,1.8,24.4c2.1,5.7,6.9,1.8,6.5-6s1.6-22.7,0.7-24.8
			s-10.2-15.6-13-19.3C457.4,656.7,451.7,661.5,452.1,669.3z"/>
		<path class="st0" d="M433.6,683.8c0.7,2.1,4.3,5.5,8.5,8.6c1.5-1.1,3-2.1,4.5-3.1c5.7-3.7,11.5-7,17.1-10.8
			c1.3-0.8,2.5-1.7,3.7-2.6c-2.7-11.9-16.2-35.9-29.9-22.4C437.6,653.5,432,679.1,433.6,683.8z"/>
		<path class="st0" d="M437.9,653.2c0,0-7.7,13.5-10.1,18.6c-1.7,3.6-5.2,15.4-5.8,16.6c-0.6,1.2,9,14.4,10.9,15.9s5.4-0.9,6-7.1
			c0.7-6.2-4.9-12.5-4.9-12.5s11.5-14,12.5-21.2C447.6,656.4,437.9,653.2,437.9,653.2z"/>
	</g>
</g>
<image style="display:none;overflow:visible;enable-background:new    ;" width="448" height="256" xlink:href="CB4FF3F1.jpeg"  transform="matrix(0.996 0 0 0.996 96.5239 248.5319)">
</image>
<path class="st1" d="M302,403.3c-4.5-4.2-14-11-23.4-20.9c-23.4-24.5-25.2-32.3-25.2-34.1c0-11.4,23.4-12.9,48.6-12.9
	s48.6,1.6,48.6,12.9c0,1.8-1.8,9.6-25.2,34.1C316,392.3,306.6,399.1,302,403.3z"/>
<g>
	<polygon class="st1" points="329.7,357.4 270.9,357.4 280,284.1 320.6,284.1 	"/>
</g>
<path class="st0" d="M56.7,474.8l-0.2,0c-0.1-2.4-0.1-4.8-0.2-7.3C56.3,468.4,56.4,471,56.7,474.8z"/>
<g>
	<polygon class="st1" points="325,352.4 272.4,352.4 280.5,281 316.8,281 	"/>
	<path class="st2" d="M280.5,281l-4.9,42.5c15.2,7.9,32,2.9,45-9.5l-3.8-33L280.5,281L280.5,281z"/>
</g>
<g>
	<path class="st1" d="M271.7,170.1c-8,2.6-24.1,13.1-26.6,23.8c-2.5,10.7-1.6,22-1.8,33c-0.3,16,2.4,49.7,2.9,58.4
		s26.1,28.4,31.9,34.6c3.8,4,40.1,4,43.9,0c5.8-6.2,31.4-26,31.9-34.6c0.5-8.7,3.2-42.4,2.9-58.4c-0.2-11.1,0.7-22.3-1.8-33
		c-2.5-10.7-18.6-21.2-26.6-23.8L271.7,170.1z"/>
	<g>
		<path class="st3" d="M300.8,266.5c0.4-0.2,1.4-0.6,1.5-1.1c0.1-0.5-2.1-0.6-3.2-0.9c-1.1-0.3-2.2-0.9-2.4-2
			c-0.2-1.4,1.2-2.7,1.4-4.1c0-0.1,0-0.2,0-0.3c-0.6-1.2-1.9-0.8-2.7-0.1c-0.5,0.5-0.8,1.1-1,1.8c-0.5,1.4-0.8,2.9-0.5,4.3
			c0.3,1.4,1.2,2.6,2.5,3C297.9,267.5,299.4,267.1,300.8,266.5z"/>
		<g>
			<path class="st2" d="M323,235.1c3.9-1.9,8.6-0.4,11,3.5c0.3,0.6,1,0.8,1.5,0.4c0.5-0.3,0.7-1.2,0.4-1.7c-1.5-2.4-3.5-4.1-6-5
				c-2.7-1-5.5-0.7-8.1,0.6c-0.5,0.3-0.7,1.2-0.4,1.7C321.8,235.3,322.5,235.3,323,235.1L323,235.1z"/>
			<path class="st2" d="M277.1,235.2c-3.9-1.9-8.6-0.5-11.1,3.4c-0.4,0.6-1,0.8-1.5,0.4c-0.5-0.3-0.7-1.2-0.4-1.7
				c1.5-2.3,3.6-4.1,6-4.9c2.7-0.9,5.5-0.6,8.1,0.7c0.5,0.3,0.6,1.2,0.4,1.7C278.2,235.4,277.6,235.4,277.1,235.2L277.1,235.2z"/>
			<g>
				<g>
					<path class="st2" d="M334.3,247c-0.1,4.2-3.4,7.4-7,7.3c-3.6-0.1-6.1-3.5-6-7.7c0.1-4.2,3.2-7.6,6.7-7.4
						C331.7,239.2,334.5,242.7,334.3,247z"/>
				</g>
			</g>
			<g>
				<g>
					<path class="st2" d="M266,246.2c-0.1,4.2,2.3,7.9,5.9,8s6.9-3.4,7.1-7.6c0.1-4.2-2.6-7.8-6.2-7.9
						C269.2,238.6,266.2,242,266,246.2z"/>
				</g>
			</g>
		</g>
	</g>
	<g>
		<path class="st1" d="M249.1,284.4c-5.7-3.4-11.5-6.8-16.4-11s-8.7-9.3-9.9-14.8c-1.1-5.5-1.3-12.3,6.1-14.8
			c6.2-2.1,19.3,10.9,19.3,10.9L249.1,284.4z"/>
		<path class="st1" d="M352.5,284.4c5.6-3.5,11.3-7.1,16-11.5c4.7-4.3,8.4-9.5,9.4-15.1s1-12.4-6.6-14.6c-6.3-1.9-19,11.5-19,11.5
			L352.5,284.4z"/>
	</g>
	<path class="st4" d="M231.8,194.9c-1.6,0.8-7.8,9.3-7.8,9.3s7.8-53.9,51.9-62.9c13.7-2.8,27.9,1,41.5,4c5.8,1.3,11.8,2.7,17.7,1.8
		s11.8-4.8,13.4-11c-0.7,7.3-3.4,14.4-7.6,20.2c3-0.6,5.9-2.1,8.3-4.2c-1,5-3.1,9.6-6.1,13.6c7.9,2.9,16.3,10.9,19,19.6
		c3.3,10.9-1.9,56.3-4.7,69.1c-2.4-0.5-8.3-7.7-8.3-15.4c0-10.4,1-23.4,0.2-33.8c-0.4-5.1-0.8-10.4-3.5-14.5c-0.9,3.9-5,10.1-9,12
		c0.4-2.3,4-8.1,1.7-13.1c-4.3-0.2-10.3,1.5-14.1,3.8c-5,3.1-9.3,7.5-14.1,11c-15.4,11.3-40.3,17.5-57.2,9.2
		c0-14.4-4.4-20.1-5.1-14.1c-1,8.8,0.1,17.8-0.1,26.6c-0.3,9.9,2,20.4-5.3,26.8C239.7,243,231.7,203.5,231.8,194.9z"/>
	<path class="st5" d="M297.9,278.2c-6.4,0-12.6-2.4-17.2-6.6c-0.5-0.4-0.5-1.1,0-1.5c0.4-0.4,1.1-0.4,1.6,0c4.2,3.8,9.9,6,15.6,6
		c0.1,0,0.1,0,0.2,0c5.9,0,11.6-2.4,15.7-6.3c0.4-0.4,1.1-0.4,1.6,0c0.4,0.4,0.4,1.1,0,1.5c-4.6,4.3-10.9,6.9-17.3,6.9
		C298.1,278.2,298,278.2,297.9,278.2z"/>
</g>
<path class="st6" d="M380.2,511.1c1,2,34.7,5.1,51.1-10.7l5.1-11.2l-22-68.4l1.5-25.5c0,0,0.5-17.4-11.7-25.5
	c-12.3-8.2-53.6-26.5-53.6-26.5s-50,32.7-91.4-4.1c0,0-53.1,3.6-69.4,13.3l-1.2,1.9l-7.5,11.9c0.6,2.5,0.9,5,0.9,7.6
	c0,16.2-0.8,32.4-0.7,48.6c0.1,7.9,0.7,15.8,0.6,23.7c-0.1,4.3-0.5,8.6-1,12.8c0.1,0.1,0.1,0.3,0.2,0.5c3.3,7.3,6.3,14.8,7.8,22.6
	l14.7-19.7c0,0-4.6,70.5-6.6,87.8l-1.5,17.9l-3.1,57.7c0,0,151.1,18.4,197.6,3.6l10.2-5.6c0,0-18.4-86.3-22.5-94.5l1-53.1l2.5-13.8
	C381.2,462.1,379.2,509.1,380.2,511.1z"/>
<path class="st1" d="M387.3,521.3c0,0-122.4,16-139.1,14.3s-22.9-2.3-22.9-2.3l-12-63.9l-54.2-21.2c0,0,9.3,92.8,33.9,113.2
	l16.6,26.3c0,0,95.3-13.2,175.2-41l17.1-16.3L387.3,521.3z"/>
<g>
	<path class="st2" d="M189.9,377.7l-0.7,1.7c0,0-27.8,76.8-26.5,92.4l-2,7.6c10.5,3.6,20.6,8.2,30.7,12.8c4.7,1.1,9.3,2.1,14,2.8
		c0.6,0.1,1.3,0.2,1.9,0.3c2.2,0.3,4.4,0.6,6.7,0.8c4.8-0.1,9-0.6,12-1.7l-2.2-62.8L189.9,377.7z"/>
	<path class="st6" d="M187.3,355c0,0-41.2,87.6-41.3,106.1l-7.2,20c0,0,61.4,17.9,81.3,12.4l3.7-74L188.3,353L187.3,355z"/>
</g>
<g>
	<path class="st1" d="M426,529.7c1.7-2.4,1.3-5.3-0.6-8.1c0.1-0.2,0.2-0.4,0.2-0.6c0.9-3.3,0.5-10.7-2.3-12.7
		c-0.3-0.2,0.5-2.6,0.5-3.1c0.1-1.1,0.1-1.9-0.3-2.9c-0.7-2-1.8-3.9-3.3-5.4c-0.8-0.8-1.7-1.4-2.7-1.8c-1.4-0.5-29,4.2-29.3,3.3
		c0-0.1-0.1-0.2-0.1-0.4c-0.4,0.3-0.7,0.6-1.1,0.9c-0.7,1.1-1.4,2.2-2.1,3.2c-0.6,1-1.2,2.1-1.7,3.1c-1.9,3.5-3.9,7-6.6,9.9
		c-0.5,7-0.3,16.5,0.7,21.3c1.6,7.6,7.2,11.2,14,12c6.8,0.7,34.4-7.3,35.5-10.7c0.6-2,0.2-5.5-0.8-8C426,529.8,426,529.7,426,529.7z
		"/>
	<path class="st7" d="M423.4,502c0.5,1.5,0.7,3.2,0.5,4.7c-0.1,1.4-0.7,2.4-1.4,3c-1.2,1.1-2.7,1.6-4.2,2c-2.9,0.8-5.8,1.1-8.8,1.4
		c-0.7,0.1-1.4,0.1-2.2,0.2c-0.4,0-0.5-0.9-0.1-0.9c1.7-0.1,3.5-0.3,5.2-0.5c2.7-0.3,5.5-0.6,8-1.9c1-0.5,2-1,2.6-2.4
		c0.6-1.4,0.4-3.6-0.1-5.3C422.8,501.8,423.3,501.4,423.4,502L423.4,502z"/>
	<path class="st7" d="M425.7,514.6c0.4,1.5,0.7,3.2,0.5,4.7c-0.1,1.4-0.6,2.3-1.2,3c-1.1,1.2-2.5,1.6-3.9,2c-1.9,0.5-3.8,0.8-5.8,1
		c-1.2,0.1-2.4,0.2-3.6,0.2c-0.4,0-0.5-1.1-0.1-0.9c0.6,0.2,1.3,0.1,1.9,0c3.1-0.6,6.6-0.5,9.6-2.1c0.8-0.5,1.7-1,2.2-2.3
		c0.5-1.4,0.3-3.6-0.2-5.3C425.1,514.3,425.6,514,425.7,514.6L425.7,514.6z"/>
	<path class="st7" d="M425.9,521.8c0.7,1.3,1.2,2.6,1.5,4c0.2,1.2,0.1,2.1-0.2,2.8c-0.5,1.1-1.4,1.8-2.3,2.3c-1.7,1-3.6,1.7-5.5,2.2
		c-0.5,0.1-0.9,0.3-1.4,0.4c-0.2,0.1-0.6-0.7-0.3-0.8c1.1-0.3,2.3-0.6,3.4-1c1.7-0.6,3.5-1.2,4.9-2.6c0.5-0.5,1.1-1.1,1.2-2.3
		c0.1-1.3-0.6-3.2-1.4-4.5C425.4,521.7,425.6,521.3,425.9,521.8L425.9,521.8z"/>
</g>
<g>
	<g>
		<path class="st1" d="M395.8,505.9c2-7.1,3.8-14.2,5.2-21.4c-3.2,0-6.4,0-9.6,0c1.3,7.2-1.5,13.6-3.7,20.3c3.3,0.4,6.5,0.9,9.8,1.3
			c0.1-4.1,1.6-8.2,2.2-12.3c0.6-4.1,0.9-8.1,1-12.3c0.1-6.4-9.9-6.4-10,0c-0.1,4.4-0.4,8.8-1.2,13.2c-0.7,3.8-1.9,7.5-1.9,11.4
			c-0.1,5.8,8.1,6.5,9.8,1.3c3-8.9,5.4-16.3,3.7-25.7c-0.8-4.8-8.7-4.7-9.6,0c-1.4,7.2-3.2,14.3-5.2,21.4
			C384.3,509.4,394,512,395.8,505.9L395.8,505.9z"/>
	</g>
</g>
<g>
	<g>
		<path class="st1" d="M383.4,524c6.4,0,6.5-10,0-10C377,514,377,524,383.4,524L383.4,524z"/>
	</g>
</g>
<g>
	<g>
		<path class="st1" d="M380,515.6c-2.5,2.5-5,5-7.1,7.8c-2.1,2.6-3.8,5.8-6.1,8.2c-4.5,4.6,2.5,11.7,7.1,7.1
			c2.4-2.5,4.1-5.5,6.2-8.3c2.2-2.8,4.6-5.3,7.1-7.8C391.7,518.2,384.6,511.1,380,515.6L380,515.6z"/>
	</g>
</g>
<g>
	<g>
		<path class="st1" d="M375.8,518.4c-0.5,1.1-1,2.3-1.8,3.3c-0.8,1-1.8,1.8-2.6,2.9c-1.4,1.8-2,4.4-3.6,5.9
			c-4.7,4.4,2.4,11.4,7.1,7.1c2.2-2,2.8-4.6,4.4-6.9c0.7-1,1.8-1.8,2.6-2.8c1.1-1.4,1.9-2.8,2.6-4.4c1.1-2.4,0.7-5.4-1.8-6.8
			C380.5,515.3,377,515.9,375.8,518.4L375.8,518.4z"/>
	</g>
</g>
</svg>
