<?xml version="1.0" encoding="UTF-8" standalone="no"?>
<!-- Generator: Adobe Illustrator 23.0.5, SVG Export Plug-In . SVG Version: 6.00 Build 0)  -->

<svg
   version="1.1"
   id="Layer_1"
   x="0px"
   y="0px"
   viewBox="0 0 288 288"
   style="enable-background:new 0 0 288 288;"
   xml:space="preserve"
   sodipodi:docname="pointChest.svg"
   inkscape:version="1.2 (dc2aedaf03, 2022-05-15)"
   inkscape:export-filename="point_chest_pain.jpg"
   inkscape:export-xdpi="96"
   inkscape:export-ydpi="96"
   xmlns:inkscape="http://www.inkscape.org/namespaces/inkscape"
   xmlns:sodipodi="http://sodipodi.sourceforge.net/DTD/sodipodi-0.dtd"
   xmlns="http://www.w3.org/2000/svg"
   xmlns:svg="http://www.w3.org/2000/svg"><defs
   id="defs1389" /><sodipodi:namedview
   id="namedview1387"
   pagecolor="#ffffff"
   bordercolor="#111111"
   borderopacity="1"
   inkscape:showpageshadow="0"
   inkscape:pageopacity="0"
   inkscape:pagecheckerboard="1"
   inkscape:deskcolor="#d1d1d1"
   showgrid="false"
   inkscape:zoom="3.0451389"
   inkscape:cx="143.8358"
   inkscape:cy="143.8358"
   inkscape:window-width="1920"
   inkscape:window-height="1057"
   inkscape:window-x="-8"
   inkscape:window-y="-8"
   inkscape:window-maximized="1"
   inkscape:current-layer="Layer_1" />
<style
   type="text/css"
   id="style1315">
	.st0{fill:#F9B39A;}
	.st1{fill:#F7A183;}
	.st2{fill:#346B5C;}
	.st3{fill:#1A1A1A;}
	.st4{opacity:0.67;fill:url(#SVGID_1_);}
</style>
<path
   class="st0"
   d="M211.9,135.8l6.1,17.8c0,0,34.2,44.5,40.7,58.5c6.6,14.1,2.3,5.6,2.3,5.6l5.4,10.3l-16.2,7  c0,0-48.2-53.9-55.3-68.4c-7-14.5-8.9-30.9-8.9-30.9H211.9z"
   id="path1317" />
<path
   class="st1"
   d="M135.8,82.1c-2.8-2.6-8.6-6.8-14.3-12.8c-14.3-15-15.4-19.8-15.4-20.9c0-6.9,14.3-7.9,29.7-7.9s29.7,1,29.7,7.9  c0,1.1-1.1,5.9-15.4,20.9C144.4,75.4,138.6,79.5,135.8,82.1z"
   id="path1319" />
<g
   id="g1323">
	<polygon
   class="st1"
   points="154.6,54.1 114.4,54.1 120.6,20.3 148.4,20.3  "
   id="polygon1321" />
</g>
<path
   class="st2"
   d="M183.6,148c0.6,1.2,21.2,3.1,31.2-6.6l3.1-6.9l-13.4-41.8l0.9-15.6c0,0,0.3-10.6-7.2-15.6  c-7.5-5-32.8-16.2-32.8-16.2s-30.6,20-55.9-2.5c0,0-32.5,2.2-42.5,8.1l-0.7,1.2l-4.6,7.2c0.4,1.5,0.6,3.1,0.6,4.7  c0,9.9-0.5,19.8-0.4,29.7c0,4.8,0.4,9.6,0.4,14.5c0,2.6-0.3,5.2-0.6,7.8c0,0.1,0.1,0.2,0.1,0.3c2,4.5,3.8,9.1,4.7,13.8l9-12.1  c0,0-2.8,43.1-4.1,53.7l-0.9,10.9L68.7,218c0,0,92.4,11.2,120.8,2.2l6.2-3.4c0,0-11.2-52.8-13.7-57.8l0.6-32.5l1.6-8.4  C184.3,118.1,183,146.8,183.6,148z"
   id="path1325" />
<g
   id="g1337">
	<path
   class="st0"
   d="M255.8,247.4c0,0,11.5,10.2,12.4,12.2c0.9,2,5.9,17.1,8.5,18.3c2.6,1.2,4.5-2.8,2.9-7.2   c-1.5-4.4-5.5-15.2-6.9-16.5c-1.4-1.3-4.9-7.8-6.4-9.2C264.9,243.5,254.3,239.7,255.8,247.4z"
   id="path1327" />
	<path
   class="st0"
   d="M265.1,244.8c0.3,3.4,8.7,8.6,9,9.5c0.2,0.9,3.5,12.1,5,15.7c1.5,3.6,4.6,0.9,4.2-4.1   c-0.5-5-2.9-13.1-3.6-14.4c-0.7-1.3-6.2-11.8-8.1-14.1C269.7,235.1,264.6,239.9,265.1,244.8z"
   id="path1329" />
	<path
   class="st0"
   d="M264.5,236.9c1.1,3.2,10.4,7.4,10.8,8.2c0.4,0.8,2.9,11.4,5.2,14.5c2.3,3.1,4.9-0.1,3.3-4.7   c-1.6-4.6-2.7-14-3.7-15.1c-1-1.1-9.4-7.7-11.8-9.5C265.9,228.4,262.9,232.3,264.5,236.9z"
   id="path1331" />
	<path
   class="st0"
   d="M254.6,248.8c0.8,1.1,3.8,2.6,7.1,3.8c0.8-0.9,1.6-1.8,2.5-2.6c3.1-3.2,6.4-6.1,9.5-9.4c0.7-0.7,1.4-1.5,2-2.2   c-3.8-6.7-16.7-19.1-23.5-8.6C252.2,229.8,252.7,246.2,254.6,248.8z"
   id="path1333" />
	<path
   class="st0"
   d="M252.4,229.5c0,0-2.9,9.5-3.6,12.9c-0.5,2.5-0.9,10.2-1.1,11c-0.2,0.8,8.3,7.2,9.8,7.8   c1.5,0.6,3.4-1.4,2.8-5.3c-0.6-3.9-5.3-6.7-5.3-6.7s5.3-10.4,4.8-14.9C259.3,229.8,252.4,229.5,252.4,229.5z"
   id="path1335" />
</g>
<path
   class="st0"
   d="M56.9,65.2c0,0-38.4,42.7-46.8,61.8s-5.9,34.6-5.9,34.6l8.5,6l33.5-21.9l-7.5-12.4c0,0,28.6-36.2,35.6-45.1  S80.8,51,80.8,51L56.9,65.2z"
   id="path1339" />
<path
   class="st2"
   d="M62.2,66.8l18.6,30.6c0,0,40.3-10.9,22.7-29.3S85.9,49.6,85.9,49.6l-6.6-1l-11.9,9.7L62.2,66.8z"
   id="path1341" />
<g
   id="g1347">
	<path
   class="st3"
   d="M66,62.5l-0.7,0.8c0,0-28.3,35.3-30.6,43.7l-2.4,3.7c4.6,3.8,8.8,8.1,13,12.4c2.1,1.4,4.3,2.8,6.5,4.1   c0.3,0.2,0.6,0.3,0.9,0.5c1.1,0.6,2.1,1.1,3.2,1.6c2.4,0.8,4.6,1.3,6.3,1.3L73,97.2L66,62.5z"
   id="path1343" />
	<path
   class="st2"
   d="M69,50.1c0,0-37.2,38.5-40.6,48.2l-7.4,9.2c0,0,27.5,20.7,38.5,21.5l15.7-38.3l-5.4-41.5L69,50.1z"
   id="path1345" />
</g>
<radialGradient
   id="SVGID_1_"
   cx="115.4369"
   cy="116.2047"
   r="21.8503"
   gradientTransform="matrix(0.70025578,0,0,0.56741985,47.831585,23.856255)"
   gradientUnits="userSpaceOnUse">
	<stop
   offset="0"
   style="stop-color:#EC1C24"
   id="stop1349" />
	<stop
   offset="1"
   style="stop-color:#346B5C;stop-opacity:0.8"
   id="stop1351" />
</radialGradient>
<ellipse
   class="st4"
   cx="128.6787"
   cy="89.775909"
   rx="15.321308"
   ry="12.385699"
   id="ellipse1354"
   style="fill:url(#SVGID_1_);stroke-width:0.483856" />
<g
   id="g1376">
	<path
   class="st0"
   d="M98.4,109.1c4-1,27.7-13.2,30.9-16.2c3.6-3.2,0.1-5.6-3.4-4.5c-3.5,1.1-28.1,12.4-30.3,13.6   C93.4,103.1,95,110,98.4,109.1z"
   id="path1356" />
	<g
   id="g1374">
		<path
   class="st0"
   d="M106.1,127.3c-10.1,6-21.6,6.4-27.6-0.6c-5.9-7,3.3-13.5,10.5-20.1c7.2-6.6,13.6-8.2,19.5-1.2    C114.4,112.4,114.5,122.4,106.1,127.3z"
   id="path1358" />
		<g
   id="g1370">
			<g
   id="g1368">
				<g
   id="g1366">
					<path
   class="st0"
   d="M110.9,111c0.3-0.1,0.7-0.2,1-0.3c1.3-0.4,2.6-0.9,3.6-1.8c1-0.9,1.6-2.4,1-3.7c-0.5-1.2-1.9-1.9-3.2-2       c-1.3-0.1-2.5,0.4-3.8,0.8c-1.9,0.7-3.8,1.3-5.7,2c-5.4,1.5-8.9,2.7-10.5,6.9c-0.2,0.4-0.3,0.9-0.1,1.3       c0.2,0.6,0.9,0.8,1.5,0.9c2.5,0.4,5-0.4,7.4-1.1C105,112.9,108,111.9,110.9,111z"
   id="path1360" />
					<path
   class="st0"
   d="M112.4,117.5c0.3-0.1,0.7-0.2,1-0.3c1.3-0.4,2.6-0.9,3.6-1.8c1-0.9,1.6-2.4,1-3.7c-0.5-1.2-1.9-1.9-3.2-2       c-1.3-0.1-2.5,0.4-3.8,0.8c-1.9,0.7-3.8,1.3-5.7,2c-5.4,1.5-8.9,2.7-10.5,6.9c-0.2,0.4-0.3,0.9-0.1,1.3       c0.2,0.6,0.9,0.8,1.5,0.9c2.5,0.4,5-0.4,7.4-1.1C106.5,119.4,109.5,118.5,112.4,117.5z"
   id="path1362" />
					<path
   class="st0"
   d="M113.1,123.5c0.3-0.1,0.6-0.2,0.9-0.3c1.1-0.4,2.2-0.7,3-1.5c0.8-0.8,1.3-2,0.9-3.1       c-0.4-1-1.6-1.6-2.7-1.7c-1.1-0.1-2.2,0.3-3.2,0.7c-1.6,0.6-3.2,1.1-4.8,1.7c-4.6,1.3-7.6,2.3-8.9,5.8       c-0.1,0.3-0.2,0.7-0.1,1.1c0.2,0.5,0.8,0.7,1.3,0.7c2.1,0.4,4.2-0.3,6.2-1C108.2,125.1,110.7,124.3,113.1,123.5z"
   id="path1364" />
				</g>
			</g>
		</g>
		<polygon
   class="st0"
   points="109.2,124.8 115.2,122.8 106.9,126.8   "
   id="polygon1372" />
	</g>
</g>
<path
   class="st3"
   d="M76,130.9c-3.6-2.4-7.1-5.1-11-7c1.2,1.8,2,4,2.1,6.4c0.1,2-0.5,3.9-1.4,5.5L76,130.9z"
   id="path1378" />
<path
   class="st3"
   d="M52.6,142.4c-1.4-0.3-2.7-0.9-3.9-1.6c0.1,0.4,0.1,0.8,0.1,1.1c0,0.6,0,1.3-0.1,1.9L52.6,142.4z"
   id="path1380" />
<path
   class="st3"
   d="M31.7,132.4c1.7-1.1,3.7-1.7,5.8-1.7c2,0,3.9,0.5,5.5,1.5c-0.1-0.5-0.1-0.9-0.1-1.4c0-2,0.7-3.8,1.9-5.4  c-4.5,1.2-8.3,2.3-10.4,3.2c-2.1,0.9-4.4,3.1-6.7,6c0.1,0,0.2,0,0.3,0C29.1,133.7,30.4,132.9,31.7,132.4z"
   id="path1382" />
<path
   class="st0"
   d="M78.6,116.3c0,0-37.4,11.5-46.3,16.2c-8.9,4.7-19.7,35.1-19.7,35.1l80.1-37.9L78.6,116.3z"
   id="path1384" />
</svg>
