<?xml version="1.0" encoding="utf-8"?>
<!-- Generator: Adobe Illustrator 23.0.5, SVG Export Plug-In . SVG Version: 6.00 Build 0)  -->
<svg version="1.1" id="Layer_1" xmlns="http://www.w3.org/2000/svg" xmlns:xlink="http://www.w3.org/1999/xlink" x="0px" y="0px"
	 viewBox="0 0 288 288" style="enable-background:new 0 0 288 288;" xml:space="preserve">
<style type="text/css">
	.st0{fill:#F1F0F1;}
	.st1{fill:#F2E6CF;}
	.st2{fill:#BDBDBD;}
	.st3{fill:#050303;}
	.st4{fill:none;stroke:#0F0F0F;stroke-width:0.75;stroke-miterlimit:10;}
	.st5{fill:#F1F0F1;stroke:#000000;stroke-miterlimit:10;}
	.st6{fill:none;stroke:#0A0A0A;stroke-miterlimit:10;}
</style>
<path d="M89.2,251.5c-0.2-8.4-0.3-16.9-0.5-25.3c-0.2-6-1-12-2.9-17.7c-2.3-7-6.3-12.9-12.5-17.3c-2-1.4-3.9-3.1-5.7-4.8
	c-1.5-1.4-3-3-0.4-4.8c1.4-1,0.3-1.8-0.3-2.6c-3.6-5-8-9.2-12.4-13.4c-5.9-5.6-12-10.9-16.6-17.6c-3.4-4.9-5.7-10.1-6.5-16
	c-1.6-12.5,4.1-22.8,16.2-29.1c11.1-5.8,23-9.6,35-13.1c4.2-1.2,8.4-2.7,12.7-3.7c2.4-0.6,3.1-1.7,2.9-4.1
	c-0.5-11.4,6.7-21.2,17.2-23.9c1.8-0.5,3.5-0.6,5.3-0.5c1,0,2.6-0.3,2.7,1c0.1,1.5-1.5,1-2.5,1.1c-1.5,0.1-3.1,0.1-4.6,0.4
	c-6,1.2-10.3,4.5-12.9,9.9c-1.9,4.1-2.5,8.4-3.1,12.8c-0.3,1.8,0.5,1.8,1.7,0.8c9.8-2.2,20-2.8,29.2-7.4c8.3-4.2,17.2-5.4,26.2-1.5
	c1.9,0.9,3.2,0.6,4.1-1.5c1-2.4,3.1-4,5.6-5.2c1.6-0.7,3.5-0.6,4.2,0.8c1.3,2.5,3.8,4.1,5,6.5c1.3,2.5,3.2,4.9,3.1,8.2
	c-0.1,2.2,0.1,5.5,4.3,6c1.7-10.7-2.7-19.1-10.3-26.3c-9.8-12.8-25.4-15.8-38.6-7.4c-0.9,0.6-1.9,1.4-2.7,0.2
	c-0.8-1.2,0.4-1.9,1.2-2.5c10-7,20.6-7,31.1-1.7c10.9,5.5,17.6,14.7,21.7,25.6c1.8,4.9,0.9,9.9-0.7,14.6c-1.4,4.2-3.2,8.2-4.7,12.3
	c-0.4,1-1,2,0.4,3c1.4,1.1,1.4,2.9,1.2,4.5c-0.7,5.6-2.5,10.8-5.7,15.5c-0.8,1.2-1.8,2.8-3,2.8c-4.3,0.2-4.4,3.6-5.5,6.1
	c-2.4,5.5-5.5,10.4-10.5,14.2c-2.1,1.7-3.3,11.5-1.1,12.7c6.4,3.6,11.6,9.3,19.4,10.9c7.5,1.6,15.1,2.5,22.5,4.3
	c14.9,3.8,20.2,7.6,23.1,24.2c1.5,8.4,1.7,17,5.4,25c0.6,1.4,1.7,3.9-1.9,4.3c-1.5,0.1-0.9,1.7-0.7,2.6c0.7,4.1,1.6,8.2,2.1,12.3
	c0.3,2.2,1.5,4.9-1.3,6.6c-0.4-0.8-0.8-1.7-1.2-2.5c-0.6-3.4-1-6.8-1.9-10.1c-0.8-2.8,0.4-7-2.1-8.1c-2.5-1.1-6.2,0.5-9.4,0.9
	c-0.2,0-0.4,0.2-1,0.4c4.2,4.8,7.7,9.9,10.7,15.4c0.1,0.5,0,1.1,0.8,1.1l-0.1,0c-0.4,1,0.1,2.5-1.6,2.7c-1.4,0.2-1.7-1-2.1-2
	c-2.8-6-6.9-11-11-16.1c-10-12.5-20.5-24.6-28.8-38.3c-3.3-5.5-6.5-11.1-10.8-15.9c-5.7-6.3-12.8-9.3-21.6-7.6
	c-3,0.7-4.6,3.4-8.1,5.3c3.2,0.5,4.5,3,7,2c2.9-1.1,6.5,1.8,9.1-1.5c0.2-0.3,1.2,0.5,1.6,1.1c-1,2.2-3.3,3.5-4.5,5.5
	c-3,2.8-5.6,5.8-3.9,9.8c2.1-1.6,4.1-3.2,6.2-4.9c1.1-0.9,2.1-1.8,3.3-2.6c0.7-0.5,1.6-1.6,2.4-0.6c0.9,1-0.5,1.6-1.1,2.2
	c-2.9,2.8-6.5,5-8.7,8.6c-1,1.2-3,2.7-1,4.1c1.9,1.4,3.4-0.1,4.2-2c0.4-0.4,0.8-0.9,1.3-1.2c1.3-0.7,2.2-3.3,3.9-1.8
	c1.5,1.3-1.2,2.3-1.6,3.7c-0.6,0.7-1.3,1.3-1.8,2c-0.8,1.2-2,2.7,0.2,3.7c1.7,0.8,2.7-0.2,3.1-1.7c0.4-1.6,1.4-1.6,2.6-1.1
	c0.2,0.6,0.3,1.2,0.5,1.9c0.9,4.7,2.3,6,6.8,6.3c2.3,0.1,4.4,0.6,6.5,1.3l0.1,0.1c0.2,0.7,0.7,1.1,1.3,1.3c3.3,4.1,5,8.9,5.9,13.9
	c1.8,10.9,6,20.8,12.7,29.7c0.2,0.8,0.9,2-0.1,2.4c-1.7,0.7-2.1-1.4-3.3-1.8c-6.5-8.7-9.5-18.7-11.5-29.1c-0.9-4.4-1.6-8.9-5-12.3
	c-0.6-1.1-1.3-2.9-2.5-2.6c-7.2,2-11-5.9-17.6-5.5c-0.6,0-1.6-0.5-1.8-1c-1.6-3.7-9.2-3.9-6.4-10.2c0-0.1-0.2-0.4-0.4-0.5
	c-3.5-3.5-2-7,0.1-10.4c0.9-1.5,2.1-2.9,3.2-4.3c-1.5-0.9-2.8-1-3.9-0.1c-1.2,1-2.2,0.6-3.2-0.1c-6.6-3.9-14-6.4-20.4-10.7
	c-1.7-1.6-3.4-3.2-5.1-4.8c-0.7-0.6-1.2-1.3-2.4-1.2c-6.3,0.7-10.9-2.6-15.2-6.3c-5.5-4.7-10.8-9.6-16.1-14.9
	c-2.5,7.1-2.3,14.2-4,21c-1.4,4.7-1.6,10-5.1,13.7c-2.7,3-1.4,4.3,1,6c1.7,1.3,3.4,2.6,5,3.9c2.9,2.2,5.4,4.8,7.4,7.8
	c5.7,8.5,7.2,17.9,6.8,27.8c-0.4,0.8-0.4,1.6-0.1,2.5c0.1,3.6,0.1,7.3,0.2,10.9c0,0-0.2,0.1-0.2,0.1s0.2,0.1,0.2,0.1
	c0.3,6.2,0.6,12.4,0.8,18.6c0,1.1,0.2,2.6-1.4,2.8c-1.7,0.2-1.6-1.4-1.7-2.4c-0.3-1.9-0.3-3.9-0.5-5.8
	C89.2,252,89.2,251.7,89.2,251.5z M123.3,155.5c-0.6,4.6-1.4,9.1-6.5,11.5c3.5,4.1,8.5,5.9,13,8.5c3.3,2,6,1.9,8.8-0.9
	c3-2.9,6.5-4.8,11.1-4.4c3.2,0.3,4.7-2.8,3.6-5.8c-0.5-1.3-0.7-2.7-1-4c0-2.2,0-4.3,0-6.6c-10,3.3-19.6,2.4-28.9-2.5
	c-0.1,0.7-0.1,0.9-0.1,1.1C123.3,153.5,123.3,154.5,123.3,155.5z M191.2,212.5c1.9,2.3,3.8,4.6,5.7,6.9c2.4,3.9,5.7,7.1,8.6,10.6
	c0.6,0.8,1.3,1.3,2.4,1c5.2-1.2,10.5-1.5,16.1-2c-2.1-4.5-3.4-8.9-4.1-13.5c-0.6-4.5-1.4-8.9-2-13.4c-1.6-11.9-8.7-18.9-20.7-21.2
	c-6.9-1.4-13.9-2.4-20.7-4.1c-7.1-1.7-13.5-4.6-17.8-10.8c-1.4,1.7-2.7,3.4-4.2,5.3c6.2,1.6,10.8,4.9,14.4,9.6
	c2.6,3.4,4.6,7,6.7,10.7C179.9,199.2,185.2,206.1,191.2,212.5z M139.8,120.6c-1-5.1,0-9.9,1.5-14.7c1.3-2,2.6-4,4-6.3
	c-2.8-0.5-5.6-2-7.5-1.3c-3.9,1.5-7.9,1.3-11.9,2c-2.3-0.2-4.6-0.4-6.8-0.6c-3.9-2.7-7.1-0.1-10.4,1.5c-1.3,0.3-1.7,1-1.6,2.3
	c0.5,12.5,1.8,25,8.3,36.2c5.3,9.2,12.8,14.7,24.5,13.7c11-0.9,19.2-5.7,24.2-15.4c2.3-4.6,3.8-9.5,4.9-14.4
	c1.7-7.3,2.5-14.7,3.5-22.1c0.1-1.1,1.6-2.6-0.1-3.1c-1.1-0.3-2.6,0.8-3.9,1.3c1.3,1.5-0.3,2.2-1,3.1c-2.3,0.4-4.5,1.2-6.9,0.6
	c0,1.2,0.8,1.6,1.3,2.2c2,2.5,1.5,4.9-1.3,6.4c-3.8,1.9-8.5-0.9-9.3-5.6c0.9-2.1,2.9-2.8,5.1-3.8c-2.9-0.8-5.5-1.5-8.1-2.1
	c-0.9-0.2-1.8-0.7-2.5,0.8c-1.6,3.7-3.5,7.3-3.8,11.4c-0.1,2.5-1.5,5,0.9,7.4c3.6,3.6,2.5,6.7-2.6,8.2c-0.1-1,0.6-1.7,1.2-2.4
	C143.6,123.1,143.3,122.2,139.8,120.6z M56.2,162.6c2.8,3.6,6.7,6.3,9.9,9.5c1.4,1.4,2.5,4.3,4.1,3.8c2.1-0.7,2.4-3.7,2.9-5.9
	c0.2-1,0.4-2,0.6-3.1c1.6-6.9,0.2-14.1,1.8-21c0.2-0.7-0.2-1.1-0.6-1.5c-3.3-3.5-5-7.9-6.8-12.1c-1-2.3-1.8-2.5-3.1-0.4
	c-0.3,0.2-0.5,0.4-0.8,0.6c-0.8,0.6-1.5,2.1-2.6,1.3c-1.4-1,0-2.1,0.6-2.9c1.5-1.9,3-3.9,4.8-5.6c13.4-12.3,28.8-21.6,45.6-28.8
	c7.9-3.4,16.1-3.8,24.5-1.1c13.3,4.3,26.6,3.1,39.7-1c1.3-0.4,2.1-1,1.8-2.4c-0.2-1.4-1-1.9-2.5-1.8c-2.7,0.1-5.1,1-7.6,1.7
	c-5,1.3-9.7,1.7-13.6-2.7c-2.9-3.2-6.8-4-11.1-3.3c-2.9,0.5-5.9,0.7-8.9,0c-0.7-0.2-1.5-0.4-1.5-1.3c0-0.8,0.6-1.2,1.4-1.2
	c6.6,0.2,13.5-2.5,19.9,1.6c2,1.6,4,3.3,6,4.9c1.1,0.9,2.4,0.7,3.3,0c0.9-0.6,1.2-1.8,1.8-2.8c-3.1-1.5-1-5.1-3-7.2
	c-0.9-1-1.7-1.4-2.9-1.5c-8.2-4.8-16.6-4.5-25-0.9c-13.1,5.6-26.9,8.6-40.6,12.1c-15.5,4-30.8,8.2-45,15.7c-16,8.6-19.9,24-9.7,38.7
	C44.3,150.9,50,157,56.2,162.6z M97.1,107.1c-9.5,5.5-18.3,11.1-25.7,18.3c-0.7,0.6-1.5,1.2-1,2.3c1.8,4.4,3.5,8.8,6.3,12.8
	c0.3,0.4,0.6,1.2,1.3,0.4c2.2-2.5,3.3-0.2,4.4,1c4.4,4.9,9,9.5,14,13.9c4.8,4.3,10.4,6.8,16.7,8.2c1.8,0.4,3.5,0.4,5-1
	c2.7-2.8,3.2-13.4,0.5-16.1c-4.8-4.9-8-10.6-10.1-16.9c-0.4-1.1-0.7-2-2-2.6c-3.8-1.7-5.8-4.9-7.2-8.6
	C97.9,115.2,97.6,111.5,97.1,107.1z M180.5,112.5c0-1.9,0.2-3.2-1.1-3.8c-1.1-0.5-2,0.4-2.9,0.9c-1.6,1-2.6,2.2-2.9,4.1
	c-0.7,4.1-1.6,8.2-2.3,12.2c-0.1,0.8-0.6,1.8,0.2,2.3c1.1,0.6,1.7-0.5,2.3-1.2C177.9,122.7,179.1,117.2,180.5,112.5z M106.7,124.8
	c-0.4-2.6-0.8-5-1.1-7.4c-0.3-2.5-0.4-5-0.6-7.6c-0.1-1-0.6-1.7-1.3-2.4c-0.8-0.8-1.6-2.1-2.9-1.6c-1.3,0.5-1.3,1.9-1.2,3
	c0.3,3.4,0.8,6.9,2.1,10.1C102.7,121.4,103.8,123.6,106.7,124.8z M175.1,80.1c-2.6,0.3-5.1,0.9-7.4,2.3c-0.8,0.5-1.3,1.1-0.9,2
	c0.3,0.8,0.8,1.4,1.9,1c2.2-0.9,4.6-1.3,6.9-1.6c1.7-0.2,1.7-1.6,1.7-2.6C177.3,80,176.1,80.1,175.1,80.1z M174.8,105.1
	c0.1,0.7-0.5,1.9,0.8,2.2c1.1,0.2,1.8-0.7,2.2-1.8c0.5-1.9,1.4-3.7,1.7-5.6c0.2-1,2-2.6-0.2-3c-1.5-0.3-3.6,0.3-3.8,2.6
	C175.4,101.3,175.1,103.1,174.8,105.1z M163.5,77c1.7-1.6,3.5-3.1,5.7-4c1.2-0.5,1.8-1,1.2-2.3c-0.6-1.2-1.7-1.6-3-1.1
	c-2.5,1-4.1,3.1-5.2,5.4C161.7,76.1,162.4,76.7,163.5,77z M171.5,74.5c-1.7,0.1-3.1,1-4.4,2.1c-0.9,0.7-2.3,1.6-1.8,2.7
	c0.7,1.2,2.1,0.3,3.2,0c1.1-0.3,2.3-0.5,3.4-0.9c0.9-0.3,2.5,0.2,2.4-1.2C174.2,75.8,173.2,74.7,171.5,74.5z M167,89.1
	c3.3-0.4,6.2-0.8,9.2-1.1c0.8-0.1,1.4-0.4,1.4-1.2c-0.1-0.9-1.1-1.1-1.6-0.9C173.1,86.8,169.7,86.2,167,89.1z"/>
<path class="st0" d="M76.8,166.4c1.6-6.8,1.4-13.9,4-21c5.3,5.4,10.6,10.3,16.1,14.9c4.4,3.7,8.9,7,15.2,6.3
	c1.2-0.1,1.7,0.6,2.4,1.2c1.7,1.6,3.4,3.2,5.1,4.8c-1.4,5,0.4,9,3.9,12.6c2.9,3,4.6,6.5,4.7,10.9c0.1,3.6,0.2,7.6,4.1,9.7
	c3,1.6,3.8,3.7,2.5,6.9c-1.4,3.6-1.7,7.6,1.4,10.3c3.5,3.2,6,6.8,7.5,11.2c0.8,2.5,2.4,3.5,5.1,3.2c1.3-0.2,2.5,0,3.6,1
	c4.8,4,6.5,3.8,10.8-1.1c0.9,3.1,2.9,4.5,6.4,4.6c1.9,0,3.7,0.5,5.3,1.8c0.9,0.8,1.4,1.6,1.1,2.7c-0.3,1.1-0.9,1.9-2.1,2
	c-2,0.2-3.9,1.1-6,0.3c-1.6-0.6-3.2-0.5-3.2,1.8c0,1.8-0.8,4.2,2.6,4.1c2.1-0.1,4.3,0,6.4,0c0.6,0,1.3,0.2,1.4,0.9
	c0.1,0.7-0.5,1-1.1,1.1c-1.7,0.5-3.5,0.9-5.3,0.7c-2.4-0.2-3.6,0.9-3.3,3.3c-9.9,0-19.7-0.5-29.5-1.5c-6.1-0.6-11.8,0.9-17.6,1.3
	c-2,0.1-4,0.4-6,0.3c0-1.5-0.8-2-2.2-2c-1.3,0-2.6-0.2-3.9-0.5c-1-0.2-2.9,0-2.6-1.6c0.2-1.2,1.9-0.5,2.8-0.7
	c1.2-0.3,3.3,0.8,3.4-1.3c0-2-1.6-2.9-3.7-2.8c-1.8,0.1-3.6,0-5.4,0c-1.1,0-2.4,0-2.3-1.5c0.1-1.2,1.3-1.2,2.2-1.3
	c1.6,0,3.1,0.1,4.7,0c0.8,0,2.1,1.1,2.3-0.4c0.1-1.1-0.4-2.3-2-2.4c-0.8,0-1.7-0.1-2.5-0.4c-1.7-0.6-4.1-0.6-4.3-3
	c-0.1-2.4,2.1-2.7,3.9-3.4c0.9-0.3,2.6-0.1,1.9-1.7c-0.7-1.8-0.4-4-2.2-5.3c0.7-2.9,2.8-5.4,3-8.4c0.3-5.6,3.1-9.9,7.1-13.9
	c3.5-3.4,3.4-6.2,0.3-10.2c-2.5-3.2-3.8-6.6-3.5-10.6c0.1-1.7,0.1-3.5,0-5.2c-0.3-4.1-2.1-5.9-6.3-5.8c-2.5,0.1-4.6-0.6-6.1-2.3
	c-2.2-2.6-4.8-4-8.4-3.3c-1.2,0.2-2.7-0.1-3.3-1.1C83.4,168.5,80.2,167.3,76.8,166.4z M170,247.1c1.2-0.8,3.2-0.1,3.4-1.5
	c0.2-1.5-1.7-1.6-2.9-1.9c-0.2-0.1-0.5-0.1-0.7,0c-1.6,0.6-4.6-2.4-4.9,0.9C164.6,247.9,168.6,245.5,170,247.1z M101.3,243
	c2.1,0.7,3.3,1.8,4.7,0.8c0.1-0.1,0.1-0.7-0.1-0.9C104.7,241.9,103.4,242.1,101.3,243z"/>
<path class="st1" d="M192.5,258.8c-6.6-9-10.8-18.8-12.7-29.7c-0.8-5.1-2.6-9.8-5.9-13.9c-0.1-0.8-0.5-1.3-1.3-1.3
	c0,0-0.1-0.1-0.1-0.1c0.1-1.3-0.3-2.4-1.8-2.5c-4.5-0.3-8.3-2.3-11.6-5.1c-0.2-0.6-0.3-1.2-0.5-1.9c0.2-0.8-0.1-1.3-1-1.3
	c-1.3,0-2.5-0.4-3.1-1.7c0.4-1.3,3-2.4,1.6-3.7c-1.7-1.5-2.6,1.1-3.9,1.8c-0.5,0.3-0.9,0.8-1.3,1.2c-1.2-0.5-1.8-1.9-3.2-2.2
	c2.1-3.6,5.7-5.8,8.7-8.6c0.6-0.6,2-1.1,1.1-2.2c-0.8-1-1.7,0.1-2.4,0.6c-1.2,0.8-2.2,1.7-3.3,2.6c-3.2-0.6-1.8-3.2-2.3-5
	c1.2-2.1,3.5-3.3,4.5-5.5c2.3-1.7,0.5-1.9-0.9-2.2c-3.4-0.8-7.1-0.9-8.7-4.8c8.8-1.8,15.9,1.2,21.6,7.6c4.3,4.8,7.5,10.4,10.8,15.9
	c8.3,13.7,18.8,25.8,28.8,38.3c4.1,5.1,8.2,10.2,11,16.1c0.4,0.9,0.7,2.1,2.1,2c1.7-0.2,1.2-1.7,1.6-2.7c1,0.2,2,0.4,3,0.5
	c0.4,0.8,0.8,1.7,1.2,2.5c-3.8,3.9-8.9,3.9-13.8,4.3C204.8,258.6,198.6,258.6,192.5,258.8z"/>
<path class="st2" d="M76.8,166.4c3.4,0.9,6.6,2.2,8.6,5.4c0.6,0.9,2,1.3,3.3,1.1c3.6-0.6,6.1,0.7,8.4,3.3c1.5,1.7,3.6,2.4,6.1,2.3
	c4.2-0.1,6,1.7,6.3,5.8c0.1,1.7,0.1,3.5,0,5.2c-0.2,4,1.1,7.5,3.5,10.6c3.1,3.9,3.2,6.8-0.3,10.2c-4,3.9-6.8,8.3-7.1,13.9
	c-0.2,3.1-2.4,5.5-3,8.4c-4.3,2.7-4.4,2.7-8.2-1.3c-1.5-1.7-1.1-3.9-1.8-5.7c-0.2,0-0.3,0-0.5,0c0.4-9.9-1.1-19.3-6.8-27.8
	c-2-3-4.5-5.6-7.4-7.8c-1.7-1.3-3.3-2.6-5-3.9c-2.3-1.7-3.7-3-1-6C75.2,176.3,75.4,171,76.8,166.4z"/>
<path class="st3" d="M173.2,63.3c7.6,7.2,12,15.6,10.3,26.3c-4.2-0.5-4.4-3.8-4.3-6c0.1-3.4-1.8-5.7-3.1-8.2c-1.2-2.4-3.7-4-5-6.5
	c-0.7-1.4-2.5-1.5-4.2-0.8c-2.5,1.1-4.5,2.7-5.6,5.2c-0.9,2.1-2.2,2.4-4.1,1.5c-9-3.9-17.8-2.6-26.2,1.5c-9.2,4.6-19.4,5.2-29.2,7.4
	c-0.4-3.6,1-6.7,2.6-9.9c1.2,1.5,0.8,3.3,2.4,4.4c1.1-4.1,3.6-7.4,6.2-11.9c-2.9,1.3-4.9,2.2-6.8,3.1c-0.9-1.2,0.2-1.8,0.7-2.4
	c4.2-5.2,12.3-7.3,18.7-4.7c1.2,0.5,1.8,0.6,2.7-0.5c5-5.7,11.5-7.7,19-7.5c0.1,1.9-5.2,1.1-2,4.4c0.5,0.5-0.6,0.8-1.1,0.9
	c-1.9,0.6-3.7,1.4-5.1,2.9c5.4,0.2,10.8-1.3,16.3,0.7c-0.3-1.8-1.9-2.4-1.9-3.7c0.2-0.1,0.3-0.3,0.5-0.4c2.4,0.4,4,2.5,6.6,2.5
	c1.2-1.2-0.9-2.3,0-3.7c3.6,0.5,6.8,1.8,9.5,4.1C171.1,62.7,171.8,63.7,173.2,63.3z"/>
<path class="st4" d="M197.9,87.2c2.4-0.7,4.4-1.9,6.9-2.1c1.3-0.1,2.2,0.3,2.4,1.4c0.2,1.2-0.9,1.7-1.8,1.7
	C202.9,88.3,200.2,89.9,197.9,87.2z"/>
<path class="st4" d="M193.5,108.5c2.1,1.3,4.4,2,6.2,3.7c1,0.9,1.3,1.8,0.6,2.8c-0.7,1-1.9,0.5-2.4-0.1
	C196.2,113,193.2,112.1,193.5,108.5z"/>
<path class="st5" d="M93.1,68.3c-2.2,1-6.8-0.1-8-1.9c-0.4-0.6-0.8-1.2-0.2-1.8c0.8-0.8,1.7-0.8,2.6-0.4
	C89.6,65.2,91.2,66.7,93.1,68.3z"/>
<path class="st5" d="M85.6,79.6c0.5,0.2,2-0.5,2,0.9c0,1-1.1,1.8-1.9,1.6c-1.8-0.4-3.7,1.4-5.4-0.1c-0.5-0.5-1.3-0.8-1-1.6
	c0.2-0.7,0.9-0.6,1.5-0.6C82.3,79.8,83.8,79.7,85.6,79.6z"/>
<path d="M127.1,57.4c-0.1,0.1-0.3,0.6-0.6,0.8c-0.6,0.4-1.2,0-1.4-0.5c-0.9-2.3-2.1-4.4-4.4-5.7c-0.5-0.3-0.8-1-0.3-1.4
	c0.3-0.2,0.9-0.3,1.3-0.2C123.7,50.5,127.3,55,127.1,57.4z"/>
<path d="M131.7,49.2c-0.6,3-1.8,5.9-1.3,9.5C127.7,55.9,128.3,52.8,131.7,49.2z"/>
<path class="st3" d="M91.9,225.6c0.2,0,0.3,0,0.5,0c-0.2,0.8-0.4,1.7-0.6,2.5C91.5,227.2,91.5,226.4,91.9,225.6z"/>
<path class="st3" d="M89.2,251.5c0,0.3,0,0.6,0,0.9C89.2,252,89.2,251.7,89.2,251.5z"/>
<path class="st3" d="M153.6,59.3c0-0.2-0.1-0.4-0.1-0.6c0.2,0.1,0.4,0.1,0.5,0.2C153.9,59,153.8,59.2,153.6,59.3z"/>
<polygon class="st3" points="92,239.2 91.8,239.1 92,239 "/>
<path class="st1" d="M154.7,84.9c-6.3-4-13.2-1.3-19.9-1.6c-0.8,0-1.4,0.4-1.4,1.2c0,0.9,0.8,1.1,1.5,1.3c3,0.7,6,0.5,8.9,0
	c4.3-0.7,8.3,0.2,11.1,3.3c4,4.4,8.6,4,13.6,2.7c2.5-0.7,5-1.6,7.6-1.7c1.5-0.1,2.2,0.5,2.5,1.8c0.3,1.4-0.5,2-1.8,2.4
	c-13.2,4-26.4,5.3-39.7,1c-8.3-2.7-16.6-2.2-24.5,1.1C95.8,103.7,80.4,113,67,125.3c-1.8,1.7-3.3,3.7-4.8,5.6c-0.7,0.8-2,2-0.6,2.9
	c1.1,0.8,1.8-0.7,2.6-1.3c0.3-0.2,0.6-0.4,0.8-0.6c2.7,4.2,3.5,9,5.1,13.5c1.2,3.3,1.5,6.7,1.3,10.2c-0.5,6.9-5.6,10.2-12.2,7.9
	c-1-0.3-1.9-1-3-0.8c-6.1-5.7-11.8-11.7-16.6-18.6c-10.2-14.7-6.4-30.1,9.7-38.7c14.1-7.5,29.5-11.8,45-15.7
	c13.7-3.5,27.5-6.6,40.6-12.1c8.4-3.6,16.9-3.9,25,0.9c0.8,4.6,0.8,4.6-4.1,5.8C155.4,84.3,155,84.6,154.7,84.9z"/>
<path class="st1" d="M140.3,128.1c5.1-1.5,6.1-4.6,2.6-8.2c-2.4-2.4-1-4.9-0.9-7.4c1.7-0.2,2.2-2.8,4.2-2.1c3.1,1.1,4-0.2,4.1-2.9
	c0-0.4,0.7-0.8,1-1.3c0.8,4.7,5.5,7.5,9.3,5.6c2.8-1.4,3.4-3.9,1.3-6.4c-0.5-0.6-1.3-1-1.3-2.2c2.4,0.6,4.6-0.2,6.9-0.6
	c1.8,0.2,3.4-0.6,5-1.3c-1,7.4-1.8,14.8-3.5,22.1c-1.1,5-2.6,9.8-4.9,14.4c-5,9.7-13.2,14.4-24.2,15.4c-11.7,1-19.2-4.5-24.5-13.7
	c-6.5-11.2-7.7-23.7-8.3-36.2c-0.1-1.2,0.4-2,1.6-2.3c0,1.1-0.5,2.6,1.7,1.7c2.9-1.1,5.8-2.1,8.7-3.2c2.3,0.2,4.6,0.4,6.8,0.6
	c2,2.6,6.4,2.8,6.7,7c2.2-1.2,2.3-3.4,3.6-4.7c2.1-2.1,4.3-0.7,5.1,3.2c-1.6,4.8-2.5,9.7-1.5,14.7c-0.3,2.5-0.9,4.5-4.4,4.1
	c-1.2-0.1-3.3,0.5-2.7,2.2C133.6,129.2,137.7,129.7,140.3,128.1z M137.6,130.9c-3.4,0.1-6.3,1.1-8.7,3.5c-1.6,1.7-1.4,3,1.1,3.3
	c5,0.6,10,1.1,15,1.5c1.6,0.1,2-0.8,1.5-2.3C145.4,133.9,141,130.9,137.6,130.9z M119.5,105c0.1,0.9,0.1,1.6,0.3,2.2
	c0.7,2.3,2.4,3.3,4.8,3.2c1.9-0.1,3.6-0.7,4.2-2.6c0.7-2.3-0.3-4.1-2.3-5.3c-3.9-2.4-8.6-0.6-9.9,3.9c0,0.1,0.3,0.3,0.5,0.4
	C118.2,106.8,118.3,105.5,119.5,105z M112.3,106.8c-0.9,2-1,3.5-1.8,4.8c-0.8,1.3-0.6,2.9,0,4.3c0.5,1.1,1,2.2,2.5,1.9
	c1.4-0.3,1.3-1.5,1.3-2.5C114.5,112.5,113.9,109.9,112.3,106.8z M168.3,114.1c-0.4-1,0.7-3-1-3.1c-1.4-0.1-1.8,1.8-1.9,3.2
	c-0.1,1.1-0.2,2.7,1.3,2.8C168.6,117,168.1,115.3,168.3,114.1z"/>
<path class="st0" d="M191.2,212.5c-6-6.4-11.3-13.4-15.7-21c-2.1-3.6-4.1-7.3-6.7-10.7c-3.6-4.7-8.2-8.1-14.4-9.6
	c1.5-1.8,2.8-3.5,4.2-5.3c4.3,6.3,10.8,9.2,17.8,10.8c6.8,1.6,13.8,2.7,20.7,4.1c12,2.4,19.1,9.3,20.7,21.2c0.6,4.5,1.3,8.9,2,13.4
	c0.7,4.6,2,9,4.1,13.5c-5.5,0.5-10.9,0.9-16.1,2c-1.1,0.3-1.8-0.3-2.4-1c-2.9-3.5-6.1-6.8-8.6-10.6c-1-4.6-2.1-9.1-3.2-14.4
	C192.6,207.9,192.6,210.5,191.2,212.5z"/>
<path class="st2" d="M166.4,230.4c-1,2.3-1.4,4.9-3.1,6.9c-4.3,4.9-6,5.1-10.8,1.1c-1.1-1-2.3-1.1-3.6-1c-2.7,0.3-4.2-0.7-5.1-3.2
	c-1.4-4.3-3.9-8-7.5-11.2c-3.1-2.8-2.8-6.8-1.4-10.3c1.3-3.2,0.5-5.3-2.5-6.9c-4-2.2-4-6.2-4.1-9.7c-0.1-4.4-1.8-7.8-4.7-10.9
	c-3.5-3.6-5.3-7.6-3.9-12.6c6.4,4.3,13.8,6.8,20.4,10.7c1.1,0.6,2.1,1.1,3.2,0.1c1.1-0.9,2.4-0.9,3.9,0.1c-1.1,1.4-2.2,2.8-3.2,4.3
	c-2.1,3.4-3.6,6.9-0.1,10.4c0.2,0.2,0.4,0.4,0.4,0.5c-2.9,6.3,4.8,6.5,6.4,10.2c0.2,0.5,1.2,1.1,1.8,1c6.6-0.4,10.4,7.4,17.6,5.5
	c1.2-0.3,1.9,1.5,2.5,2.6c-0.8,0.8-1.4,2-2.4,2.5c-3.7,2-4.7,4.9-3.8,8.6C166.4,229.5,166.4,230,166.4,230.4z"/>
<path class="st1" d="M152.4,160.4c0.3,1.3,0.5,2.7,1,4c1.1,3-0.4,6.1-3.6,5.8c-4.7-0.4-8.1,1.5-11.1,4.4c-2.9,2.8-5.5,2.8-8.8,0.9
	c-4.4-2.6-9.5-4.4-13-8.5c5.1-2.3,5.8-6.9,6.5-11.5c1.1-0.1,2,0.2,2.9,0.9C134.1,162.7,142.7,164.7,152.4,160.4z"/>
<path class="st2" d="M56.2,162.6c1.1-0.1,2,0.5,3,0.8c6.6,2.3,11.7-1,12.2-7.9c0.2-3.5-0.1-6.9-1.3-10.2c-1.6-4.5-2.5-9.3-5.1-13.5
	c1.3-2.1,2.1-1.9,3.1,0.4c1.8,4.3,3.4,8.6,6.8,12.1c0.4,0.4,0.7,0.9,0.6,1.5c-1.7,6.9-0.2,14.1-1.8,21c-0.2,1-0.4,2-0.6,3.1
	c-0.4,2.3-0.8,5.2-2.9,5.9c-1.6,0.5-2.7-2.4-4.1-3.8C62.8,168.9,59,166.2,56.2,162.6z"/>
<path class="st2" d="M152.4,160.4c-9.6,4.4-18.2,2.4-26.1-3.9c-0.9-0.7-1.8-1-2.9-0.9c0-1-0.1-2.1-0.1-3.1c0-0.2,0.1-0.5,0.1-1.1
	c9.3,4.9,19,5.8,28.9,2.5C152.4,156.1,152.4,158.2,152.4,160.4z"/>
<path class="st2" d="M223.5,251.2c-1-0.2-2-0.4-3-0.5c0,0,0.1,0,0.1,0c-0.3-0.4-0.5-0.7-0.8-1.1c-3-5.4-6.4-10.6-10.7-15.4
	c0.6-0.2,0.8-0.4,1-0.4c3.2-0.4,6.9-1.9,9.4-0.9c2.5,1.1,1.2,5.3,2.1,8.1C222.5,244.4,222.9,247.8,223.5,251.2z"/>
<path class="st2" d="M180.5,112.5c-1.3,4.7-2.6,10.3-6.7,14.6c-0.6,0.6-1.2,1.8-2.3,1.2c-0.8-0.4-0.3-1.5-0.2-2.3
	c0.8-4.1,1.7-8.1,2.3-12.2c0.3-1.9,1.3-3.2,2.9-4.1c0.9-0.5,1.8-1.4,2.9-0.9C180.6,109.2,180.5,110.5,180.5,112.5z"/>
<path class="st2" d="M151.3,106.2c-0.4,0.4-1,0.8-1,1.3c-0.1,2.7-1.1,4-4.1,2.9c-2-0.7-2.5,1.9-4.2,2.1c0.3-4.1,2.2-7.7,3.8-11.4
	c0.7-1.6,1.6-1.1,2.5-0.8c2.6,0.6,5.2,1.4,8.1,2.1C154.2,103.4,152.2,104.1,151.3,106.2z"/>
<path class="st2" d="M141.4,105.8c-0.8-3.9-3.1-5.4-5.1-3.2c-1.3,1.3-1.4,3.5-3.6,4.7c-0.3-4.2-4.7-4.5-6.7-7c4-0.6,8-0.4,11.9-2
	c1.9-0.7,4.8,0.7,7.5,1.3C143.9,101.8,142.7,103.8,141.4,105.8z"/>
<path class="st2" d="M106.7,124.8c-2.9-1.2-4-3.5-4.9-5.8c-1.3-3.2-1.8-6.7-2.1-10.1c-0.1-1.1,0-2.5,1.2-3c1.3-0.5,2.1,0.8,2.9,1.6
	c0.7,0.7,1.2,1.4,1.3,2.4c0.2,2.5,0.3,5,0.6,7.6C105.9,119.8,106.3,122.2,106.7,124.8z"/>
<path class="st2" d="M144.5,173.5c1.5,3.9,5.3,4,8.7,4.8c1.4,0.3,3.2,0.5,0.9,2.2c-0.4-0.6-1.3-1.4-1.6-1.1
	c-2.6,3.2-6.1,0.4-9.1,1.5c-2.5,1-3.8-1.6-7-2C140,176.9,141.5,174.2,144.5,173.5z"/>
<path class="st2" d="M154.7,84.9c0.4-0.2,0.7-0.6,1.1-0.7c4.9-1.2,4.9-1.2,4.1-5.8c1.2,0.1,1.9,0.5,2.9,1.5c2,2.1,0,5.7,3,7.2
	c-0.6,1-1,2.2-1.8,2.8c-0.9,0.6-2.2,0.8-3.3,0C158.6,88.2,156.6,86.5,154.7,84.9z"/>
<path class="st2" d="M140.3,128.1c-2.6,1.6-6.7,1.2-7.5-1.2c-0.6-1.7,1.5-2.3,2.7-2.2c3.4,0.4,4-1.7,4.4-4.1
	c3.5,1.6,3.8,2.5,1.6,5.1C140.9,126.4,140.2,127,140.3,128.1z"/>
<path class="st1" d="M175.1,80.1c0.9,0.1,2.2-0.1,2.2,1.1c0,1,0,2.4-1.7,2.6c-2.4,0.3-4.7,0.7-6.9,1.6c-1.1,0.4-1.5-0.2-1.9-1
	c-0.4-0.9,0.1-1.5,0.9-2C170,81,172.5,80.4,175.1,80.1z"/>
<path class="st3" d="M174.8,105.1c0.2-2,0.5-3.8,0.7-5.6c0.2-2.4,2.2-2.9,3.8-2.6c2.2,0.4,0.3,2,0.2,3c-0.3,1.9-1.2,3.7-1.7,5.6
	c-0.3,1.1-1,2-2.2,1.8C174.3,107,174.9,105.7,174.8,105.1z"/>
<path class="st2" d="M149.5,186c0.4,1.8-0.9,4.3,2.3,5c-2.1,1.6-4.1,3.2-6.2,4.9C144,191.8,146.5,188.8,149.5,186z"/>
<path class="st2" d="M163.5,77c-1.1-0.3-1.8-0.9-1.3-2c1.1-2.3,2.6-4.4,5.2-5.4c1.3-0.5,2.3-0.2,3,1.1c0.7,1.3,0,1.8-1.2,2.3
	C167,73.9,165.2,75.4,163.5,77z"/>
<path class="st2" d="M159.2,206.1c3.3,2.8,7.1,4.7,11.6,5.1c1.4,0.1,1.8,1.2,1.8,2.5c-2.1-0.8-4.3-1.2-6.5-1.3
	C161.4,212.1,160.1,210.8,159.2,206.1z"/>
<path class="st1" d="M171.5,74.5c1.7,0.1,2.7,1.2,2.8,2.6c0.1,1.4-1.5,0.9-2.4,1.2c-1.1,0.4-2.3,0.6-3.4,0.9c-1.1,0.3-2.5,1.3-3.2,0
	c-0.6-1.1,0.9-1.9,1.8-2.7C168.4,75.6,169.7,74.7,171.5,74.5z"/>
<path class="st2" d="M119.1,99.6c-2.9,1.1-5.8,2.1-8.7,3.2c-2.2,0.8-1.7-0.7-1.7-1.7C112.1,99.6,115.2,96.9,119.1,99.6z"/>
<path class="st2" d="M154.6,201.3c0.6,1.2,1.8,1.7,3.1,1.7c0.9,0,1.2,0.5,1,1.3c-1.3-0.5-2.2-0.5-2.6,1.1c-0.4,1.5-1.4,2.5-3.1,1.7
	c-2.1-1-1-2.5-0.2-3.7C153.3,202.6,154,202,154.6,201.3z"/>
<path class="st2" d="M167,89.1c2.7-2.9,6.1-2.3,8.9-3.3c0.5-0.2,1.5,0,1.6,0.9c0.1,0.9-0.6,1.1-1.4,1.2
	C173.2,88.4,170.3,88.7,167,89.1z"/>
<path class="st2" d="M147.8,198.5c1.4,0.2,2,1.6,3.2,2.2c-0.8,1.9-2.3,3.4-4.2,2C144.9,201.2,146.8,199.7,147.8,198.5z"/>
<path class="st2" d="M172.5,101.4c-1.6,0.7-3.2,1.4-5,1.3c0.7-0.9,2.3-1.6,1-3.1c1.3-0.5,2.8-1.6,3.9-1.3
	C174.1,98.8,172.6,100.3,172.5,101.4z"/>
<path class="st2" d="M172.7,213.8c0.9,0.1,1.2,0.6,1.3,1.3C173.4,214.8,172.8,214.5,172.7,213.8z"/>
<path class="st1" d="M219.8,249.6c0.3,0.4,0.5,0.7,0.8,1.1C219.8,250.7,219.8,250.1,219.8,249.6z"/>
<path class="st1" d="M101.3,243c2.2-0.9,3.5-1.1,4.7-0.1c0.2,0.1,0.2,0.8,0.1,0.9C104.5,244.8,103.4,243.7,101.3,243z"/>
<path class="st0" d="M175.9,253.3c-0.9-0.1-2.3,0.2-2.2-1c0.1-1.4,1.6-1,2.6-1c0.8,0,2.3-0.4,2.2,0.9
	C178.4,253.5,176.9,253.2,175.9,253.3z"/>
<path class="st0" d="M166.4,230.4c0-0.4,0.1-0.9,0.1-1.3c0.4,0,0.7-0.1,1,0c1.3,0.2,2.8-0.5,3.9,0.7c0.1,0.2,0.1,0.8-0.1,0.9
	c-1.4,1-2.9,0.5-4.3,0C166.8,230.5,166.6,230.5,166.4,230.4z"/>
<path class="st0" d="M174.3,237.2c-2.2,1.2-3.7,2.1-5.3,0.9c-0.2-0.1-0.3-0.8-0.2-0.9C170.3,236.2,171.9,236.6,174.3,237.2z"/>
<path class="st0" d="M100,238.8c-1-0.1-2.4,0.2-2.4-1c0.1-1.5,1.6-1,2.6-1c0.9,0,2.3-0.4,2.3,0.9C102.4,238.9,100.9,238.6,100,238.8
	z"/>
<path d="M137.6,130.9c3.5,0,7.8,3,8.9,6.1c0.5,1.5,0.2,2.4-1.5,2.3c-5-0.4-10-1-15-1.5c-2.5-0.3-2.7-1.6-1.1-3.3
	C131.2,132,134.2,131,137.6,130.9z M143.9,137.4c-3-5.5-9.1-6.1-13.1-1.4C135.2,136.2,139.5,136.7,143.9,137.4z"/>
<path d="M119.5,105c-1.2,0.5-1.3,1.7-2.4,1.8c-0.2-0.1-0.5-0.3-0.5-0.4c1.3-4.5,6.1-6.4,9.9-3.9c2,1.3,2.9,3,2.3,5.3
	c-0.6,1.9-2.2,2.6-4.2,2.6c-2.4,0.1-4.1-0.9-4.8-3.2C119.6,106.6,119.6,105.9,119.5,105z"/>
<path class="st6" d="M112.3,106.8c1.6,3.1,2.1,5.8,2.1,8.5c0,1,0.2,2.2-1.3,2.5c-1.5,0.3-2.1-0.8-2.5-1.9c-0.6-1.4-0.8-3,0-4.3
	C111.3,110.2,111.5,108.8,112.3,106.8z"/>
<path class="st5" d="M168.3,114.1c-0.2,1.2,0.3,3-1.6,2.8c-1.5-0.1-1.3-1.7-1.3-2.8c0.1-1.4,0.5-3.3,1.9-3.2
	C169,111.1,167.9,113,168.3,114.1z"/>
<path class="st1" d="M143.9,137.4c-4.5-0.7-8.7-1.3-13.1-1.4C134.8,131.4,140.9,131.9,143.9,137.4z"/>
</svg>
